SplineFontDB: 2.0
FontName: THFahkwang-Italic
FullName: THFahkwang-Italic
FamilyName: TH Fah kwang
Weight: Book
Copyright: Copyright (c) 2006 by Department of Intellectual Property (DIP), Ministry of Commerce and Software Industry Promotion Agency (Public Organization) (SIPA). All rights reserved.
Version: 1.1
ItalicAngle: -10
UnderlinePosition: -35
UnderlineWidth: 30
Ascent: 800
Descent: 200
Order2: 1
XUID: [1021 375 425136265 6802079]
FSType: 0
OS2Version: 3
OS2_WeightWidthSlopeOnly: 0
OS2_UseTypoMetrics: 1
CreationTime: 1158667020
ModificationTime: 1196263347
PfmFamily: 17
TTFWeight: 400
TTFWidth: 5
LineGap: 60
VLineGap: 0
Panose: 2 0 5 6 0 0 0 2 0 4
OS2TypoAscent: 0
OS2TypoAOffset: 1
OS2TypoDescent: 0
OS2TypoDOffset: 1
OS2TypoLinegap: 0
OS2WinAscent: -164
OS2WinAOffset: 1
OS2WinDescent: -214
OS2WinDOffset: 1
HheadAscent: 5
HheadAOffset: 1
HheadDescent: 196
HheadDOffset: 1
OS2SubXSize: 700
OS2SubYSize: 650
OS2SubXOff: 0
OS2SubYOff: 140
OS2SupXSize: 700
OS2SupYSize: 650
OS2SupXOff: 0
OS2SupYOff: 477
OS2StrikeYSize: 30
OS2StrikeYPos: 250
OS2FamilyClass: 773
OS2Vendor: 'ipth'
Lookup: 4 0 0 "'frac' Diagonal Fractions in Latin lookup 0"  {"'frac' Diagonal Fractions in Latin lookup 0 subtable"  } ['frac' ('latn' <'dflt' > ) ]
Lookup: 6 0 0 "'liga' Standard Ligatures in Latin lookup 1"  {"'liga' Standard Ligatures in Latin lookup 1 subtable"  } ['liga' ('latn' <'dflt' > ) ]
Lookup: 6 0 0 "'liga' Standard Ligatures in Latin lookup 2"  {"'liga' Standard Ligatures in Latin lookup 2 subtable"  } ['liga' ('latn' <'dflt' > ) ]
Lookup: 6 0 0 "'liga' Standard Ligatures in Latin lookup 3"  {"'liga' Standard Ligatures in Latin lookup 3 subtable"  } ['liga' ('latn' <'dflt' > ) ]
Lookup: 6 0 0 "'liga' Standard Ligatures in Latin lookup 4"  {"'liga' Standard Ligatures in Latin lookup 4 subtable"  } ['liga' ('latn' <'dflt' > ) ]
Lookup: 6 0 0 "'liga' Standard Ligatures in Latin lookup 5"  {"'liga' Standard Ligatures in Latin lookup 5 subtable"  } ['liga' ('latn' <'dflt' > ) ]

StartChar: .notdef
Encoding: 65536 -1 0
Width: 547
VWidth: 1533
Flags: W
HStem: 0 44<78 483> 681 20G<609.333 622.484> 739 44<198 604>
Fore
0 0 m 1,0,-1
 138 783 l 1,1,-1
 685 783 l 1,2,-1
 547 0 l 1,3,-1
 0 0 l 1,0,-1
604 739 m 1,4,-1
 198 739 l 1,5,-1
 348 431 l 1,6,-1
 604 739 l 1,4,-1
313 389 m 1,7,-1
 167 698 l 1,8,-1
 58 84 l 1,9,-1
 313 389 l 1,7,-1
78 44 m 1,10,-1
 483 44 l 1,11,-1
 334 350 l 1,12,-1
 78 44 l 1,10,-1
366 389 m 1,13,-1
 517 81 l 1,14,-1
 626 701 l 1,15,-1
 366 389 l 1,13,-1
EndSplineSet
EndChar
StartChar: numbersign
Encoding: 35 35 4
Width: 732
VWidth: 1533
Flags: W
HStem: 0 21G<199 253.216 402 455.216> 222 42<150 268 330 471 532 636> 423 42<216 331 392 535 595 701>
Fore
581 423 m 1,0,-1
 532 264 l 1,1,-1
 644 264 l 1,2,-1
 636 222 l 1,3,-1
 518 222 l 1,4,-1
 449 0 l 1,5,-1
 402 0 l 1,6,-1
 471 222 l 1,7,-1
 316 222 l 1,8,-1
 247 0 l 1,9,-1
 199 0 l 1,10,-1
 268 222 l 1,11,-1
 143 222 l 1,12,-1
 150 264 l 1,13,-1
 282 264 l 1,14,-1
 331 423 l 1,15,-1
 209 423 l 1,16,-1
 216 465 l 1,17,-1
 345 465 l 1,18,-1
 414 687 l 1,19,-1
 461 687 l 1,20,-1
 392 465 l 1,21,-1
 549 465 l 1,22,-1
 618 687 l 1,23,-1
 664 687 l 1,24,-1
 595 465 l 1,25,-1
 708 465 l 1,26,-1
 701 423 l 1,27,-1
 581 423 l 1,0,-1
379 423 m 1,28,-1
 330 264 l 1,29,-1
 484 264 l 1,30,-1
 535 423 l 1,31,-1
 379 423 l 1,28,-1
EndSplineSet
EndChar
StartChar: dollar
Encoding: 36 36 5
Width: 732
VWidth: 1533
Flags: W
HStem: 21 30<326.732 368 400 407.19 407.19 439.5 439.5 491.501> 647 25<439.688 483 515 579.656>
VStem: 110 89<157.447 210> 656 80<521 573.755>
Fore
696 218 m 0,0,1
 687 164 687 164 656.5 128 c 128,-1,2
 626 92 626 92 583.5 69 c 128,-1,3
 541 46 541 46 493 35.5 c 128,-1,4
 445 25 445 25 400 21 c 1,5,-1
 382 -83 l 1,6,-1
 350 -83 l 1,7,-1
 368 21 l 1,8,9
 325 21 325 21 278.5 32 c 128,-1,10
 232 43 232 43 192.5 66 c 128,-1,11
 153 89 153 89 129.5 125 c 128,-1,12
 106 161 106 161 110 210 c 1,13,-1
 199 210 l 1,14,15
 195 173 195 173 207 143 c 128,-1,16
 219 113 219 113 243 92.5 c 128,-1,17
 267 72 267 72 298.5 61.5 c 128,-1,18
 330 51 330 51 365 51 c 0,19,20
 399 51 399 51 439.5 57.5 c 128,-1,21
 480 64 480 64 515 80.5 c 128,-1,22
 550 97 550 97 577 124.5 c 128,-1,23
 604 152 604 152 612 195 c 0,24,25
 619 241 619 241 589.5 266 c 128,-1,26
 560 291 560 291 510.5 308 c 128,-1,27
 461 325 461 325 402 338 c 128,-1,28
 343 351 343 351 294 369.5 c 128,-1,29
 245 388 245 388 216 418.5 c 128,-1,30
 187 449 187 449 196 501 c 0,31,32
 205 549 205 549 236.5 582 c 128,-1,33
 268 615 268 615 309.5 635 c 128,-1,34
 351 655 351 655 398 663.5 c 128,-1,35
 445 672 445 672 483 672 c 1,36,-1
 500 771 l 1,37,-1
 532 771 l 1,38,-1
 515 672 l 1,39,40
 552 670 552 670 589 661 c 128,-1,41
 626 652 626 652 655.5 633.5 c 128,-1,42
 685 615 685 615 706.5 587.5 c 128,-1,43
 728 560 728 560 736 521 c 1,44,-1
 656 521 l 1,45,46
 642 583 642 583 596 615 c 128,-1,47
 550 647 550 647 486 647 c 0,48,49
 457 647 457 647 423 641 c 128,-1,50
 389 635 389 635 360 620.5 c 128,-1,51
 331 606 331 606 309 581.5 c 128,-1,52
 287 557 287 557 281 521 c 0,53,54
 274 483 274 483 305 461.5 c 128,-1,55
 336 440 336 440 385 424.5 c 128,-1,56
 434 409 434 409 493 395.5 c 128,-1,57
 552 382 552 382 600.5 360.5 c 128,-1,58
 649 339 649 339 677 306 c 128,-1,59
 705 273 705 273 696 218 c 0,0,1
EndSplineSet
EndChar
StartChar: percent
Encoding: 37 37 6
Width: 754
VWidth: 1533
Flags: W
HStem: -2 19<525.546 618.907> 301 16<204.272 297.054> 370 16<582.735 675.619> 672 16<259.36 351.712>
Fore
759 193 m 256,0,1
 753 159 753 159 736 124.5 c 128,-1,2
 719 90 719 90 693.5 62 c 128,-1,3
 668 34 668 34 635.5 16 c 128,-1,4
 603 -2 603 -2 566 -2 c 256,5,6
 529 -2 529 -2 502 16 c 128,-1,7
 475 34 475 34 460 62 c 128,-1,8
 445 90 445 90 440 124.5 c 128,-1,9
 435 159 435 159 442 193 c 256,10,11
 448 227 448 227 464.5 261.5 c 128,-1,12
 481 296 481 296 506.5 323.5 c 128,-1,13
 532 351 532 351 565 368.5 c 128,-1,14
 598 386 598 386 635 386 c 256,15,16
 672 386 672 386 698.5 368.5 c 128,-1,17
 725 351 725 351 740.5 323.5 c 128,-1,18
 756 296 756 296 760.5 261.5 c 128,-1,19
 765 227 765 227 759 193 c 256,0,1
182 -17 m 1,20,-1
 143 -17 l 1,21,-1
 695 705 l 1,22,-1
 734 705 l 1,23,-1
 182 -17 l 1,20,-1
435 495 m 256,24,25
 429 461 429 461 413 426.5 c 128,-1,26
 397 392 397 392 372 364 c 128,-1,27
 347 336 347 336 314 318.5 c 128,-1,28
 281 301 281 301 244 301 c 256,29,30
 207 301 207 301 180 318.5 c 128,-1,31
 153 336 153 336 138 364 c 128,-1,32
 123 392 123 392 117.5 426.5 c 128,-1,33
 112 461 112 461 118 495 c 0,34,35
 124 527 124 527 141 561.5 c 128,-1,36
 158 596 158 596 183.5 624.5 c 128,-1,37
 209 653 209 653 241.5 670.5 c 128,-1,38
 274 688 274 688 311 688 c 256,39,40
 348 688 348 688 375 670.5 c 128,-1,41
 402 653 402 653 417 625.5 c 128,-1,42
 432 598 432 598 437 563.5 c 128,-1,43
 442 529 442 529 435 495 c 256,24,25
701 193 m 0,44,45
 704 213 704 213 704 243.5 c 128,-1,46
 704 274 704 274 697 302 c 128,-1,47
 690 330 690 330 675.5 350 c 128,-1,48
 661 370 661 370 633 370 c 256,49,50
 606 370 606 370 583 350 c 128,-1,51
 560 330 560 330 543 302 c 128,-1,52
 526 274 526 274 515 244.5 c 128,-1,53
 504 215 504 215 501 193 c 0,54,55
 497 172 497 172 497 142 c 128,-1,56
 497 112 497 112 504 84.5 c 128,-1,57
 511 57 511 57 526 37 c 128,-1,58
 541 17 541 17 569 17 c 256,59,60
 596 17 596 17 618.5 37 c 128,-1,61
 641 57 641 57 658 84.5 c 128,-1,62
 675 112 675 112 685.5 142 c 128,-1,63
 696 172 696 172 701 193 c 0,44,45
376 495 m 0,64,65
 380 515 380 515 380 545.5 c 128,-1,66
 380 576 380 576 373 604 c 128,-1,67
 366 632 366 632 351.5 652 c 128,-1,68
 337 672 337 672 310 672 c 256,69,70
 282 672 282 672 260 652 c 128,-1,71
 238 632 238 632 221.5 604 c 128,-1,72
 205 576 205 576 194.5 545.5 c 128,-1,73
 184 515 184 515 179 495 c 0,74,75
 176 474 176 474 176 443 c 128,-1,76
 176 412 176 412 183 384.5 c 128,-1,77
 190 357 190 357 204.5 337 c 128,-1,78
 219 317 219 317 247 317 c 256,79,80
 274 317 274 317 296.5 337 c 128,-1,81
 319 357 319 357 335 384.5 c 128,-1,82
 351 412 351 412 362 443 c 128,-1,83
 373 474 373 474 376 495 c 0,64,65
EndSplineSet
EndChar
StartChar: ampersand
Encoding: 38 38 7
Width: 794
VWidth: 1533
Flags: W
HStem: -21 21<275.4 445.154> 668 19<407.03 507.106>
Fore
644 0 m 1,0,1
 621 12 621 12 602 27.5 c 128,-1,2
 583 43 583 43 564 60 c 1,3,4
 507 20 507 20 444.5 -0.5 c 128,-1,5
 382 -21 382 -21 317 -21 c 0,6,7
 276 -21 276 -21 231.5 -12 c 128,-1,8
 187 -3 187 -3 153.5 17.5 c 128,-1,9
 120 38 120 38 101.5 73.5 c 128,-1,10
 83 109 83 109 92 159 c 0,11,12
 98 201 98 201 119.5 231 c 128,-1,13
 141 261 141 261 170 284 c 128,-1,14
 199 307 199 307 234.5 324.5 c 128,-1,15
 270 342 270 342 305 359 c 1,16,17
 284 389 284 389 267.5 427 c 128,-1,18
 251 465 251 465 259 507 c 0,19,20
 265 546 265 546 285 579 c 128,-1,21
 305 612 305 612 333.5 635.5 c 128,-1,22
 362 659 362 659 397 673 c 128,-1,23
 432 687 432 687 471 687 c 0,24,25
 498 687 498 687 524 679.5 c 128,-1,26
 550 672 550 672 569.5 656.5 c 128,-1,27
 589 641 589 641 599 618 c 128,-1,28
 609 595 609 595 603 564 c 0,29,30
 596 526 596 526 575.5 497 c 128,-1,31
 555 468 555 468 526 446.5 c 128,-1,32
 497 425 497 425 463 408 c 128,-1,33
 429 391 429 391 397 377 c 1,34,35
 442 313 442 313 493 254 c 128,-1,36
 544 195 544 195 603 143 c 1,37,38
 624 173 624 173 638 207.5 c 128,-1,39
 652 242 652 242 658 278 c 0,40,41
 664 316 664 316 662 351 c 1,42,-1
 760 351 l 1,43,44
 730 221 730 221 630 117 c 1,45,46
 665 84 665 84 705 55 c 128,-1,47
 745 26 745 26 787 0 c 1,48,-1
 644 0 l 1,0,1
534 555 m 0,49,50
 543 604 543 604 517 636 c 128,-1,51
 491 668 491 668 442 668 c 0,52,53
 422 668 422 668 402.5 660 c 128,-1,54
 383 652 383 652 368.5 637 c 128,-1,55
 354 622 354 622 343.5 604 c 128,-1,56
 333 586 333 586 330 566 c 0,57,58
 319 512 319 512 339 473 c 128,-1,59
 359 434 359 434 385 396 c 1,60,61
 440 420 440 420 481.5 456 c 128,-1,62
 523 492 523 492 534 555 c 0,49,50
546 80 m 1,63,64
 481 138 481 138 426 204 c 128,-1,65
 371 270 371 270 317 339 c 1,66,67
 270 314 270 314 232.5 279.5 c 128,-1,68
 195 245 195 245 186 192 c 0,69,70
 178 155 178 155 189.5 120.5 c 128,-1,71
 201 86 201 86 224 59 c 128,-1,72
 247 32 247 32 280 16 c 128,-1,73
 313 0 313 0 350 0 c 0,74,75
 402 0 402 0 452.5 20 c 128,-1,76
 503 40 503 40 546 80 c 1,63,64
EndSplineSet
EndChar
StartChar: quotesingle
Encoding: 39 39 8
Width: 239
VWidth: 1533
Flags: W
HStem: 386 351<195 248 248 248>
VStem: 179 100<386 688 386 386>
Fore
279 688 m 0,0,1
 265 615 265 615 240 537.5 c 128,-1,2
 215 460 215 460 195 386 c 1,3,-1
 179 386 l 1,4,5
 184 460 184 460 187 538 c 128,-1,6
 190 616 190 616 202 690 c 0,7,8
 205 708 205 708 216 722.5 c 128,-1,9
 227 737 227 737 248 737 c 256,10,11
 270 737 270 737 276 721 c 128,-1,12
 282 705 282 705 279 688 c 0,0,1
EndSplineSet
EndChar
StartChar: parenleft
Encoding: 40 40 9
Width: 306
VWidth: 1533
Flags: W
HStem: 719 20G<301 370>
VStem: 85 62<3.84473 7.5 7.5 121.611>
Fore
182 -224 m 1,0,1
 152 -169 152 -169 130.5 -113 c 128,-1,2
 109 -57 109 -57 97.5 2 c 128,-1,3
 86 61 86 61 85 124 c 128,-1,4
 84 187 84 187 97 258 c 0,5,6
 121 397 121 397 186 513 c 128,-1,7
 251 629 251 629 351 739 c 1,8,-1
 370 739 l 1,9,10
 322 675 322 675 290 619 c 128,-1,11
 258 563 258 563 235 507.5 c 128,-1,12
 212 452 212 452 197 391.5 c 128,-1,13
 182 331 182 331 169 258 c 0,14,15
 156 184 156 184 150 123.5 c 128,-1,16
 144 63 144 63 147 7.5 c 128,-1,17
 150 -48 150 -48 162.5 -103.5 c 128,-1,18
 175 -159 175 -159 201 -224 c 1,19,-1
 182 -224 l 1,0,1
EndSplineSet
EndChar
StartChar: parenright
Encoding: 41 41 10
Width: 306
VWidth: 1533
Flags: W
HStem: 719 20G<181 228.5>
VStem: 12 273<-224 258 -224 -224>
Fore
285 258 m 0,0,1
 261 117 261 117 195.5 2.5 c 128,-1,2
 130 -112 130 -112 29 -224 c 1,3,-1
 12 -224 l 1,4,5
 60 -159 60 -159 93 -103.5 c 128,-1,6
 126 -48 126 -48 148 7.5 c 128,-1,7
 170 63 170 63 185.5 123.5 c 128,-1,8
 201 184 201 184 213 258 c 0,9,10
 227 331 227 331 233 391.5 c 128,-1,11
 239 452 239 452 236 507.5 c 128,-1,12
 233 563 233 563 219 619 c 128,-1,13
 205 675 205 675 181 739 c 1,14,-1
 198 739 l 1,15,16
 259 629 259 629 284.5 512.5 c 128,-1,17
 310 396 310 396 285 258 c 0,0,1
EndSplineSet
EndChar
StartChar: asterisk
Encoding: 42 42 11
Width: 512
VWidth: 1533
Flags: W
HStem: 333 383<337 397 337 337>
VStem: 156 387<538 538 538 538>
Fore
362 512 m 1,0,-1
 474 383 l 1,1,-1
 397 333 l 1,2,-1
 343 500 l 1,3,-1
 232 333 l 1,4,-1
 173 383 l 1,5,-1
 328 512 l 1,6,-1
 156 538 l 1,7,-1
 196 616 l 1,8,-1
 337 535 l 1,9,-1
 337 716 l 1,10,-1
 422 716 l 1,11,-1
 359 534 l 1,12,-1
 532 616 l 1,13,-1
 543 538 l 1,14,-1
 362 512 l 1,0,-1
EndSplineSet
EndChar
StartChar: plus
Encoding: 43 43 12
Width: 677
VWidth: 1533
Flags: W
HStem: 0 21G<311 369.511> 262 57<109 357 422 670>
Fore
412 262 m 1,0,-1
 366 0 l 1,1,-1
 311 0 l 1,2,-1
 357 262 l 1,3,-1
 100 262 l 1,4,-1
 109 319 l 1,5,-1
 366 319 l 1,6,-1
 412 581 l 1,7,-1
 468 581 l 1,8,-1
 422 319 l 1,9,-1
 679 319 l 1,10,-1
 670 262 l 1,11,-1
 412 262 l 1,0,-1
EndSplineSet
EndChar
StartChar: comma
Encoding: 44 44 13
Width: 367
VWidth: 1533
Flags: W
HStem: -135 230<130 196 196 196>
VStem: 126 115<-129 18 -129 -129>
Fore
241 18 m 0,0,1
 233 -26 233 -26 202.5 -69.5 c 128,-1,2
 172 -113 172 -113 130 -135 c 1,3,-1
 126 -129 l 1,4,5
 152 -109 152 -109 174 -78.5 c 128,-1,6
 196 -48 196 -48 199 -17 c 2,7,-1
 201 -3 l 1,8,9
 195 -5 195 -5 189.5 -6.5 c 128,-1,10
 184 -8 184 -8 178 -8 c 0,11,12
 156 -8 156 -8 144 6.5 c 128,-1,13
 132 21 132 21 135 43 c 0,14,15
 140 64 140 64 157.5 79.5 c 128,-1,16
 175 95 175 95 196 95 c 0,17,18
 230 95 230 95 237.5 69.5 c 128,-1,19
 245 44 245 44 241 18 c 0,0,1
EndSplineSet
EndChar
StartChar: hyphen
Encoding: 45 45 14
Width: 410
VWidth: 1533
Flags: W
HStem: 273 60<81 435 71 446 81 81>
Fore
435 273 m 1,0,-1
 71 273 l 1,1,-1
 81 333 l 1,2,-1
 446 333 l 1,3,-1
 435 273 l 1,0,-1
EndSplineSet
EndChar
StartChar: period
Encoding: 46 46 15
Width: 367
VWidth: 1533
Flags: W
HStem: -14 108<161.048 221.921>
VStem: 138 106<15.9401 80.7471>
Fore
244 41 m 0,0,1
 241 20 241 20 222.5 3 c 128,-1,2
 204 -14 204 -14 181 -14 c 0,3,4
 159 -14 159 -14 147 3 c 128,-1,5
 135 20 135 20 138 41 c 0,6,7
 143 63 143 63 160.5 78.5 c 128,-1,8
 178 94 178 94 199 94 c 256,9,10
 221 94 221 94 234.5 78.5 c 128,-1,11
 248 63 248 63 244 41 c 0,0,1
EndSplineSet
EndChar
StartChar: slash
Encoding: 47 47 16
Width: 317
VWidth: 1533
Flags: W
HStem: -23 21G<-15 46.1316> 717 20G<396.868 458>
VStem: -15 473<-23 737 -23 -23>
Fore
35 -23 m 1,0,-1
 -15 -23 l 1,1,-1
 408 737 l 1,2,-1
 458 737 l 1,3,-1
 35 -23 l 1,0,-1
EndSplineSet
EndChar
StartChar: zero
Encoding: 48 48 17
Width: 677
VWidth: 1533
Flags: W
HStem: -11 37<248.764 441.759> 672 36<356.605 548.717>
Fore
707 350 m 0,0,1
 695 282 695 282 662.5 217.5 c 128,-1,2
 630 153 630 153 582 102.5 c 128,-1,3
 534 52 534 52 471.5 20.5 c 128,-1,4
 409 -11 409 -11 336 -11 c 256,5,6
 262 -11 262 -11 210.5 20.5 c 128,-1,7
 159 52 159 52 129.5 102.5 c 128,-1,8
 100 153 100 153 90.5 217.5 c 128,-1,9
 81 282 81 282 94 350 c 0,10,11
 104 415 104 415 136.5 479.5 c 128,-1,12
 169 544 169 544 217 594.5 c 128,-1,13
 265 645 265 645 327 676.5 c 128,-1,14
 389 708 389 708 463 708 c 256,15,16
 537 708 537 708 588 676.5 c 128,-1,17
 639 645 639 645 669 594.5 c 128,-1,18
 699 544 699 544 708.5 479.5 c 128,-1,19
 718 415 718 415 707 350 c 0,0,1
622 350 m 0,20,21
 632 403 632 403 632.5 460.5 c 128,-1,22
 633 518 633 518 616 565 c 128,-1,23
 599 612 599 612 561.5 642 c 128,-1,24
 524 672 524 672 457 672 c 256,25,26
 389 672 389 672 341 642 c 128,-1,27
 293 612 293 612 259 565 c 128,-1,28
 225 518 225 518 206 460.5 c 128,-1,29
 187 403 187 403 178 350 c 0,30,31
 169 294 169 294 168 237.5 c 128,-1,32
 167 181 167 181 183 133.5 c 128,-1,33
 199 86 199 86 236.5 56 c 128,-1,34
 274 26 274 26 342 26 c 256,35,36
 409 26 409 26 457.5 56 c 128,-1,37
 506 86 506 86 539.5 133.5 c 128,-1,38
 573 181 573 181 593 237.5 c 128,-1,39
 613 294 613 294 622 350 c 0,20,21
EndSplineSet
EndChar
StartChar: one
Encoding: 49 49 18
Width: 677
VWidth: 1533
Flags: W
HStem: 0 21G<308 392.536> 560 33<241 311.998> 687 20G<459.5 514>
VStem: 235 279<560 707 560 560>
Fore
308 0 m 1,0,-1
 406 560 l 1,1,-1
 235 560 l 1,2,-1
 241 593 l 1,3,4
 281 593 281 593 313 596 c 128,-1,5
 345 599 345 599 372 610.5 c 128,-1,6
 399 622 399 622 423.5 644.5 c 128,-1,7
 448 667 448 667 471 707 c 1,8,-1
 514 707 l 1,9,-1
 389 0 l 1,10,-1
 308 0 l 1,0,-1
EndSplineSet
EndChar
StartChar: two
Encoding: 50 50 19
Width: 677
VWidth: 1533
Flags: W
HStem: 0 74<149 622> 670 32<368.481 505.652>
VStem: 112 81<497.816 563.086>
Fore
44 0 m 1,0,1
 66 67 66 67 113.5 113 c 128,-1,2
 161 159 161 159 221 193 c 128,-1,3
 281 227 281 227 345 255.5 c 128,-1,4
 409 284 409 284 465 315.5 c 128,-1,5
 521 347 521 347 561 387.5 c 128,-1,6
 601 428 601 428 612 488 c 0,7,8
 619 532 619 532 608.5 565.5 c 128,-1,9
 598 599 598 599 573.5 622 c 128,-1,10
 549 645 549 645 514.5 657.5 c 128,-1,11
 480 670 480 670 438 670 c 256,12,13
 397 670 397 670 356.5 657 c 128,-1,14
 316 644 316 644 282 620 c 128,-1,15
 248 596 248 596 224.5 561 c 128,-1,16
 201 526 201 526 193 483 c 1,17,-1
 112 483 l 1,18,19
 130 538 130 538 164 579.5 c 128,-1,20
 198 621 198 621 243 648 c 128,-1,21
 288 675 288 675 339.5 688.5 c 128,-1,22
 391 702 391 702 443 702 c 0,23,24
 494 702 494 702 542 690.5 c 128,-1,25
 590 679 590 679 627 653 c 128,-1,26
 664 627 664 627 683 585.5 c 128,-1,27
 702 544 702 544 691 486 c 0,28,29
 681 422 681 422 640 377.5 c 128,-1,30
 599 333 599 333 543.5 301.5 c 128,-1,31
 488 270 488 270 424 246 c 128,-1,32
 360 222 360 222 303.5 198.5 c 128,-1,33
 247 175 247 175 205 146 c 128,-1,34
 163 117 163 117 149 74 c 1,35,-1
 635 74 l 1,36,-1
 622 0 l 1,37,-1
 44 0 l 1,0,1
EndSplineSet
EndChar
StartChar: three
Encoding: 51 51 20
Width: 677
VWidth: 1533
Flags: W
HStem: -11 34<263.915 379.803> 353 32<361.688 433.042> 670 32<379.365 505.201>
VStem: 71 81<136.039 205> 167 81<528.17 601.15>
Fore
678 201 m 0,0,1
 667 141 667 141 628.5 100.5 c 128,-1,2
 590 60 590 60 539 35.5 c 128,-1,3
 488 11 488 11 431 0 c 128,-1,4
 374 -11 374 -11 325 -11 c 0,5,6
 273 -11 273 -11 226 2 c 128,-1,7
 179 15 179 15 144 42 c 128,-1,8
 109 69 109 69 89 109.5 c 128,-1,9
 69 150 69 150 71 205 c 1,10,-1
 152 205 l 1,11,12
 144 161 144 161 155.5 127.5 c 128,-1,13
 167 94 167 94 192.5 71 c 128,-1,14
 218 48 218 48 254 35.5 c 128,-1,15
 290 23 290 23 331 23 c 0,16,17
 371 23 371 23 414 33.5 c 128,-1,18
 457 44 457 44 495.5 66.5 c 128,-1,19
 534 89 534 89 561.5 122.5 c 128,-1,20
 589 156 589 156 596 202 c 0,21,22
 604 245 604 245 588.5 274.5 c 128,-1,23
 573 304 573 304 544 321.5 c 128,-1,24
 515 339 515 339 478.5 346 c 128,-1,25
 442 353 442 353 405 353 c 0,26,27
 383 353 383 353 361 350.5 c 128,-1,28
 339 348 339 348 316 345 c 1,29,-1
 324 389 l 1,30,31
 356 385 356 385 386 385 c 0,32,33
 420 385 420 385 457 392.5 c 128,-1,34
 494 400 494 400 527 417.5 c 128,-1,35
 560 435 560 435 584.5 463 c 128,-1,36
 609 491 609 491 616 530 c 0,37,38
 622 569 622 569 610 595.5 c 128,-1,39
 598 622 598 622 573.5 639 c 128,-1,40
 549 656 549 656 516.5 663 c 128,-1,41
 484 670 484 670 451 670 c 0,42,43
 374 670 374 670 320.5 628.5 c 128,-1,44
 267 587 267 587 248 509 c 1,45,-1
 167 509 l 1,46,47
 179 558 179 558 209 595 c 128,-1,48
 239 632 239 632 279 655.5 c 128,-1,49
 319 679 319 679 365 690.5 c 128,-1,50
 411 702 411 702 455 702 c 0,51,52
 497 702 497 702 543 694.5 c 128,-1,53
 589 687 589 687 626.5 668 c 128,-1,54
 664 649 664 649 685.5 616 c 128,-1,55
 707 583 707 583 698 530 c 0,56,57
 691 495 691 495 671.5 468.5 c 128,-1,58
 652 442 652 442 624 422.5 c 128,-1,59
 596 403 596 403 564 391 c 128,-1,60
 532 379 532 379 500 373 c 1,61,62
 537 370 537 370 572 358.5 c 128,-1,63
 607 347 607 347 633 326 c 128,-1,64
 659 305 659 305 672 274.5 c 128,-1,65
 685 244 685 244 678 201 c 0,0,1
EndSplineSet
EndChar
StartChar: four
Encoding: 52 52 21
Width: 677
VWidth: 1533
Flags: W
HStem: 0 21G<389 472.412> 170 51<118 419 507 636> 687 20G<562.757 593>
Fore
636 170 m 1,0,-1
 498 170 l 1,1,-1
 469 0 l 1,2,-1
 389 0 l 1,3,-1
 419 170 l 1,4,-1
 49 170 l 1,5,-1
 37 192 l 1,6,-1
 584 707 l 1,7,-1
 593 707 l 1,8,-1
 507 221 l 1,9,-1
 665 221 l 1,10,-1
 636 170 l 1,0,-1
489 572 m 1,11,-1
 118 221 l 1,12,-1
 428 221 l 1,13,-1
 489 572 l 1,11,-1
EndSplineSet
EndChar
StartChar: five
Encoding: 53 53 22
Width: 677
VWidth: 1533
Flags: W
HStem: -11 32<271.232 383.094> 399 38<345.798 469.817> 621 74<270 687>
VStem: 77 81<133.052 205>
Fore
679 205 m 0,0,1
 668 147 668 147 631.5 105.5 c 128,-1,2
 595 64 595 64 544.5 38 c 128,-1,3
 494 12 494 12 438 0.5 c 128,-1,4
 382 -11 382 -11 333 -11 c 0,5,6
 282 -11 282 -11 234.5 2 c 128,-1,7
 187 15 187 15 151 42 c 128,-1,8
 115 69 115 69 94.5 109.5 c 128,-1,9
 74 150 74 150 77 205 c 1,10,-1
 158 205 l 1,11,12
 150 161 150 161 161.5 126.5 c 128,-1,13
 173 92 173 92 198.5 69 c 128,-1,14
 224 46 224 46 260 33.5 c 128,-1,15
 296 21 296 21 337 21 c 0,16,17
 377 21 377 21 419 34.5 c 128,-1,18
 461 48 461 48 497.5 71.5 c 128,-1,19
 534 95 534 95 560 129.5 c 128,-1,20
 586 164 586 164 593 209 c 0,21,22
 603 258 603 258 589 294 c 128,-1,23
 575 330 575 330 545 353 c 128,-1,24
 515 376 515 376 474.5 387.5 c 128,-1,25
 434 399 434 399 391 399 c 0,26,27
 337 399 337 399 286 386.5 c 128,-1,28
 235 374 235 374 184 343 c 1,29,-1
 155 351 l 1,30,-1
 250 695 l 1,31,-1
 722 695 l 1,32,-1
 687 621 l 1,33,-1
 270 621 l 1,34,-1
 204 388 l 1,35,36
 248 415 248 415 306.5 426 c 128,-1,37
 365 437 365 437 412 437 c 0,38,39
 468 437 468 437 520.5 424.5 c 128,-1,40
 573 412 573 412 612.5 385.5 c 128,-1,41
 652 359 652 359 671 314.5 c 128,-1,42
 690 270 690 270 679 205 c 0,0,1
EndSplineSet
EndChar
StartChar: six
Encoding: 54 54 23
Width: 677
VWidth: 1533
Flags: W
HStem: -11 39<270.477 444.836> 440 43<372.707 507.534> 664 38<373.99 522.428>
VStem: 638 81<530 579.639>
Fore
684 245 m 0,0,1
 673 182 673 182 640 134.5 c 128,-1,2
 607 87 607 87 560.5 55 c 128,-1,3
 514 23 514 23 457 6 c 128,-1,4
 400 -11 400 -11 343 -11 c 0,5,6
 271 -11 271 -11 218.5 16.5 c 128,-1,7
 166 44 166 44 133.5 90 c 128,-1,8
 101 136 101 136 89.5 197.5 c 128,-1,9
 78 259 78 259 90 327 c 0,10,11
 104 402 104 402 136.5 470 c 128,-1,12
 169 538 169 538 218 590 c 128,-1,13
 267 642 267 642 333.5 672 c 128,-1,14
 400 702 400 702 481 702 c 0,15,16
 520 702 520 702 565 693 c 128,-1,17
 610 684 610 684 647 664 c 128,-1,18
 684 644 684 644 705.5 611 c 128,-1,19
 727 578 727 578 719 530 c 1,20,-1
 638 530 l 1,21,22
 644 564 644 564 630 589.5 c 128,-1,23
 616 615 616 615 591 632 c 128,-1,24
 566 649 566 649 534.5 656.5 c 128,-1,25
 503 664 503 664 474 664 c 0,26,27
 415 664 415 664 366 638.5 c 128,-1,28
 317 613 317 613 280.5 571.5 c 128,-1,29
 244 530 244 530 219.5 478 c 128,-1,30
 195 426 195 426 186 374 c 2,31,32
 182 365 182 365 182 356 c 128,-1,33
 182 347 182 347 181 337 c 1,34,35
 201 374 201 374 231.5 401 c 128,-1,36
 262 428 262 428 297.5 446.5 c 128,-1,37
 333 465 333 465 372 474 c 128,-1,38
 411 483 411 483 448 483 c 0,39,40
 501 483 501 483 548.5 467.5 c 128,-1,41
 596 452 596 452 630 422 c 128,-1,42
 664 392 664 392 679.5 348 c 128,-1,43
 695 304 695 304 684 245 c 0,0,1
593 235 m 0,44,45
 601 278 601 278 592 315.5 c 128,-1,46
 583 353 583 353 560 380.5 c 128,-1,47
 537 408 537 408 502.5 424 c 128,-1,48
 468 440 468 440 425 440 c 256,49,50
 382 440 382 440 342 424 c 128,-1,51
 302 408 302 408 268.5 380.5 c 128,-1,52
 235 353 235 353 212 315.5 c 128,-1,53
 189 278 189 278 181 235 c 256,54,55
 173 192 173 192 183 154.5 c 128,-1,56
 193 117 193 117 217 88.5 c 128,-1,57
 241 60 241 60 275.5 44 c 128,-1,58
 310 28 310 28 353 28 c 0,59,60
 397 28 397 28 437.5 43 c 128,-1,61
 478 58 478 58 510.5 85.5 c 128,-1,62
 543 113 543 113 564.5 151.5 c 128,-1,63
 586 190 586 190 593 235 c 0,44,45
EndSplineSet
EndChar
StartChar: seven
Encoding: 55 55 24
Width: 677
VWidth: 1533
Flags: W
HStem: 0 21G<195 291.5> 621 74<192 665>
VStem: 195 89<13.8807 141.482>
Fore
765 695 m 1,0,1
 757 652 757 652 723.5 610.5 c 128,-1,2
 690 569 690 569 641.5 523 c 128,-1,3
 593 477 593 477 537 425.5 c 128,-1,4
 481 374 481 374 430.5 311 c 128,-1,5
 380 248 380 248 339.5 171.5 c 128,-1,6
 299 95 299 95 284 0 c 1,7,-1
 195 0 l 1,8,9
 210 86 210 86 249 156.5 c 128,-1,10
 288 227 288 227 338 286 c 128,-1,11
 388 345 388 345 444 392.5 c 128,-1,12
 500 440 500 440 546.5 480 c 128,-1,13
 593 520 593 520 626 554.5 c 128,-1,14
 659 589 659 589 665 621 c 1,15,-1
 156 621 l 1,16,-1
 192 695 l 1,17,-1
 765 695 l 1,0,1
EndSplineSet
EndChar
StartChar: eight
Encoding: 56 56 25
Width: 677
VWidth: 1533
Flags: W
HStem: -11 39<288.003 387.036> 676 34<416.751 491.29 485.141 497.439 497.439 521.5 548 568.268>
Fore
688 205 m 0,0,1
 678 146 678 146 639.5 104.5 c 128,-1,2
 601 63 601 63 549.5 37.5 c 128,-1,3
 498 12 498 12 440 0.5 c 128,-1,4
 382 -11 382 -11 333 -11 c 0,5,6
 285 -11 285 -11 232 -1.5 c 128,-1,7
 179 8 179 8 137 31 c 128,-1,8
 95 54 95 54 71.5 93 c 128,-1,9
 48 132 48 132 58 192 c 0,10,11
 64 232 64 232 88 264 c 128,-1,12
 112 296 112 296 145 319 c 128,-1,13
 178 342 178 342 216.5 356.5 c 128,-1,14
 255 371 255 371 291 377 c 1,15,16
 265 386 265 386 240.5 400.5 c 128,-1,17
 216 415 216 415 197.5 435 c 128,-1,18
 179 455 179 455 171 481 c 128,-1,19
 163 507 163 507 169 541 c 0,20,21
 178 589 178 589 211.5 622 c 128,-1,22
 245 655 245 655 290.5 674 c 128,-1,23
 336 693 336 693 384 701.5 c 128,-1,24
 432 710 432 710 471 710 c 0,25,26
 504 710 504 710 548 703 c 128,-1,27
 592 696 592 696 629.5 678.5 c 128,-1,28
 667 661 667 661 690 632 c 128,-1,29
 713 603 713 603 705 558 c 0,30,31
 699 524 699 524 674.5 497.5 c 128,-1,32
 650 471 650 471 618 450 c 128,-1,33
 586 429 586 429 550.5 417 c 128,-1,34
 515 405 515 405 486 400 c 1,35,36
 521 391 521 391 560 376.5 c 128,-1,37
 599 362 599 362 630 339.5 c 128,-1,38
 661 317 661 317 678.5 284 c 128,-1,39
 696 251 696 251 688 205 c 0,0,1
624 553 m 0,40,41
 630 587 630 587 616.5 611 c 128,-1,42
 603 635 603 635 577.5 649.5 c 128,-1,43
 552 664 552 664 521.5 670 c 128,-1,44
 491 676 491 676 463 676 c 0,45,46
 437 676 437 676 402.5 670.5 c 128,-1,47
 368 665 368 665 336 651.5 c 128,-1,48
 304 638 304 638 279.5 615.5 c 128,-1,49
 255 593 255 593 248 560 c 0,50,51
 242 524 242 524 263 500.5 c 128,-1,52
 284 477 284 477 316 461.5 c 128,-1,53
 348 446 348 446 384 437 c 128,-1,54
 420 428 420 428 445 422 c 1,55,56
 469 428 469 428 498 438.5 c 128,-1,57
 527 449 527 449 553.5 464.5 c 128,-1,58
 580 480 580 480 599.5 501.5 c 128,-1,59
 619 523 619 523 624 553 c 0,40,41
606 199 m 0,60,61
 612 228 612 228 582 257.5 c 128,-1,62
 552 287 552 287 510 308.5 c 128,-1,63
 468 330 468 330 422.5 343.5 c 128,-1,64
 377 357 377 357 353 357 c 0,65,66
 324 357 324 357 291 345 c 128,-1,67
 258 333 258 333 228 312 c 128,-1,68
 198 291 198 291 176.5 263.5 c 128,-1,69
 155 236 155 236 150 205 c 0,70,71
 143 163 143 163 157.5 130 c 128,-1,72
 172 97 172 97 199.5 74 c 128,-1,73
 227 51 227 51 264.5 39.5 c 128,-1,74
 302 28 302 28 340 28 c 0,75,76
 377 28 377 28 420 38 c 128,-1,77
 463 48 463 48 502 69 c 128,-1,78
 541 90 541 90 569.5 122.5 c 128,-1,79
 598 155 598 155 606 199 c 0,60,61
EndSplineSet
EndChar
StartChar: nine
Encoding: 57 57 26
Width: 677
VWidth: 1533
Flags: W
HStem: -11 39<276.743 425.393> 209 42<290.81 424.947> 664 38<354.645 528.557>
VStem: 80 81<110.919 163>
Fore
707 365 m 0,0,1
 693 288 693 288 661 220.5 c 128,-1,2
 629 153 629 153 579.5 101 c 128,-1,3
 530 49 530 49 463.5 19 c 128,-1,4
 397 -11 397 -11 316 -11 c 0,5,6
 278 -11 278 -11 233.5 -1.5 c 128,-1,7
 189 8 189 8 152 28.5 c 128,-1,8
 115 49 115 49 93.5 82 c 128,-1,9
 72 115 72 115 80 163 c 1,10,-1
 161 163 l 1,11,12
 155 127 155 127 168.5 102 c 128,-1,13
 182 77 182 77 207.5 60 c 128,-1,14
 233 43 233 43 264.5 35.5 c 128,-1,15
 296 28 296 28 325 28 c 0,16,17
 383 28 383 28 432 53 c 128,-1,18
 481 78 481 78 518 119.5 c 128,-1,19
 555 161 555 161 579.5 213 c 128,-1,20
 604 265 604 265 613 319 c 2,21,22
 616 328 616 328 616 336.5 c 128,-1,23
 616 345 616 345 616 354 c 1,24,25
 595 317 595 317 565 290.5 c 128,-1,26
 535 264 535 264 500 245.5 c 128,-1,27
 465 227 465 227 425.5 218 c 128,-1,28
 386 209 386 209 350 209 c 0,29,30
 296 209 296 209 248.5 224 c 128,-1,31
 201 239 201 239 168 269 c 128,-1,32
 135 299 135 299 119.5 343.5 c 128,-1,33
 104 388 104 388 115 446 c 0,34,35
 126 509 126 509 159 556.5 c 128,-1,36
 192 604 192 604 238 636 c 128,-1,37
 284 668 284 668 340 685 c 128,-1,38
 396 702 396 702 454 702 c 0,39,40
 526 702 526 702 579 675.5 c 128,-1,41
 632 649 632 649 664 603 c 128,-1,42
 696 557 696 557 707.5 495.5 c 128,-1,43
 719 434 719 434 707 365 c 0,0,1
616 458 m 0,44,45
 624 500 624 500 614 537.5 c 128,-1,46
 604 575 604 575 581 603.5 c 128,-1,47
 558 632 558 632 523.5 648 c 128,-1,48
 489 664 489 664 446 664 c 0,49,50
 402 664 402 664 361 648.5 c 128,-1,51
 320 633 320 633 288 605.5 c 128,-1,52
 256 578 256 578 234 540.5 c 128,-1,53
 212 503 212 503 204 458 c 0,54,55
 196 415 196 415 205.5 377.5 c 128,-1,56
 215 340 215 340 238 312 c 128,-1,57
 261 284 261 284 295.5 267.5 c 128,-1,58
 330 251 330 251 373 251 c 256,59,60
 415 251 415 251 456 267.5 c 128,-1,61
 497 284 497 284 530 312 c 128,-1,62
 563 340 563 340 586 377.5 c 128,-1,63
 609 415 609 415 616 458 c 0,44,45
EndSplineSet
EndChar
StartChar: colon
Encoding: 58 58 27
Width: 367
VWidth: 1533
Flags: W
HStem: -14 108<161.048 221.921> 405 107<234.048 294.406>
VStem: 138 179<41 458 16.6894 81.0853>
Fore
317 458 m 0,0,1
 314 437 314 437 295 421 c 128,-1,2
 276 405 276 405 255 405 c 256,3,4
 233 405 233 405 221 421 c 128,-1,5
 209 437 209 437 212 458 c 0,6,7
 216 480 216 480 233.5 496 c 128,-1,8
 251 512 251 512 273 512 c 256,9,10
 294 512 294 512 308 496 c 128,-1,11
 322 480 322 480 317 458 c 0,0,1
244 41 m 0,12,13
 241 20 241 20 222.5 3 c 128,-1,14
 204 -14 204 -14 181 -14 c 0,15,16
 159 -14 159 -14 147 3 c 128,-1,17
 135 20 135 20 138 41 c 0,18,19
 143 63 143 63 160.5 78.5 c 128,-1,20
 178 94 178 94 199 94 c 256,21,22
 221 94 221 94 234.5 78.5 c 128,-1,23
 248 63 248 63 244 41 c 0,12,13
EndSplineSet
EndChar
StartChar: semicolon
Encoding: 59 59 28
Width: 367
VWidth: 1533
Flags: W
HStem: -23 20G<167 181 198 199> 405 107<234.048 294.406>
VStem: 212 105<433.689 498.085>
Fore
317 458 m 0,0,1
 314 437 314 437 295 421 c 128,-1,2
 276 405 276 405 255 405 c 256,3,4
 233 405 233 405 221 421 c 128,-1,5
 209 437 209 437 212 458 c 0,6,7
 216 480 216 480 233.5 496 c 128,-1,8
 251 512 251 512 273 512 c 256,9,10
 294 512 294 512 308 496 c 128,-1,11
 322 480 322 480 317 458 c 0,0,1
241 18 m 0,12,13
 233 -26 233 -26 202.5 -69.5 c 128,-1,14
 172 -113 172 -113 130 -135 c 1,15,-1
 126 -129 l 1,16,17
 152 -109 152 -109 174 -78.5 c 128,-1,18
 196 -48 196 -48 199 -17 c 2,19,-1
 201 -3 l 1,20,21
 195 -5 195 -5 189.5 -6.5 c 128,-1,22
 184 -8 184 -8 178 -8 c 0,23,24
 156 -8 156 -8 144 6.5 c 128,-1,25
 132 21 132 21 135 43 c 0,26,27
 140 64 140 64 157.5 79.5 c 128,-1,28
 175 95 175 95 196 95 c 0,29,30
 230 95 230 95 237.5 69.5 c 128,-1,31
 245 44 245 44 241 18 c 0,12,13
EndSplineSet
EndChar
StartChar: less
Encoding: 60 60 29
Width: 677
VWidth: 1533
Flags: W
Fore
106 262 m 1,0,-1
 115 320 l 1,1,-1
 719 581 l 1,2,-1
 708 520 l 1,3,-1
 175 291 l 1,4,-1
 629 63 l 1,5,-1
 618 2 l 1,6,-1
 106 262 l 1,0,-1
EndSplineSet
EndChar
StartChar: equal
Encoding: 61 61 30
Width: 677
VWidth: 1533
Flags: W
HStem: 153 57<90 650> 380 57<130 690>
Fore
120 380 m 1,0,-1
 130 437 l 1,1,-1
 701 437 l 1,2,-1
 690 380 l 1,3,-1
 120 380 l 1,0,-1
80 153 m 1,4,-1
 90 210 l 1,5,-1
 661 210 l 1,6,-1
 650 153 l 1,7,-1
 80 153 l 1,4,-1
EndSplineSet
EndChar
StartChar: greater
Encoding: 62 62 31
Width: 677
VWidth: 1533
Flags: W
Fore
60 2 m 1,0,-1
 71 63 l 1,1,-1
 604 291 l 1,2,-1
 150 520 l 1,3,-1
 161 581 l 1,4,-1
 673 320 l 1,5,-1
 664 262 l 1,6,-1
 60 2 l 1,0,-1
EndSplineSet
EndChar
StartChar: question
Encoding: 63 63 32
Width: 565
VWidth: 1533
Flags: W
HStem: -14 104<233.048 291.921> 707 30<316.356 464.472>
VStem: 130 82<522.126 571.38>
Fore
604 537 m 0,0,1
 596 495 596 495 572.5 465 c 128,-1,2
 549 435 549 435 516.5 410 c 128,-1,3
 484 385 484 385 448 360.5 c 128,-1,4
 412 336 412 336 379.5 304.5 c 128,-1,5
 347 273 347 273 321.5 231 c 128,-1,6
 296 189 296 189 287 129 c 1,7,-1
 268 129 l 1,8,9
 270 146 270 146 271.5 161 c 128,-1,10
 273 176 273 176 276 192 c 0,11,12
 290 270 290 270 323.5 316 c 128,-1,13
 357 362 357 362 394 395.5 c 128,-1,14
 431 429 431 429 462.5 460.5 c 128,-1,15
 494 492 494 492 503 540 c 0,16,17
 509 575 509 575 507.5 605.5 c 128,-1,18
 506 636 506 636 494.5 658.5 c 128,-1,19
 483 681 483 681 458.5 694 c 128,-1,20
 434 707 434 707 396 707 c 0,21,22
 351 707 351 707 319.5 690 c 128,-1,23
 288 673 288 673 266 645.5 c 128,-1,24
 244 618 244 618 231 582 c 128,-1,25
 218 546 218 546 212 509 c 1,26,-1
 130 509 l 1,27,28
 140 561 140 561 164.5 604 c 128,-1,29
 189 647 189 647 224 676 c 128,-1,30
 259 705 259 705 305 721 c 128,-1,31
 351 737 351 737 403 737 c 0,32,33
 449 737 449 737 489 725 c 128,-1,34
 529 713 529 713 558 687.5 c 128,-1,35
 587 662 587 662 600 624.5 c 128,-1,36
 613 587 613 587 604 537 c 0,0,1
314 38 m 256,37,38
 311 17 311 17 292.5 1.5 c 128,-1,39
 274 -14 274 -14 253 -14 c 256,40,41
 232 -14 232 -14 220.5 1.5 c 128,-1,42
 209 17 209 17 212 38 c 256,43,44
 215 60 215 60 232.5 75 c 128,-1,45
 250 90 250 90 271 90 c 256,46,47
 293 90 293 90 305 75 c 128,-1,48
 317 60 317 60 314 38 c 256,37,38
EndSplineSet
EndChar
StartChar: at
Encoding: 64 64 33
Width: 898
VWidth: 1533
Flags: W
HStem: -21 39<360.542 573.446> 152 35<670 734.769> 153 45<405.867 500.201> 511 39<530.17 628.615> 711 26<473.634 711.736>
Fore
905 414 m 0,0,1
 897 373 897 373 874 326 c 128,-1,2
 851 279 851 279 817 240.5 c 128,-1,3
 783 202 783 202 741 177 c 128,-1,4
 699 152 699 152 652 152 c 0,5,6
 573 152 573 152 570 232 c 1,7,8
 534 195 534 195 500 174 c 128,-1,9
 466 153 466 153 417 153 c 0,10,11
 389 153 389 153 372.5 165.5 c 128,-1,12
 356 178 356 178 348 197 c 128,-1,13
 340 216 340 216 338.5 240 c 128,-1,14
 337 264 337 264 342 287 c 0,15,16
 350 330 350 330 372 376 c 128,-1,17
 394 422 394 422 427.5 461 c 128,-1,18
 461 500 461 500 503.5 525 c 128,-1,19
 546 550 546 550 595 550 c 0,20,21
 622 550 622 550 643.5 535.5 c 128,-1,22
 665 521 665 521 676 497 c 1,23,-1
 714 538 l 1,24,-1
 770 538 l 1,25,26
 757 511 757 511 738 470 c 128,-1,27
 719 429 719 429 699 387 c 128,-1,28
 679 345 679 345 664 305 c 128,-1,29
 649 265 649 265 644 239 c 0,30,31
 642 233 642 233 642 230 c 0,32,-1
 642 215 l 1,33,-1
 650 195 l 1,34,-1
 670 187 l 1,35,36
 708 187 708 187 741 210 c 128,-1,37
 774 233 774 233 800 267.5 c 128,-1,38
 826 302 826 302 843 340.5 c 128,-1,39
 860 379 860 379 866 411 c 0,40,41
 877 477 877 477 861 532 c 128,-1,42
 845 587 845 587 806.5 627 c 128,-1,43
 768 667 768 667 713.5 689 c 128,-1,44
 659 711 659 711 595 711 c 0,45,46
 518 711 518 711 453.5 680.5 c 128,-1,47
 389 650 389 650 339.5 598.5 c 128,-1,48
 290 547 290 547 257 481 c 128,-1,49
 224 415 224 415 212 345 c 0,50,51
 199 273 199 273 213 213 c 128,-1,52
 227 153 227 153 263 109.5 c 128,-1,53
 299 66 299 66 355 42 c 128,-1,54
 411 18 411 18 483 18 c 0,55,56
 540 18 540 18 597.5 29 c 128,-1,57
 655 40 655 40 708 67 c 1,58,-1
 721 41 l 1,59,60
 662 11 662 11 601.5 -5 c 128,-1,61
 541 -21 541 -21 480 -21 c 0,62,63
 400 -21 400 -21 329.5 3.5 c 128,-1,64
 259 28 259 28 208.5 74.5 c 128,-1,65
 158 121 158 121 134 188.5 c 128,-1,66
 110 256 110 256 126 342 c 0,67,68
 141 426 141 426 185.5 499 c 128,-1,69
 230 572 230 572 293.5 625 c 128,-1,70
 357 678 357 678 436 707.5 c 128,-1,71
 515 737 515 737 599 737 c 0,72,73
 672 737 672 737 733 715 c 128,-1,74
 794 693 794 693 837 651.5 c 128,-1,75
 880 610 880 610 899 549.5 c 128,-1,76
 918 489 918 489 905 414 c 0,0,1
647 428 m 0,77,78
 649 440 649 440 648 454.5 c 128,-1,79
 647 469 647 469 641.5 481.5 c 128,-1,80
 636 494 636 494 627 502.5 c 128,-1,81
 618 511 618 511 604 511 c 0,82,83
 563 511 563 511 530 489.5 c 128,-1,84
 497 468 497 468 474 435 c 128,-1,85
 451 402 451 402 437 363 c 128,-1,86
 423 324 423 324 417 290 c 0,87,88
 411 255 411 255 420 226.5 c 128,-1,89
 429 198 429 198 469 198 c 0,90,91
 501 198 501 198 531 224 c 128,-1,92
 561 250 561 250 585.5 287 c 128,-1,93
 610 324 610 324 626 363 c 128,-1,94
 642 402 642 402 647 428 c 0,77,78
EndSplineSet
EndChar
StartChar: A
Encoding: 65 65 34
Width: 803
VWidth: 1533
Flags: W
HStem: 0 21G<0 63.153 699.951 803> 366 37<336 567> 719 20G<519.548 556.847>
Fore
707 0 m 1,0,-1
 578 366 l 1,1,-1
 308 366 l 1,2,-1
 49 0 l 1,3,-1
 0 0 l 1,4,-1
 534 739 l 1,5,-1
 550 739 l 1,6,-1
 803 0 l 1,7,-1
 707 0 l 1,0,-1
495 627 m 1,8,-1
 336 403 l 1,9,-1
 567 403 l 1,10,-1
 495 627 l 1,8,-1
EndSplineSet
EndChar
StartChar: B
Encoding: 66 66 35
Width: 820
VWidth: 1533
Flags: W
HStem: 0 37<166 500.656> 365 38<230 514.268> 678 38<278 536.908 536.908 586.743 586.743 647 647 651.42>
Fore
816 196 m 0,0,1
 803 130 803 130 758.5 92 c 128,-1,2
 714 54 714 54 654.5 33 c 128,-1,3
 595 12 595 12 531.5 6 c 128,-1,4
 468 0 468 0 419 0 c 2,5,-1
 77 0 l 1,6,-1
 202 716 l 1,7,-1
 560 716 l 2,8,9
 599 716 599 716 647 710 c 128,-1,10
 695 704 695 704 734 686 c 128,-1,11
 773 668 773 668 796 636 c 128,-1,12
 819 604 819 604 810 552 c 0,13,14
 802 511 802 511 773 480 c 128,-1,15
 744 449 744 449 704.5 429 c 128,-1,16
 665 409 665 409 622.5 398.5 c 128,-1,17
 580 388 580 388 546 386 c 1,18,19
 589 383 589 383 640 374 c 128,-1,20
 691 365 691 365 734 344.5 c 128,-1,21
 777 324 777 324 801.5 288.5 c 128,-1,22
 826 253 826 253 816 196 c 0,0,1
719 544 m 0,23,24
 728 592 728 592 707.5 618.5 c 128,-1,25
 687 645 687 645 652.5 658.5 c 128,-1,26
 618 672 618 672 576 675 c 128,-1,27
 534 678 534 678 498 678 c 2,28,-1
 278 678 l 1,29,-1
 230 403 l 1,30,-1
 455 403 l 2,31,32
 489 403 489 403 531 408.5 c 128,-1,33
 573 414 573 414 612.5 430 c 128,-1,34
 652 446 652 446 681.5 473 c 128,-1,35
 711 500 711 500 719 544 c 0,23,24
718 190 m 0,36,37
 728 250 728 250 704.5 284.5 c 128,-1,38
 681 319 681 319 638.5 337.5 c 128,-1,39
 596 356 596 356 545 360.5 c 128,-1,40
 494 365 494 365 448 365 c 2,41,-1
 222 365 l 1,42,-1
 166 37 l 1,43,-1
 472 37 l 2,44,45
 507 37 507 37 547 44.5 c 128,-1,46
 587 52 587 52 622.5 70.5 c 128,-1,47
 658 89 658 89 684 118 c 128,-1,48
 710 147 710 147 718 190 c 0,36,37
EndSplineSet
EndChar
StartChar: C
Encoding: 67 67 36
Width: 861
VWidth: 1533
Flags: W
HStem: -23 34<350.207 577.483> 704 35<459.395 692.054>
VStem: 806 106<509 586.267>
Fore
859 205 m 1,0,1
 794 90 794 90 687 33.5 c 128,-1,2
 580 -23 580 -23 458 -23 c 0,3,4
 379 -23 379 -23 307 3 c 128,-1,5
 235 29 235 29 184 78 c 128,-1,6
 133 127 133 127 108.5 196 c 128,-1,7
 84 265 84 265 100 351 c 0,8,9
 115 442 115 442 162.5 514 c 128,-1,10
 210 586 210 586 277.5 635.5 c 128,-1,11
 345 685 345 685 426 712 c 128,-1,12
 507 739 507 739 593 739 c 0,13,14
 713 739 713 739 800.5 681.5 c 128,-1,15
 888 624 888 624 912 509 c 1,16,-1
 806 509 l 1,17,18
 796 598 796 598 738.5 651 c 128,-1,19
 681 704 681 704 586 704 c 0,20,21
 512 704 512 704 447.5 678 c 128,-1,22
 383 652 383 652 332 606 c 128,-1,23
 281 560 281 560 246.5 497.5 c 128,-1,24
 212 435 212 435 199 363 c 0,25,26
 187 293 187 293 199.5 228.5 c 128,-1,27
 212 164 212 164 246.5 115.5 c 128,-1,28
 281 67 281 67 336 39 c 128,-1,29
 391 11 391 11 465 11 c 0,30,31
 560 11 560 11 635.5 64 c 128,-1,32
 711 117 711 117 753 205 c 1,33,-1
 859 205 l 1,0,1
EndSplineSet
EndChar
StartChar: D
Encoding: 68 68 37
Width: 853
VWidth: 1533
Flags: W
HStem: 0 37<166 517.292> 678 38<278 608.482>
Fore
882 380 m 0,0,1
 862 267 862 267 811 194 c 128,-1,2
 760 121 760 121 687.5 77.5 c 128,-1,3
 615 34 615 34 525 17 c 128,-1,4
 435 0 435 0 337 0 c 2,5,-1
 77 0 l 1,6,-1
 202 716 l 1,7,-1
 457 716 l 2,8,9
 541 716 541 716 624.5 702 c 128,-1,10
 708 688 708 688 771 650.5 c 128,-1,11
 834 613 834 613 867 548 c 128,-1,12
 900 483 900 483 882 380 c 0,0,1
780 380 m 0,13,14
 796 466 796 466 778 523 c 128,-1,15
 760 580 760 580 717.5 614.5 c 128,-1,16
 675 649 675 649 610.5 663.5 c 128,-1,17
 546 678 546 678 471 678 c 2,18,-1
 278 678 l 1,19,-1
 166 37 l 1,20,-1
 359 37 l 2,21,22
 449 37 449 37 519.5 55.5 c 128,-1,23
 590 74 590 74 643 114.5 c 128,-1,24
 696 155 696 155 730 220 c 128,-1,25
 764 285 764 285 780 380 c 0,13,14
EndSplineSet
EndChar
StartChar: E
Encoding: 69 69 38
Width: 691
VWidth: 1533
Flags: W
HStem: 0 37<166 676> 366 37<230 630> 678 38<278 794>
Fore
77 0 m 1,0,-1
 202 716 l 1,1,-1
 802 716 l 1,2,-1
 794 678 l 1,3,-1
 278 678 l 1,4,-1
 230 403 l 1,5,-1
 636 403 l 1,6,-1
 630 366 l 1,7,-1
 224 366 l 1,8,-1
 166 37 l 1,9,-1
 682 37 l 1,10,-1
 676 0 l 1,11,-1
 77 0 l 1,0,-1
EndSplineSet
EndChar
StartChar: F
Encoding: 70 70 39
Width: 691
VWidth: 1533
Flags: W
HStem: 0 21G<77 162.552> 366 37<230 630> 678 38<278 794>
Fore
278 678 m 1,0,-1
 230 403 l 1,1,-1
 636 403 l 1,2,-1
 630 366 l 1,3,-1
 224 366 l 1,4,-1
 159 0 l 1,5,-1
 77 0 l 1,6,-1
 202 716 l 1,7,-1
 802 716 l 1,8,-1
 794 678 l 1,9,-1
 278 678 l 1,0,-1
EndSplineSet
EndChar
StartChar: G
Encoding: 71 71 40
Width: 861
VWidth: 1533
Flags: W
HStem: -23 35<343.027 543.384> 328 38<529 777> 704 35<457.158 688.01>
VStem: 806 106<509 581.974>
Fore
806 509 m 1,0,1
 800 604 800 604 736 654 c 128,-1,2
 672 704 672 704 578 704 c 0,3,4
 506 704 506 704 443 677 c 128,-1,5
 380 650 380 650 331 604 c 128,-1,6
 282 558 282 558 249 496.5 c 128,-1,7
 216 435 216 435 204 366 c 256,8,9
 192 297 192 297 201 233.5 c 128,-1,10
 210 170 210 170 241.5 121 c 128,-1,11
 273 72 273 72 326 42 c 128,-1,12
 379 12 379 12 452 12 c 0,13,14
 486 12 486 12 525 19 c 128,-1,15
 564 26 564 26 602.5 39 c 128,-1,16
 641 52 641 52 676 72 c 128,-1,17
 711 92 711 92 741 118 c 1,18,-1
 777 328 l 1,19,-1
 521 328 l 1,20,-1
 529 366 l 1,21,-1
 866 366 l 1,22,-1
 819 101 l 1,23,24
 741 32 741 32 640.5 4.5 c 128,-1,25
 540 -23 540 -23 446 -23 c 0,26,27
 368 -23 368 -23 299 4.5 c 128,-1,28
 230 32 230 32 181 82 c 128,-1,29
 132 132 132 132 109 200 c 128,-1,30
 86 268 86 268 100 351 c 0,31,32
 115 438 115 438 161 509.5 c 128,-1,33
 207 581 207 581 273 632.5 c 128,-1,34
 339 684 339 684 419.5 711.5 c 128,-1,35
 500 739 500 739 584 739 c 0,36,37
 711 739 711 739 798.5 685.5 c 128,-1,38
 886 632 886 632 912 509 c 1,39,-1
 806 509 l 1,0,1
EndSplineSet
EndChar
StartChar: H
Encoding: 72 72 41
Width: 838
VWidth: 1533
Flags: W
HStem: 0 21G<77 162.552 681 765.52> 366 37<230 745> 696 20G<198.508 285 802.486 888>
Fore
681 0 m 1,0,-1
 745 366 l 1,1,-1
 224 366 l 1,2,-1
 159 0 l 1,3,-1
 77 0 l 1,4,-1
 202 716 l 1,5,-1
 285 716 l 1,6,-1
 230 403 l 1,7,-1
 751 403 l 1,8,-1
 806 716 l 1,9,-1
 888 716 l 1,10,-1
 762 0 l 1,11,-1
 681 0 l 1,0,-1
EndSplineSet
EndChar
StartChar: I
Encoding: 73 73 42
Width: 236
VWidth: 1533
Flags: W
HStem: 0 21G<77 162.52> 696 20G<198.508 285>
VStem: 77 208<0 716 1.53064e-18 1.53064e-18>
Fore
77 0 m 1,0,-1
 202 716 l 1,1,-1
 285 716 l 1,2,-1
 159 0 l 1,3,-1
 77 0 l 1,0,-1
EndSplineSet
EndChar
StartChar: J
Encoding: 74 74 43
Width: 532
VWidth: 1533
Flags: W
HStem: -31 34<161.989 299.006> 696 20G<493.441 581>
VStem: 17 89<83.6333 136>
Fore
494 218 m 1,0,1
 484 167 484 167 461 122 c 128,-1,2
 438 77 438 77 403 43 c 128,-1,3
 368 9 368 9 322 -11 c 128,-1,4
 276 -31 276 -31 222 -31 c 0,5,6
 184 -31 184 -31 145.5 -21 c 128,-1,7
 107 -11 107 -11 77.5 9 c 128,-1,8
 48 29 48 29 30 60.5 c 128,-1,9
 12 92 12 92 17 136 c 1,10,-1
 106 136 l 1,11,12
 98 75 98 75 130.5 39 c 128,-1,13
 163 3 163 3 224 3 c 0,14,15
 265 3 265 3 296 20.5 c 128,-1,16
 327 38 327 38 349 66 c 128,-1,17
 371 94 371 94 385 129 c 128,-1,18
 399 164 399 164 405 199 c 2,19,-1
 497 716 l 1,20,-1
 581 716 l 1,21,-1
 494 218 l 1,0,1
EndSplineSet
EndChar
StartChar: K
Encoding: 75 75 44
Width: 751
VWidth: 1533
Flags: W
HStem: 0 21G<77 162.484 626.022 736> 696 20G<198.508 285 682.229 782>
Fore
636 0 m 1,0,-1
 411 451 l 1,1,-1
 213 310 l 1,2,-1
 159 0 l 1,3,-1
 77 0 l 1,4,-1
 202 716 l 1,5,-1
 285 716 l 1,6,-1
 224 366 l 1,7,-1
 710 716 l 1,8,-1
 782 716 l 1,9,-1
 481 501 l 1,10,-1
 736 0 l 1,11,-1
 636 0 l 1,0,-1
EndSplineSet
EndChar
StartChar: L
Encoding: 76 76 45
Width: 611
VWidth: 1533
Flags: W
HStem: 0 37<166 604> 696 20G<198.508 285>
Fore
77 0 m 1,0,-1
 202 716 l 1,1,-1
 285 716 l 1,2,-1
 166 37 l 1,3,-1
 610 37 l 1,4,-1
 604 0 l 1,5,-1
 77 0 l 1,0,-1
EndSplineSet
EndChar
StartChar: M
Encoding: 77 77 46
Width: 944
VWidth: 1533
Flags: W
HStem: 0 21G<77 127.496 430.775 462.483 785 871.52> 696 20G<198.508 314.144 883.477 994>
Fore
785 0 m 1,0,-1
 900 655 l 1,1,-1
 449 -14 l 1,2,-1
 437 -14 l 1,3,-1
 235 635 l 1,4,-1
 124 0 l 1,5,-1
 77 0 l 1,6,-1
 202 716 l 1,7,-1
 308 716 l 1,8,-1
 492 117 l 1,9,-1
 897 716 l 1,10,-1
 994 716 l 1,11,-1
 868 0 l 1,12,-1
 785 0 l 1,0,-1
EndSplineSet
EndChar
StartChar: N
Encoding: 78 78 47
Width: 818
VWidth: 1533
Flags: W
HStem: -21 21<77 127.489 712.189 740.555> 696 20G<198.508 308.757 816.493 868>
Fore
727 -21 m 1,0,-1
 236 642 l 1,1,-1
 124 0 l 1,2,-1
 77 0 l 1,3,-1
 202 716 l 1,4,-1
 294 716 l 1,5,-1
 719 140 l 1,6,-1
 820 716 l 1,7,-1
 868 716 l 1,8,-1
 737 -21 l 1,9,-1
 727 -21 l 1,0,-1
EndSplineSet
EndChar
StartChar: O
Encoding: 79 79 48
Width: 912
VWidth: 1533
Flags: W
HStem: -26 29<339.286 577.734> 710 29<457.384 695.672>
Fore
937 357 m 0,0,1
 921 271 921 271 873.5 200.5 c 128,-1,2
 826 130 826 130 759.5 79.5 c 128,-1,3
 693 29 693 29 612.5 1.5 c 128,-1,4
 532 -26 532 -26 451 -26 c 256,5,6
 370 -26 370 -26 299 1.5 c 128,-1,7
 228 29 228 29 179 79.5 c 128,-1,8
 130 130 130 130 107 200.5 c 128,-1,9
 84 271 84 271 100 356 c 256,10,11
 115 440 115 440 162.5 510.5 c 128,-1,12
 210 581 210 581 277.5 631.5 c 128,-1,13
 345 682 345 682 425.5 710.5 c 128,-1,14
 506 739 506 739 586 739 c 256,15,16
 665 739 665 739 735.5 711.5 c 128,-1,17
 806 684 806 684 856 633.5 c 128,-1,18
 906 583 906 583 929 512.5 c 128,-1,19
 952 442 952 442 937 357 c 0,0,1
834 357 m 0,20,21
 846 428 846 428 836 492.5 c 128,-1,22
 826 557 826 557 795 605 c 128,-1,23
 764 653 764 653 710 681.5 c 128,-1,24
 656 710 656 710 581 710 c 0,25,26
 504 710 504 710 440.5 681.5 c 128,-1,27
 377 653 377 653 328 605 c 128,-1,28
 279 557 279 557 246 492.5 c 128,-1,29
 213 428 213 428 201 356 c 256,30,31
 189 284 189 284 199 220 c 128,-1,32
 209 156 209 156 240 108 c 128,-1,33
 271 60 271 60 325 31.5 c 128,-1,34
 379 3 379 3 455 3 c 0,35,36
 530 3 530 3 594.5 31.5 c 128,-1,37
 659 60 659 60 708 109 c 128,-1,38
 757 158 757 158 789.5 221.5 c 128,-1,39
 822 285 822 285 834 357 c 0,20,21
EndSplineSet
EndChar
StartChar: P
Encoding: 80 80 49
Width: 758
VWidth: 1533
Flags: W
HStem: 0 21G<77 162.486> 327 39<224 265.788 265.788 368.392 368.392 468.253> 678 38<278 472.119 472.119 482.994 482.994 553.969 553.969 597.5 597.5 614.526>
Fore
813 527 m 0,0,1
 802 468 802 468 764.5 430 c 128,-1,2
 727 392 727 392 673 370 c 128,-1,3
 619 348 619 348 555 338 c 128,-1,4
 491 328 491 328 428 326 c 128,-1,5
 365 324 365 324 309 325.5 c 128,-1,6
 253 327 253 327 216 327 c 1,7,-1
 159 0 l 1,8,-1
 77 0 l 1,9,-1
 202 716 l 1,10,-1
 434 716 l 2,11,12
 468 716 468 716 510.5 715 c 128,-1,13
 553 714 553 714 597.5 709 c 128,-1,14
 642 704 642 704 685 692.5 c 128,-1,15
 728 681 728 681 759 659.5 c 128,-1,16
 790 638 790 638 805 605.5 c 128,-1,17
 820 573 820 573 813 527 c 0,0,1
718 529 m 0,18,19
 727 581 727 581 696 611 c 128,-1,20
 665 641 665 641 617.5 655.5 c 128,-1,21
 570 670 570 670 517.5 674 c 128,-1,22
 465 678 465 678 428 678 c 2,23,-1
 278 678 l 1,24,-1
 224 366 l 1,25,-1
 371 366 l 2,26,27
 414 366 414 366 470 369.5 c 128,-1,28
 526 373 526 373 577.5 388 c 128,-1,29
 629 403 629 403 668 436 c 128,-1,30
 707 469 707 469 718 529 c 0,18,19
EndSplineSet
EndChar
StartChar: Q
Encoding: 81 81 50
Width: 912
VWidth: 1533
Flags: W
HStem: -225 33<687.824 735.992> -25 28<338.844 406> 710 29<456.743 695.672>
VStem: 406 115<-106.387 -25>
Fore
937 357 m 0,0,1
 923 284 923 284 884 220 c 128,-1,2
 845 156 845 156 788 107 c 128,-1,3
 731 58 731 58 662 24.5 c 128,-1,4
 593 -9 593 -9 521 -21 c 1,5,6
 520 -72 520 -72 540 -107.5 c 128,-1,7
 560 -143 560 -143 593 -164.5 c 128,-1,8
 626 -186 626 -186 668 -192.5 c 128,-1,9
 710 -199 710 -199 754 -192 c 1,10,-1
 739 -225 l 1,11,12
 679 -244 679 -244 620 -235.5 c 128,-1,13
 561 -227 561 -227 514.5 -198 c 128,-1,14
 468 -169 468 -169 438 -124.5 c 128,-1,15
 408 -80 408 -80 406 -25 c 1,16,17
 334 -17 334 -17 272 15.5 c 128,-1,18
 210 48 210 48 167 97.5 c 128,-1,19
 124 147 124 147 105 213 c 128,-1,20
 86 279 86 279 100 356 c 0,21,22
 115 440 115 440 162.5 510.5 c 128,-1,23
 210 581 210 581 277.5 631.5 c 128,-1,24
 345 682 345 682 424.5 710.5 c 128,-1,25
 504 739 504 739 586 739 c 0,26,27
 665 739 665 739 735.5 711.5 c 128,-1,28
 806 684 806 684 856 633.5 c 128,-1,29
 906 583 906 583 929 512.5 c 128,-1,30
 952 442 952 442 937 357 c 0,0,1
834 357 m 0,31,32
 846 428 846 428 836 492.5 c 128,-1,33
 826 557 826 557 795 605 c 128,-1,34
 764 653 764 653 710 681.5 c 128,-1,35
 656 710 656 710 581 710 c 0,36,37
 504 710 504 710 440.5 681.5 c 128,-1,38
 377 653 377 653 328 605 c 128,-1,39
 279 557 279 557 246 492.5 c 128,-1,40
 213 428 213 428 201 356 c 256,41,42
 189 284 189 284 199 220 c 128,-1,43
 209 156 209 156 240 108 c 128,-1,44
 271 60 271 60 325 31.5 c 128,-1,45
 379 3 379 3 455 3 c 0,46,47
 530 3 530 3 594.5 31.5 c 128,-1,48
 659 60 659 60 708 109 c 128,-1,49
 757 158 757 158 789.5 221.5 c 128,-1,50
 822 285 822 285 834 357 c 0,31,32
EndSplineSet
EndChar
StartChar: R
Encoding: 82 82 51
Width: 817
VWidth: 1533
Flags: W
HStem: 0 21G<77 162.486 669.5 787> 327 20<507 575> 327 39<224 498.954> 678 38<278 481.362 481.362 487.058 487.058 581.458>
Fore
678 0 m 1,0,1
 661 23 661 23 652.5 56.5 c 128,-1,2
 644 90 644 90 638.5 126.5 c 128,-1,3
 633 163 633 163 626 199 c 128,-1,4
 619 235 619 235 606 263 c 128,-1,5
 593 291 593 291 570 309 c 128,-1,6
 547 327 547 327 507 327 c 2,7,-1
 216 327 l 1,8,-1
 159 0 l 1,9,-1
 77 0 l 1,10,-1
 202 716 l 1,11,-1
 443 716 l 2,12,13
 477 716 477 716 520 715 c 128,-1,14
 563 714 563 714 608 709.5 c 128,-1,15
 653 705 653 705 694.5 693.5 c 128,-1,16
 736 682 736 682 766.5 661.5 c 128,-1,17
 797 641 797 641 811.5 608 c 128,-1,18
 826 575 826 575 819 527 c 0,19,20
 811 486 811 486 785.5 454.5 c 128,-1,21
 760 423 760 423 725 401.5 c 128,-1,22
 690 380 690 380 650 366.5 c 128,-1,23
 610 353 610 353 575 347 c 1,24,25
 627 345 627 345 655.5 326 c 128,-1,26
 684 307 684 307 699 277.5 c 128,-1,27
 714 248 714 248 720.5 211.5 c 128,-1,28
 727 175 727 175 733 136.5 c 128,-1,29
 739 98 739 98 750.5 63 c 128,-1,30
 762 28 762 28 787 0 c 1,31,-1
 678 0 l 1,0,1
714 529 m 0,32,33
 724 584 724 584 698 614 c 128,-1,34
 672 644 672 644 628 658.5 c 128,-1,35
 584 673 584 673 532.5 675.5 c 128,-1,36
 481 678 481 678 442 678 c 2,37,-1
 278 678 l 1,38,-1
 224 366 l 1,39,-1
 406 366 l 2,40,41
 451 366 451 366 500.5 369.5 c 128,-1,42
 550 373 550 373 594.5 389 c 128,-1,43
 639 405 639 405 671.5 437 c 128,-1,44
 704 469 704 469 714 529 c 0,32,33
EndSplineSet
EndChar
StartChar: S
Encoding: 83 83 52
Width: 742
VWidth: 1533
Flags: W
HStem: -25 36<299.149 425.491> 702 34<437.706 550.016>
VStem: 74 101<140.038 207> 696 89<557 625.606>
Fore
739 204 m 0,0,1
 727 135 727 135 688 91.5 c 128,-1,2
 649 48 649 48 595 21.5 c 128,-1,3
 541 -5 541 -5 480 -15 c 128,-1,4
 419 -25 419 -25 363 -25 c 0,5,6
 310 -25 310 -25 255.5 -11.5 c 128,-1,7
 201 2 201 2 159 30 c 128,-1,8
 117 58 117 58 92 102 c 128,-1,9
 67 146 67 146 74 207 c 1,10,-1
 175 207 l 1,11,12
 170 161 170 161 183 125 c 128,-1,13
 196 89 196 89 223 63.5 c 128,-1,14
 250 38 250 38 287.5 24.5 c 128,-1,15
 325 11 325 11 370 11 c 0,16,17
 408 11 408 11 453 19.5 c 128,-1,18
 498 28 498 28 537 47 c 128,-1,19
 576 66 576 66 605.5 98 c 128,-1,20
 635 130 635 130 644 178 c 0,21,22
 655 233 655 233 619 263.5 c 128,-1,23
 583 294 583 294 524.5 312.5 c 128,-1,24
 466 331 466 331 397 344 c 128,-1,25
 328 357 328 357 270 378.5 c 128,-1,26
 212 400 212 400 177.5 436 c 128,-1,27
 143 472 143 472 153 537 c 0,28,29
 164 595 164 595 201.5 633.5 c 128,-1,30
 239 672 239 672 289.5 695 c 128,-1,31
 340 718 340 718 396 727 c 128,-1,32
 452 736 452 736 498 736 c 0,33,34
 543 736 543 736 593.5 727.5 c 128,-1,35
 644 719 644 719 686 699 c 128,-1,36
 728 679 728 679 756.5 644 c 128,-1,37
 785 609 785 609 785 557 c 1,38,-1
 696 557 l 1,39,40
 696 598 696 598 677.5 626.5 c 128,-1,41
 659 655 659 655 630 671.5 c 128,-1,42
 601 688 601 688 564 695 c 128,-1,43
 527 702 527 702 491 702 c 0,44,45
 457 702 457 702 418 696 c 128,-1,46
 379 690 379 690 344.5 674 c 128,-1,47
 310 658 310 658 284 630.5 c 128,-1,48
 258 603 258 603 250 560 c 0,49,50
 242 520 242 520 261.5 493 c 128,-1,51
 281 466 281 466 317 448.5 c 128,-1,52
 353 431 353 431 400.5 419.5 c 128,-1,53
 448 408 448 408 497.5 397 c 128,-1,54
 547 386 547 386 594 372.5 c 128,-1,55
 641 359 641 359 676 337.5 c 128,-1,56
 711 316 711 316 729.5 283.5 c 128,-1,57
 748 251 748 251 739 204 c 0,0,1
EndSplineSet
EndChar
StartChar: T
Encoding: 84 84 53
Width: 703
VWidth: 1533
Flags: W
HStem: 0 21G<308 397.481> 678 38<141 426 512 806>
Fore
512 678 m 1,0,-1
 394 0 l 1,1,-1
 308 0 l 1,2,-1
 426 678 l 1,3,-1
 133 678 l 1,4,-1
 141 716 l 1,5,-1
 814 716 l 1,6,-1
 806 678 l 1,7,-1
 512 678 l 1,0,-1
EndSplineSet
EndChar
StartChar: U
Encoding: 85 85 54
Width: 878
VWidth: 1533
Flags: W
HStem: -25 34<329.062 558.212> 696 20G<198.471 285 842.471 928>
Fore
852 291 m 1,0,1
 839 209 839 209 799.5 149.5 c 128,-1,2
 760 90 760 90 704.5 51 c 128,-1,3
 649 12 649 12 579 -6.5 c 128,-1,4
 509 -25 509 -25 434 -25 c 256,5,6
 359 -25 359 -25 296 -6.5 c 128,-1,7
 233 12 233 12 191 51 c 128,-1,8
 149 90 149 90 131 150 c 128,-1,9
 113 210 113 210 127 291 c 2,10,-1
 202 716 l 1,11,-1
 285 716 l 1,12,-1
 207 274 l 2,13,14
 196 213 196 213 209 164 c 128,-1,15
 222 115 222 115 253.5 80.5 c 128,-1,16
 285 46 285 46 332.5 27.5 c 128,-1,17
 380 9 380 9 440 9 c 256,18,19
 500 9 500 9 554.5 27.5 c 128,-1,20
 609 46 609 46 652.5 80.5 c 128,-1,21
 696 115 696 115 726.5 164 c 128,-1,22
 757 213 757 213 768 274 c 2,23,-1
 846 716 l 1,24,-1
 928 716 l 1,25,-1
 852 291 l 1,0,1
EndSplineSet
EndChar
StartChar: V
Encoding: 86 86 55
Width: 788
VWidth: 1533
Flags: W
HStem: -20 21G<364.533 400.13> 696 20G<133 233.461 843.006 906>
Fore
386 -20 m 1,0,-1
 371 -20 l 1,1,-1
 133 716 l 1,2,-1
 227 716 l 1,3,-1
 426 100 l 1,4,-1
 857 716 l 1,5,-1
 906 716 l 1,6,-1
 386 -20 l 1,0,-1
EndSplineSet
EndChar
StartChar: W
Encoding: 87 87 56
Width: 1048
VWidth: 1533
Flags: W
HStem: -20 21G<279.897 309.514 736.377 765.223> 696 20G<133 228.126 636.336 667 667 669.597 1112.85 1167>
Fore
754 -20 m 1,0,-1
 741 -20 l 1,1,-1
 606 564 l 1,2,-1
 299 -20 l 1,3,-1
 284 -20 l 1,4,-1
 133 716 l 1,5,-1
 224 716 l 1,6,-1
 342 144 l 1,7,-1
 647 716 l 1,8,-1
 667 716 l 1,9,-1
 665 716 l 1,10,-1
 799 133 l 1,11,-1
 1124 716 l 1,12,-1
 1167 716 l 1,13,-1
 754 -20 l 1,0,-1
EndSplineSet
EndChar
StartChar: X
Encoding: 88 88 57
Width: 668
VWidth: 1533
Flags: W
HStem: -2 21G<6 71.3681 555.712 659> 696 20G<167 272.053 720.474 785>
Fore
567 -2 m 1,0,-1
 383 324 l 1,1,-1
 51 -2 l 1,2,-1
 6 -2 l 1,3,-1
 368 351 l 1,4,-1
 167 716 l 1,5,-1
 261 716 l 1,6,-1
 429 412 l 1,7,-1
 741 716 l 1,8,-1
 785 716 l 1,9,-1
 446 385 l 1,10,-1
 659 -2 l 1,11,-1
 567 -2 l 1,0,-1
EndSplineSet
EndChar
StartChar: Y
Encoding: 89 89 58
Width: 737
VWidth: 1533
Flags: W
HStem: 0 21G<316 405.478> 696 20G<133 235.803 786 856>
Fore
458 322 m 1,0,-1
 402 0 l 1,1,-1
 316 0 l 1,2,-1
 370 307 l 1,3,-1
 133 716 l 1,4,-1
 224 716 l 1,5,-1
 440 350 l 1,6,-1
 806 716 l 1,7,-1
 856 716 l 1,8,-1
 458 322 l 1,0,-1
EndSplineSet
EndChar
StartChar: Z
Encoding: 90 90 59
Width: 657
VWidth: 1533
Flags: W
HStem: 0 37<146 616> 678 38<189 639>
Fore
146 37 m 1,0,-1
 635 37 l 1,1,-1
 616 0 l 1,2,-1
 15 0 l 1,3,-1
 639 678 l 1,4,-1
 169 678 l 1,5,-1
 189 716 l 1,6,-1
 768 716 l 1,7,-1
 146 37 l 1,0,-1
EndSplineSet
EndChar
StartChar: bracketleft
Encoding: 91 91 60
Width: 305
VWidth: 1533
Flags: W
HStem: -202 16<143.504 190> 717 20G<332 353>
VStem: 60.5 295.5<-72.5 737 -126.172 -6.30789>
Fore
190 -202 m 1,0,1
 143 -202 143 -202 115 -185.5 c 128,-1,2
 87 -169 87 -169 74 -139.5 c 128,-1,3
 61 -110 61 -110 60.5 -72.5 c 128,-1,4
 60 -35 60 -35 67 5 c 2,5,-1
 161 532 l 2,6,7
 167 572 167 572 181 609.5 c 128,-1,8
 195 647 195 647 218 675.5 c 128,-1,9
 241 704 241 704 274.5 720.5 c 128,-1,10
 308 737 308 737 356 737 c 1,11,-1
 353 721 l 1,12,13
 317 716 317 716 295.5 702 c 128,-1,14
 274 688 274 688 262 667.5 c 128,-1,15
 250 647 250 647 244 620 c 128,-1,16
 238 593 238 593 233 564 c 2,17,-1
 129 -29 l 2,18,19
 124 -58 124 -58 120.5 -85 c 128,-1,20
 117 -112 117 -112 122 -132.5 c 128,-1,21
 127 -153 127 -153 143 -167 c 128,-1,22
 159 -181 159 -181 193 -186 c 1,23,-1
 190 -202 l 1,0,1
EndSplineSet
EndChar
StartChar: backslash
Encoding: 92 92 61
Width: 326
VWidth: 1533
Flags: W
HStem: -23 21G<273.763 339> 717 20G<117 182.237>
VStem: 117 222<-23 737 737 737>
Fore
278 -23 m 1,0,-1
 117 737 l 1,1,-1
 178 737 l 1,2,-1
 339 -23 l 1,3,-1
 278 -23 l 1,0,-1
EndSplineSet
EndChar
StartChar: bracketright
Encoding: 93 93 62
Width: 305
VWidth: 1533
Flags: W
HStem: -202 21G<44 65> 721 16<207 253.496>
VStem: 41 295<-202 608.5 -202 -202>
Fore
236 5 m 1,0,1
 228 -35 228 -35 215 -72.5 c 128,-1,2
 202 -110 202 -110 179 -139.5 c 128,-1,3
 156 -169 156 -169 122.5 -185.5 c 128,-1,4
 89 -202 89 -202 41 -202 c 1,5,-1
 44 -186 l 1,6,7
 80 -181 80 -181 101.5 -166.5 c 128,-1,8
 123 -152 123 -152 136 -131 c 128,-1,9
 149 -110 149 -110 155 -83.5 c 128,-1,10
 161 -57 161 -57 166 -29 c 2,11,-1
 270 564 l 2,12,13
 274 593 274 593 277.5 619 c 128,-1,14
 281 645 281 645 275.5 666 c 128,-1,15
 270 687 270 687 254 701.5 c 128,-1,16
 238 716 238 716 204 721 c 1,17,-1
 207 737 l 1,18,19
 255 737 255 737 282.5 720.5 c 128,-1,20
 310 704 310 704 323 674.5 c 128,-1,21
 336 645 336 645 336 608.5 c 128,-1,22
 336 572 336 572 330 532 c 2,23,-1
 236 5 l 1,0,1
EndSplineSet
EndChar
StartChar: asciicircum
Encoding: 94 94 63
Width: 686
VWidth: 1533
Flags: W
HStem: 281 406<432 558 432 432>
VStem: 158 471<281 281 281 281>
Fore
558 281 m 1,0,-1
 452 610 l 1,1,-1
 228 281 l 1,2,-1
 158 281 l 1,3,-1
 432 687 l 1,4,-1
 497 687 l 1,5,-1
 629 281 l 1,6,-1
 558 281 l 1,0,-1
EndSplineSet
EndChar
StartChar: underscore
Encoding: 95 95 64
Width: 574
VWidth: 1533
Flags: W
HStem: -140 56<-6 541>
Fore
-17 -140 m 1,0,-1
 -6 -84 l 1,1,-1
 552 -84 l 1,2,-1
 541 -140 l 1,3,-1
 -17 -140 l 1,0,-1
EndSplineSet
EndChar
StartChar: grave
Encoding: 96 96 65
Width: 305
VWidth: 1533
Flags: W
HStem: 650 193<172 310 172 172>
VStem: 135 208<650 810 810 810>
Fore
310 650 m 1,0,1
 267 682 267 682 221 713.5 c 128,-1,2
 175 745 175 745 140 787 c 1,3,-1
 135 810 l 1,4,-1
 147 833 l 1,5,6
 161 843 161 843 172 843 c 0,7,8
 192 843 192 843 218 817 c 128,-1,9
 244 791 244 791 269 757.5 c 128,-1,10
 294 724 294 724 315 692.5 c 128,-1,11
 336 661 336 661 343 650 c 1,12,-1
 310 650 l 1,0,1
EndSplineSet
EndChar
StartChar: a
Encoding: 97 97 66
Width: 616
VWidth: 1533
Flags: W
HStem: -15 35<223.487 374.112> 293 38<268.96 340.5 359.5 389.555 389.555 407.304 407.304 526> 512 38<350.73 486.821>
VStem: 494.5 65<30.4922 88.2819>
Fore
500 0 m 1,0,1
 495 25 495 25 494.5 45.5 c 128,-1,2
 494 66 494 66 497 89 c 1,3,4
 445 29 445 29 385 7 c 128,-1,5
 325 -15 325 -15 251 -15 c 0,6,7
 213 -15 213 -15 174.5 -6 c 128,-1,8
 136 3 136 3 108 23 c 128,-1,9
 80 43 80 43 64.5 75 c 128,-1,10
 49 107 49 107 57 152 c 0,11,12
 64 199 64 199 94 230.5 c 128,-1,13
 124 262 124 262 166.5 282 c 128,-1,14
 209 302 209 302 259.5 313 c 128,-1,15
 310 324 310 324 359.5 327.5 c 128,-1,16
 409 331 409 331 455 331 c 128,-1,17
 501 331 501 331 534 331 c 1,18,-1
 537 353 l 2,19,20
 550 432 550 432 510.5 472 c 128,-1,21
 471 512 471 512 392 512 c 0,22,23
 366 512 366 512 336.5 503.5 c 128,-1,24
 307 495 307 495 281 479 c 128,-1,25
 255 463 255 463 235 439 c 128,-1,26
 215 415 215 415 210 386 c 1,27,-1
 126 386 l 1,28,29
 144 432 144 432 173 463.5 c 128,-1,30
 202 495 202 495 238 514.5 c 128,-1,31
 274 534 274 534 315.5 542 c 128,-1,32
 357 550 357 550 400 550 c 0,33,34
 472 550 472 550 515 535 c 128,-1,35
 558 520 558 520 580.5 493 c 128,-1,36
 603 466 603 466 606.5 429 c 128,-1,37
 610 392 610 392 606 351 c 0,38,39
 599 308 599 308 588.5 263 c 128,-1,40
 578 218 578 218 569.5 172.5 c 128,-1,41
 561 127 561 127 559.5 83.5 c 128,-1,42
 558 40 558 40 570 0 c 1,43,-1
 500 0 l 1,0,1
422 293 m 2,44,45
 385 293 385 293 340.5 287.5 c 128,-1,46
 296 282 296 282 255.5 266.5 c 128,-1,47
 215 251 215 251 184 223.5 c 128,-1,48
 153 196 153 196 146 150 c 0,49,50
 140 118 140 118 149.5 94.5 c 128,-1,51
 159 71 159 71 180 54 c 128,-1,52
 201 37 201 37 228.5 28.5 c 128,-1,53
 256 20 256 20 285 20 c 0,54,55
 333 20 333 20 372 38.5 c 128,-1,56
 411 57 411 57 441 87.5 c 128,-1,57
 471 118 471 118 491 158.5 c 128,-1,58
 511 199 511 199 518 244 c 2,59,-1
 526 293 l 1,60,-1
 422 293 l 2,44,45
EndSplineSet
Substitution2: "Single Substitution lookup 22 subtable" uni0E38
Substitution2: "Single Substitution lookup 22 subtable" uni0E38
EndChar
StartChar: b
Encoding: 98 98 67
Width: 668
VWidth: 1533
Flags: W
HStem: -17 38<266.148 439.047> 515 37<346.842 518.551>
Fore
684 268 m 0,0,1
 675 210 675 210 645 158.5 c 128,-1,2
 615 107 615 107 571 68 c 128,-1,3
 527 29 527 29 473 6 c 128,-1,4
 419 -17 419 -17 359 -17 c 0,5,6
 290 -17 290 -17 236 10.5 c 128,-1,7
 182 38 182 38 156 97 c 1,8,-1
 140 0 l 1,9,-1
 69 0 l 1,10,-1
 199 742 l 1,11,-1
 270 742 l 1,12,-1
 213 425 l 1,13,14
 256 491 256 491 320.5 521.5 c 128,-1,15
 385 552 385 552 458 552 c 0,16,17
 521 552 521 552 568 530.5 c 128,-1,18
 615 509 615 509 645 470.5 c 128,-1,19
 675 432 675 432 685 381 c 128,-1,20
 695 330 695 330 684 268 c 0,0,1
599 265 m 256,21,22
 607 311 607 311 601.5 355.5 c 128,-1,23
 596 400 596 400 575.5 436 c 128,-1,24
 555 472 555 472 519.5 493.5 c 128,-1,25
 484 515 484 515 434 515 c 0,26,27
 386 515 386 515 344 492 c 128,-1,28
 302 469 302 469 269 433 c 128,-1,29
 236 397 236 397 214.5 352.5 c 128,-1,30
 193 308 193 308 186 265 c 0,31,32
 178 221 178 221 184 178 c 128,-1,33
 190 135 190 135 211 99.5 c 128,-1,34
 232 64 232 64 265.5 42.5 c 128,-1,35
 299 21 299 21 347 21 c 0,36,37
 397 21 397 21 439 42 c 128,-1,38
 481 63 481 63 514 97.5 c 128,-1,39
 547 132 547 132 569.5 175.5 c 128,-1,40
 592 219 592 219 599 265 c 256,21,22
EndSplineSet
Substitution2: "Single Substitution lookup 22 subtable" uni0E39
Substitution2: "Single Substitution lookup 22 subtable" uni0E39
EndChar
StartChar: c
Encoding: 99 99 68
Width: 630
VWidth: 1533
Flags: W
HStem: -17 40<246.4 406.767> 512 38<326.88 493.364>
Fore
578 386 m 1,0,1
 566 448 566 448 524.5 480 c 128,-1,2
 483 512 483 512 419 512 c 0,3,4
 370 512 370 512 327.5 491.5 c 128,-1,5
 285 471 285 471 252 437 c 128,-1,6
 219 403 219 403 197 360 c 128,-1,7
 175 317 175 317 167 273 c 0,8,9
 158 225 158 225 163.5 180.5 c 128,-1,10
 169 136 169 136 189.5 101 c 128,-1,11
 210 66 210 66 245.5 44.5 c 128,-1,12
 281 23 281 23 333 23 c 0,13,14
 397 23 397 23 450.5 54.5 c 128,-1,15
 504 86 504 86 537 147 c 1,16,-1
 624 147 l 1,17,18
 604 103 604 103 571 71.5 c 128,-1,19
 538 40 538 40 499 21 c 128,-1,20
 460 2 460 2 416.5 -7.5 c 128,-1,21
 373 -17 373 -17 333 -17 c 0,22,23
 271 -17 271 -17 220 4 c 128,-1,24
 169 25 169 25 133 62.5 c 128,-1,25
 97 100 97 100 81.5 152 c 128,-1,26
 66 204 66 204 77 267 c 256,27,28
 87 330 87 330 121.5 382 c 128,-1,29
 156 434 156 434 204.5 471.5 c 128,-1,30
 253 509 253 509 312 529.5 c 128,-1,31
 371 550 371 550 432 550 c 0,32,33
 472 550 472 550 512.5 541 c 128,-1,34
 553 532 553 532 586 513 c 128,-1,35
 619 494 619 494 640.5 462.5 c 128,-1,36
 662 431 662 431 667 386 c 1,37,-1
 578 386 l 1,0,1
EndSplineSet
Substitution2: "Single Substitution lookup 22 subtable" uni0E3A
Substitution2: "Single Substitution lookup 22 subtable" uni0E3A
EndChar
StartChar: d
Encoding: 100 100 69
Width: 668
VWidth: 1533
Flags: W
HStem: -17 38<243.572 417.609> 515 37<322.876 495.077>
Fore
529 0 m 1,0,-1
 546 97 l 1,1,2
 500 38 500 38 436.5 10.5 c 128,-1,3
 373 -17 373 -17 304 -17 c 0,4,5
 244 -17 244 -17 198 6 c 128,-1,6
 152 29 152 29 121 68 c 128,-1,7
 90 107 90 107 78.5 158.5 c 128,-1,8
 67 210 67 210 77 268 c 0,9,10
 87 330 87 330 116.5 381 c 128,-1,11
 146 432 146 432 189 470.5 c 128,-1,12
 232 509 232 509 286 530.5 c 128,-1,13
 340 552 340 552 403 552 c 0,14,15
 477 552 477 552 530 521.5 c 128,-1,16
 583 491 583 491 603 425 c 1,17,-1
 659 742 l 1,18,-1
 730 742 l 1,19,-1
 599 0 l 1,20,-1
 529 0 l 1,0,-1
575 265 m 0,21,22
 583 308 583 308 576.5 353.5 c 128,-1,23
 570 399 570 399 551 434 c 128,-1,24
 532 469 532 469 497.5 492 c 128,-1,25
 463 515 463 515 415 515 c 0,26,27
 365 515 365 515 322 493.5 c 128,-1,28
 279 472 279 472 246 436 c 128,-1,29
 213 400 213 400 191.5 355.5 c 128,-1,30
 170 311 170 311 163 265 c 256,31,32
 155 219 155 219 161 175.5 c 128,-1,33
 167 132 167 132 188 97.5 c 128,-1,34
 209 63 209 63 243.5 42 c 128,-1,35
 278 21 278 21 328 21 c 0,36,37
 376 21 376 21 418 42.5 c 128,-1,38
 460 64 460 64 492 98.5 c 128,-1,39
 524 133 524 133 545.5 177 c 128,-1,40
 567 221 567 221 575 265 c 0,21,22
EndSplineSet
EndChar
StartChar: e
Encoding: 101 101 70
Width: 657
VWidth: 1533
Flags: W
HStem: -17 38<263.306 391.227> 333 38<213 592> 514 36<329.781 511.044>
VStem: 572 75<120.049 190>
Fore
193 333 m 1,0,1
 184 316 184 316 181.5 297.5 c 128,-1,2
 179 279 179 279 176 262 c 0,3,4
 167 213 167 213 174 169.5 c 128,-1,5
 181 126 181 126 204 93 c 128,-1,6
 227 60 227 60 264.5 40.5 c 128,-1,7
 302 21 302 21 354 21 c 0,8,9
 388 21 388 21 423 34.5 c 128,-1,10
 458 48 458 48 488 71 c 128,-1,11
 518 94 518 94 540.5 124.5 c 128,-1,12
 563 155 563 155 572 190 c 1,13,-1
 647 190 l 1,14,15
 635 140 635 140 603.5 100.5 c 128,-1,16
 572 61 572 61 530 35 c 128,-1,17
 488 9 488 9 440 -4 c 128,-1,18
 392 -17 392 -17 347 -17 c 0,19,20
 287 -17 287 -17 234 3 c 128,-1,21
 181 23 181 23 144 59 c 128,-1,22
 107 95 107 95 89.5 146.5 c 128,-1,23
 72 198 72 198 83 261 c 0,24,25
 94 325 94 325 126.5 378 c 128,-1,26
 159 431 159 431 206 469 c 128,-1,27
 253 507 253 507 311.5 528.5 c 128,-1,28
 370 550 370 550 434 550 c 0,29,30
 484 550 484 550 530 537 c 128,-1,31
 576 524 576 524 610.5 497.5 c 128,-1,32
 645 471 645 471 663.5 429.5 c 128,-1,33
 682 388 682 388 678 333 c 1,34,-1
 193 333 l 1,0,1
592 371 m 1,35,36
 583 435 583 435 537 474.5 c 128,-1,37
 491 514 491 514 422 514 c 0,38,39
 356 514 356 514 298.5 474 c 128,-1,40
 241 434 241 434 213 371 c 1,41,-1
 592 371 l 1,35,36
EndSplineSet
EndChar
StartChar: f
Encoding: 102 102 71
Width: 318
VWidth: 1533
Flags: W
HStem: 0 21G<112 187.462> 468 39<129 193 273 351> 682 60<357.83 428.392>
VStem: 104 368<468 741 468 546>
Fore
458 668 m 1,0,1
 428 682 428 682 403 682 c 0,2,3
 362 682 362 682 328 657.5 c 128,-1,4
 294 633 294 633 287 590 c 2,5,-1
 273 507 l 1,6,-1
 376 507 l 1,7,-1
 351 468 l 1,8,-1
 265 468 l 1,9,-1
 184 0 l 1,10,-1
 112 0 l 1,11,-1
 193 468 l 1,12,-1
 104 468 l 1,13,-1
 129 507 l 1,14,-1
 201 507 l 1,15,16
 210 553 210 553 230 597 c 128,-1,17
 250 641 250 641 282 674 c 128,-1,18
 314 707 314 707 356.5 725.5 c 128,-1,19
 399 744 399 744 451 742 c 2,20,-1
 472 741 l 1,21,-1
 458 668 l 1,0,1
EndSplineSet
EndChar
StartChar: g
Encoding: 103 103 72
Width: 659
VWidth: 1533
Flags: W
HStem: -197 30.5<156.063 181.5 227 233.943 233.943 259.185 246.564 306.013 296.268 315.759 315.759 355 357.5 428.659> 175 35<306.52 374.257> 509 38<330.276 480.967> 553 68<594.987 666.469>
VStem: 535 80<-88.575 -61 -61 -19.564>
Fore
615 -32 m 0,0,1
 606 -87 606 -87 563.5 -121 c 128,-1,2
 521 -155 521 -155 467.5 -173.5 c 128,-1,3
 414 -192 414 -192 357.5 -198 c 128,-1,4
 301 -204 301 -204 261 -204 c 0,5,6
 228 -204 228 -204 181.5 -197 c 128,-1,7
 135 -190 135 -190 93 -173 c 128,-1,8
 51 -156 51 -156 23 -128 c 128,-1,9
 -5 -100 -5 -100 3 -55 c 0,10,11
 8 -26 8 -26 28.5 -6 c 128,-1,12
 49 14 49 14 76 27.5 c 128,-1,13
 103 41 103 41 133 49.5 c 128,-1,14
 163 58 163 58 187 63 c 1,15,16
 166 71 166 71 148 85.5 c 128,-1,17
 130 100 130 100 135 126 c 0,18,19
 140 155 140 155 172 170.5 c 128,-1,20
 204 186 204 186 232 189 c 1,21,22
 207 198 207 198 184 215.5 c 128,-1,23
 161 233 161 233 144 256 c 128,-1,24
 127 279 127 279 119.5 306 c 128,-1,25
 112 333 112 333 117 360 c 0,26,27
 126 408 126 408 157.5 443 c 128,-1,28
 189 478 189 478 231.5 501 c 128,-1,29
 274 524 274 524 322 535.5 c 128,-1,30
 370 547 370 547 409 547 c 0,31,32
 434 547 434 547 457.5 544 c 128,-1,33
 481 541 481 541 503 534 c 1,34,35
 546 583 546 583 593.5 602.5 c 128,-1,36
 641 622 641 622 699 621 c 2,37,-1
 718 621 l 1,38,-1
 704 540 l 1,39,40
 684 546 684 546 667 549.5 c 128,-1,41
 650 553 650 553 633 553 c 0,42,43
 610 553 610 553 585 545.5 c 128,-1,44
 560 538 560 538 538 523 c 1,45,46
 583 501 583 501 616 460 c 128,-1,47
 649 419 649 419 638 360 c 128,-1,48
 627 301 627 301 592 264.5 c 128,-1,49
 557 228 557 228 511 209 c 128,-1,50
 465 190 465 190 413.5 183 c 128,-1,51
 362 176 362 176 317 175 c 0,52,53
 311 175 311 175 299.5 174 c 128,-1,54
 288 173 288 173 276.5 171.5 c 128,-1,55
 265 170 265 170 255 168.5 c 128,-1,56
 245 167 245 167 241 166 c 0,57,58
 224 161 224 161 222 147 c 0,59,60
 221 127 221 127 282 118 c 0,61,62
 310 113 310 113 347.5 111 c 128,-1,63
 385 109 385 109 423 104 c 256,64,65
 461 100 461 100 499 91.5 c 128,-1,66
 537 83 537 83 564.5 68.5 c 128,-1,67
 592 54 592 54 606.5 29.5 c 128,-1,68
 621 5 621 5 615 -32 c 0,0,1
553 359 m 0,69,70
 567 440 567 440 524 474.5 c 128,-1,71
 481 509 481 509 405 509 c 0,72,73
 330 509 330 509 273 474.5 c 128,-1,74
 216 440 216 440 202 359 c 0,75,76
 195 319 195 319 203.5 290.5 c 128,-1,77
 212 262 212 262 232.5 244.5 c 128,-1,78
 253 227 253 227 283.5 218.5 c 128,-1,79
 314 210 314 210 353 210 c 0,80,81
 429 210 429 210 484.5 244.5 c 128,-1,82
 540 279 540 279 553 359 c 0,69,70
535 -61 m 0,83,84
 541 -25 541 -25 521 -2.5 c 128,-1,85
 501 20 501 20 468 30.5 c 128,-1,86
 435 41 435 41 397 44.5 c 128,-1,87
 359 48 359 48 330 48 c 0,88,89
 299 48 299 48 259 45.5 c 128,-1,90
 219 43 219 43 182.5 33 c 128,-1,91
 146 23 146 23 118 1 c 128,-1,92
 90 -21 90 -21 83 -61 c 0,93,94
 77 -97 77 -97 99 -117.5 c 128,-1,95
 121 -138 121 -138 155 -150.5 c 128,-1,96
 189 -163 189 -163 227 -166.5 c 128,-1,97
 265 -170 265 -170 291 -170 c 0,98,99
 316 -170 316 -170 355 -164.5 c 128,-1,100
 394 -159 394 -159 432.5 -147 c 128,-1,101
 471 -135 471 -135 500.5 -113.5 c 128,-1,102
 530 -92 530 -92 535 -61 c 0,83,84
EndSplineSet
EndChar
StartChar: h
Encoding: 104 104 73
Width: 642
VWidth: 1533
Flags: W
HStem: 0 21G<69 143.444 500 576.481> 512 38<333.894 466.859> 682 20G<188.496 262>
Fore
500 0 m 1,0,-1
 564 371 l 2,1,2
 570 408 570 408 560 434 c 128,-1,3
 550 460 550 460 529.5 477.5 c 128,-1,4
 509 495 509 495 480 503.5 c 128,-1,5
 451 512 451 512 417 512 c 0,6,7
 374 512 374 512 336.5 494.5 c 128,-1,8
 299 477 299 477 269 448 c 128,-1,9
 239 419 239 419 219 380.5 c 128,-1,10
 199 342 199 342 192 302 c 2,11,-1
 140 0 l 1,12,-1
 69 0 l 1,13,-1
 192 702 l 1,14,-1
 262 702 l 1,15,-1
 216 435 l 1,16,17
 251 484 251 484 308.5 517 c 128,-1,18
 366 550 366 550 425 550 c 0,19,20
 469 550 469 550 511 540 c 128,-1,21
 553 530 553 530 584 508 c 128,-1,22
 615 486 615 486 630 450 c 128,-1,23
 645 414 645 414 636 362 c 2,24,-1
 573 0 l 1,25,-1
 500 0 l 1,0,-1
EndSplineSet
EndChar
StartChar: i
Encoding: 105 105 74
Width: 272
VWidth: 1533
Flags: W
HStem: 0 21G<100 173.514> 515 20G<189.523 264> 604 103<221.079 281.921>
VStem: 199 105<634.676 692.045>
Fore
304 656 m 256,0,1
 301 635 301 635 282.5 619.5 c 128,-1,2
 264 604 264 604 242 604 c 256,3,4
 221 604 221 604 208.5 619.5 c 128,-1,5
 196 635 196 635 199 656 c 256,6,7
 202 678 202 678 220.5 692.5 c 128,-1,8
 239 707 239 707 261 707 c 256,9,10
 282 707 282 707 294.5 692.5 c 128,-1,11
 307 678 307 678 304 656 c 256,0,1
100 0 m 1,12,-1
 193 535 l 1,13,-1
 264 535 l 1,14,-1
 170 0 l 1,15,-1
 100 0 l 1,12,-1
EndSplineSet
EndChar
StartChar: j
Encoding: 106 106 75
Width: 288
VWidth: 1533
Flags: W
HStem: -189 49<-41.7293 50.1625> 515 20G<208.461 288> 599 108<240.595 302.406>
VStem: 218 109<617.58 690.499>
Fore
327 653 m 0,0,1
 322 632 322 632 303 615.5 c 128,-1,2
 284 599 284 599 262 599 c 0,3,4
 239 599 239 599 226 615.5 c 128,-1,5
 213 632 213 632 218 653 c 0,6,7
 221 675 221 675 240 691 c 128,-1,8
 259 707 259 707 282 707 c 0,9,10
 304 707 304 707 317 691 c 128,-1,11
 330 675 330 675 327 653 c 0,0,1
205 66 m 2,12,13
 198 25 198 25 182 -20.5 c 128,-1,14
 166 -66 166 -66 139 -103.5 c 128,-1,15
 112 -141 112 -141 73 -165 c 128,-1,16
 34 -189 34 -189 -20 -189 c 0,17,18
 -41 -189 -41 -189 -68 -182.5 c 128,-1,19
 -95 -176 -95 -176 -113 -161 c 1,20,-1
 -72 -106 l 1,21,22
 -60 -126 -60 -126 -45.5 -133 c 128,-1,23
 -31 -140 -31 -140 -11 -140 c 0,24,25
 25 -140 25 -140 48.5 -121.5 c 128,-1,26
 72 -103 72 -103 87.5 -74.5 c 128,-1,27
 103 -46 103 -46 112 -13 c 128,-1,28
 121 20 121 20 126 49 c 2,29,-1
 212 535 l 1,30,-1
 288 535 l 1,31,-1
 205 66 l 2,12,13
EndSplineSet
EndChar
StartChar: k
Encoding: 107 107 76
Width: 601
VWidth: 1533
Flags: W
HStem: 0 21G<84 158.525 493.249 586> 515 20G<518.736 613>
Fore
504 0 m 1,0,-1
 325 333 l 1,1,-1
 198 244 l 1,2,-1
 155 0 l 1,3,-1
 84 0 l 1,4,-1
 215 742 l 1,5,-1
 285 742 l 1,6,-1
 205 293 l 1,7,-1
 547 535 l 1,8,-1
 613 535 l 1,9,-1
 386 376 l 1,10,-1
 586 0 l 1,11,-1
 504 0 l 1,0,-1
EndSplineSet
EndChar
StartChar: l
Encoding: 108 108 77
Width: 239
VWidth: 1533
Flags: W
HStem: 0 21G<84 158.504>
VStem: 84 201<0 742 1.53064e-18 1.53064e-18>
Fore
84 0 m 1,0,-1
 215 742 l 1,1,-1
 285 742 l 1,2,-1
 155 0 l 1,3,-1
 84 0 l 1,0,-1
EndSplineSet
EndChar
StartChar: m
Encoding: 109 109 78
Width: 1008
VWidth: 1533
Flags: W
HStem: 0 21G<69 141.5 474 550.516 866 943.476> 511 38<328.685 481.497 710.927 879.5>
Fore
866 0 m 1,0,-1
 929 360 l 2,1,2
 941 429 941 429 903 470 c 128,-1,3
 865 511 865 511 796 511 c 0,4,5
 745 511 745 511 710 489.5 c 128,-1,6
 675 468 675 468 652 434 c 128,-1,7
 629 400 629 400 616 357 c 128,-1,8
 603 314 603 314 595 273 c 2,9,-1
 547 0 l 1,10,-1
 474 0 l 1,11,-1
 524 294 l 2,12,13
 530 333 530 333 531 371 c 128,-1,14
 532 409 532 409 519.5 440 c 128,-1,15
 507 471 507 471 481 491 c 128,-1,16
 455 511 455 511 409 511 c 0,17,18
 365 511 365 511 330.5 494 c 128,-1,19
 296 477 296 477 270 448.5 c 128,-1,20
 244 420 244 420 225.5 382.5 c 128,-1,21
 207 345 207 345 193 302 c 0,22,23
 181 259 181 259 172 215.5 c 128,-1,24
 163 172 163 172 156 132 c 128,-1,25
 149 92 149 92 146 58.5 c 128,-1,26
 143 25 143 25 140 0 c 1,27,-1
 69 0 l 1,28,-1
 163 534 l 1,29,-1
 233 534 l 1,30,-1
 215 434 l 1,31,32
 255 492 255 492 311.5 520.5 c 128,-1,33
 368 549 368 549 435 549 c 0,34,35
 507 549 507 549 548.5 513.5 c 128,-1,36
 590 478 590 478 601 414 c 1,37,38
 636 478 636 478 686 513.5 c 128,-1,39
 736 549 736 549 810 549 c 0,40,41
 857 549 857 549 896 536.5 c 128,-1,42
 935 524 935 524 961 500.5 c 128,-1,43
 987 477 987 477 998.5 439.5 c 128,-1,44
 1010 402 1010 402 1001 351 c 2,45,-1
 940 0 l 1,46,-1
 866 0 l 1,0,-1
EndSplineSet
EndChar
StartChar: n
Encoding: 110 110 79
Width: 642
VWidth: 1533
Flags: W
HStem: 0 21G<69 143.455 500 576.5> 511 38<333.729 466.859>
Fore
500 0 m 1,0,-1
 564 370 l 2,1,2
 570 406 570 406 560 432 c 128,-1,3
 550 458 550 458 529.5 476 c 128,-1,4
 509 494 509 494 480 502.5 c 128,-1,5
 451 511 451 511 417 511 c 0,6,7
 374 511 374 511 336.5 493 c 128,-1,8
 299 475 299 475 269 446 c 128,-1,9
 239 417 239 417 219 379.5 c 128,-1,10
 199 342 199 342 192 301 c 2,11,-1
 140 0 l 1,12,-1
 69 0 l 1,13,-1
 163 534 l 1,14,-1
 233 534 l 1,15,-1
 215 434 l 1,16,17
 250 484 250 484 308 516.5 c 128,-1,18
 366 549 366 549 425 549 c 0,19,20
 469 549 469 549 511 539 c 128,-1,21
 553 529 553 529 584 506.5 c 128,-1,22
 615 484 615 484 630 448 c 128,-1,23
 645 412 645 412 636 360 c 2,24,-1
 573 0 l 1,25,-1
 500 0 l 1,0,-1
EndSplineSet
EndChar
StartChar: o
Encoding: 111 111 80
Width: 682
VWidth: 1533
Flags: W
HStem: -15 38<247.945 450.231> 509 38<326.385 527.693>
Fore
690 265 m 0,0,1
 678 201 678 201 645 149 c 128,-1,2
 612 97 612 97 564.5 61 c 128,-1,3
 517 25 517 25 458.5 5 c 128,-1,4
 400 -15 400 -15 337 -15 c 256,5,6
 274 -15 274 -15 223 5 c 128,-1,7
 172 25 172 25 137.5 61 c 128,-1,8
 103 97 103 97 87.5 149 c 128,-1,9
 72 201 72 201 84 265 c 0,10,11
 95 330 95 330 128 382 c 128,-1,12
 161 434 161 434 208.5 470.5 c 128,-1,13
 256 507 256 507 315 527 c 128,-1,14
 374 547 374 547 437 547 c 0,15,16
 501 547 501 547 552.5 528 c 128,-1,17
 604 509 604 509 638.5 472 c 128,-1,18
 673 435 673 435 687 383 c 128,-1,19
 701 331 701 331 690 265 c 0,0,1
604 265 m 256,20,21
 613 317 613 317 608.5 362.5 c 128,-1,22
 604 408 604 408 583.5 440 c 128,-1,23
 563 472 563 472 525.5 490.5 c 128,-1,24
 488 509 488 509 431 509 c 0,25,26
 373 509 373 509 329 490.5 c 128,-1,27
 285 472 285 472 253 440 c 128,-1,28
 221 408 221 408 201 363.5 c 128,-1,29
 181 319 181 319 172 267 c 256,30,31
 163 215 163 215 167.5 170.5 c 128,-1,32
 172 126 172 126 192.5 93 c 128,-1,33
 213 60 213 60 250.5 41.5 c 128,-1,34
 288 23 288 23 347 23 c 0,35,36
 403 23 403 23 447 41.5 c 128,-1,37
 491 60 491 60 523 92 c 128,-1,38
 555 124 555 124 575 168.5 c 128,-1,39
 595 213 595 213 604 265 c 256,20,21
EndSplineSet
EndChar
StartChar: p
Encoding: 112 112 81
Width: 668
VWidth: 1533
Flags: W
HStem: -198 21G<34 107.541> -20 37<264.186 437.495> 509 38<344.282 518.565>
VStem: 163 56<501.694 532>
Fore
684 264 m 0,0,1
 673 202 673 202 644 150 c 128,-1,2
 615 98 615 98 572 60.5 c 128,-1,3
 529 23 529 23 474.5 1.5 c 128,-1,4
 420 -20 420 -20 357 -20 c 0,5,6
 284 -20 284 -20 231 10.5 c 128,-1,7
 178 41 178 41 158 107 c 1,8,-1
 104 -198 l 1,9,-1
 34 -198 l 1,10,-1
 163 532 l 1,11,-1
 219 532 l 1,12,-1
 213 432 l 1,13,14
 259 492 259 492 323.5 519.5 c 128,-1,15
 388 547 388 547 457 547 c 0,16,17
 517 547 517 547 563.5 525 c 128,-1,18
 610 503 610 503 640 464 c 128,-1,19
 670 425 670 425 682.5 373.5 c 128,-1,20
 695 322 695 322 684 264 c 0,0,1
599 267 m 256,21,22
 607 313 607 313 601 356 c 128,-1,23
 595 399 595 399 574 433.5 c 128,-1,24
 553 468 553 468 518 488.5 c 128,-1,25
 483 509 483 509 432 509 c 0,26,27
 385 509 385 509 343.5 487.5 c 128,-1,28
 302 466 302 466 270 431.5 c 128,-1,29
 238 397 238 397 215.5 353.5 c 128,-1,30
 193 310 193 310 186 267 c 0,31,32
 178 222 178 222 184 177.5 c 128,-1,33
 190 133 190 133 209 98 c 128,-1,34
 228 63 228 63 262 40 c 128,-1,35
 296 17 296 17 345 17 c 0,36,37
 396 17 396 17 438.5 38.5 c 128,-1,38
 481 60 481 60 514 96 c 128,-1,39
 547 132 547 132 569.5 176.5 c 128,-1,40
 592 221 592 221 599 267 c 256,21,22
EndSplineSet
EndChar
StartChar: q
Encoding: 113 113 82
Width: 668
VWidth: 1533
Flags: W
HStem: -198 21G<494 567.534> -20 37<240.666 417.195> 509 38<320.711 494.971>
Fore
494 -198 m 1,0,-1
 547 107 l 1,1,2
 504 41 504 41 440 10.5 c 128,-1,3
 376 -20 376 -20 302 -20 c 0,4,5
 239 -20 239 -20 192.5 1.5 c 128,-1,6
 146 23 146 23 116 60.5 c 128,-1,7
 86 98 86 98 76 150 c 128,-1,8
 66 202 66 202 77 264 c 0,9,10
 87 322 87 322 117 373.5 c 128,-1,11
 147 425 147 425 191 464 c 128,-1,12
 235 503 235 503 288.5 525 c 128,-1,13
 342 547 342 547 402 547 c 0,14,15
 471 547 471 547 525.5 519.5 c 128,-1,16
 580 492 580 492 606 432 c 1,17,-1
 636 532 l 1,18,-1
 693 532 l 1,19,-1
 564 -198 l 1,20,-1
 494 -198 l 1,0,-1
575 267 m 256,21,22
 583 311 583 311 576.5 354 c 128,-1,23
 570 397 570 397 550 431.5 c 128,-1,24
 530 466 530 466 495.5 487.5 c 128,-1,25
 461 509 461 509 414 509 c 0,26,27
 363 509 363 509 321 488.5 c 128,-1,28
 279 468 279 468 246 433.5 c 128,-1,29
 213 399 213 399 191.5 356 c 128,-1,30
 170 313 170 313 163 267 c 256,31,32
 155 221 155 221 160.5 176.5 c 128,-1,33
 166 132 166 132 185.5 96 c 128,-1,34
 205 60 205 60 240.5 38.5 c 128,-1,35
 276 17 276 17 327 17 c 0,36,37
 376 17 376 17 418 39 c 128,-1,38
 460 61 460 61 492 97 c 128,-1,39
 524 133 524 133 545.5 177.5 c 128,-1,40
 567 222 567 222 575 267 c 256,21,22
EndSplineSet
EndChar
StartChar: r
Encoding: 114 114 83
Width: 366
VWidth: 1533
Flags: W
HStem: 0 21G<69 143.406> 514 20G<159.479 233>
VStem: 69 377<0 544 -109.902 0>
Fore
423 472 m 1,0,1
 400 481 400 481 380 481 c 0,2,3
 336 481 336 481 303 463.5 c 128,-1,4
 270 446 270 446 247 417 c 128,-1,5
 224 388 224 388 208.5 351 c 128,-1,6
 193 314 193 314 187 276 c 2,7,-1
 140 0 l 1,8,-1
 69 0 l 1,9,-1
 163 534 l 1,10,-1
 233 534 l 1,11,-1
 212 415 l 1,12,13
 227 443 227 443 251.5 467.5 c 128,-1,14
 276 492 276 492 304.5 510.5 c 128,-1,15
 333 529 333 529 364.5 538 c 128,-1,16
 396 547 396 547 423 546 c 2,17,-1
 446 544 l 1,18,-1
 423 472 l 1,0,1
EndSplineSet
EndChar
StartChar: s
Encoding: 115 115 84
Width: 591
VWidth: 1533
Flags: W
HStem: -18 38<252.715 351.141> 505 35.5<282.297 319 335 354.5 354.5 368.27 361.385 460.305>
VStem: 64 76<96.2675 152> 540 75<379 452.348>
Fore
580 153 m 0,0,1
 570 101 570 101 539.5 68 c 128,-1,2
 509 35 509 35 467.5 16 c 128,-1,3
 426 -3 426 -3 379.5 -10.5 c 128,-1,4
 333 -18 333 -18 291 -18 c 0,5,6
 251 -18 251 -18 211.5 -8 c 128,-1,7
 172 2 172 2 139.5 22.5 c 128,-1,8
 107 43 107 43 85.5 75 c 128,-1,9
 64 107 64 107 64 152 c 1,10,-1
 140 152 l 1,11,12
 140 120 140 120 153 95.5 c 128,-1,13
 166 71 166 71 189 54 c 128,-1,14
 212 37 212 37 240 28.5 c 128,-1,15
 268 20 268 20 299 20 c 0,16,17
 328 20 328 20 361 24.5 c 128,-1,18
 394 29 394 29 423 41.5 c 128,-1,19
 452 54 452 54 473.5 76 c 128,-1,20
 495 98 495 98 501 133 c 0,21,22
 507 164 507 164 492.5 182.5 c 128,-1,23
 478 201 478 201 452 213 c 0,24,25
 440 219 440 219 424 223 c 128,-1,26
 408 227 408 227 391 230 c 0,27,28
 373 233 373 233 354.5 237 c 128,-1,29
 336 241 336 241 319 244 c 0,30,31
 281 250 281 250 245 259 c 128,-1,32
 209 268 209 268 182.5 285 c 128,-1,33
 156 302 156 302 142.5 329 c 128,-1,34
 129 356 129 356 136 399 c 256,35,36
 144 442 144 442 172.5 471 c 128,-1,37
 201 500 201 500 239.5 517 c 128,-1,38
 278 534 278 534 319 540.5 c 128,-1,39
 360 547 360 547 396 547 c 0,40,41
 435 547 435 547 474.5 538 c 128,-1,42
 514 529 514 529 545 508.5 c 128,-1,43
 576 488 576 488 595.5 456.5 c 128,-1,44
 615 425 615 425 615 379 c 1,45,-1
 540 379 l 1,46,47
 540 443 540 443 494.5 476 c 128,-1,48
 449 509 449 509 388 509 c 0,49,50
 363 509 363 509 335 505 c 128,-1,51
 307 501 307 501 281.5 491 c 128,-1,52
 256 481 256 481 237 462 c 128,-1,53
 218 443 218 443 213 414 c 0,54,55
 207 380 207 380 221 360 c 128,-1,56
 235 340 235 340 261 328 c 0,57,58
 290 314 290 314 326.5 307.5 c 128,-1,59
 363 301 363 301 396 294 c 0,60,61
 432 287 432 287 468 279 c 128,-1,62
 504 271 504 271 531 256 c 128,-1,63
 558 241 558 241 572 216.5 c 128,-1,64
 586 192 586 192 580 153 c 0,0,1
EndSplineSet
EndChar
StartChar: t
Encoding: 116 116 85
Width: 335
VWidth: 1533
Flags: W
HStem: -9 43<224.41 311.5> 468 36<120 193 271 368 112 376 120 120>
VStem: 134 67.5<71.1289 137.375>
Fore
334 9 m 1,0,1
 288 -9 288 -9 245 -9 c 0,2,3
 205 -9 205 -9 181.5 4.5 c 128,-1,4
 158 18 158 18 146.5 42 c 128,-1,5
 135 66 135 66 134 96.5 c 128,-1,6
 133 127 133 127 140 161 c 2,7,-1
 193 468 l 1,8,-1
 112 468 l 1,9,-1
 120 504 l 1,10,-1
 193 504 l 1,11,-1
 278 656 l 1,12,-1
 297 656 l 1,13,-1
 271 504 l 1,14,-1
 376 504 l 1,15,-1
 368 468 l 1,16,-1
 264 468 l 1,17,-1
 205 138 l 2,18,19
 202 118 202 118 201.5 99.5 c 128,-1,20
 201 81 201 81 206.5 66.5 c 128,-1,21
 212 52 212 52 225 43 c 128,-1,22
 238 34 238 34 261 34 c 0,23,24
 281 34 281 34 300 40 c 128,-1,25
 319 46 319 46 342 57 c 1,26,-1
 334 9 l 1,0,1
EndSplineSet
EndChar
StartChar: u
Encoding: 117 117 86
Width: 642
VWidth: 1533
Flags: W
HStem: -17 38<268.307 371.125> 514 20G<159.409 236 592.478 667>
Fore
503 0 m 1,0,-1
 520 100 l 1,1,2
 503 75 503 75 478.5 54.5 c 128,-1,3
 454 34 454 34 426.5 18 c 128,-1,4
 399 2 399 2 369 -7.5 c 128,-1,5
 339 -17 339 -17 311 -17 c 0,6,7
 267 -17 267 -17 224 -7 c 128,-1,8
 181 3 181 3 150.5 25.5 c 128,-1,9
 120 48 120 48 104.5 84 c 128,-1,10
 89 120 89 120 98 172 c 2,11,-1
 163 534 l 1,12,-1
 236 534 l 1,13,-1
 170 163 l 2,14,15
 164 127 164 127 174 100.5 c 128,-1,16
 184 74 184 74 204.5 56 c 128,-1,17
 225 38 225 38 254.5 29.5 c 128,-1,18
 284 21 284 21 317 21 c 0,19,20
 360 21 360 21 398.5 39 c 128,-1,21
 437 57 437 57 467 87 c 128,-1,22
 497 117 497 117 516 155 c 128,-1,23
 535 193 535 193 543 233 c 2,24,-1
 596 534 l 1,25,-1
 667 534 l 1,26,-1
 573 0 l 1,27,-1
 503 0 l 1,0,-1
EndSplineSet
EndChar
StartChar: v
Encoding: 118 118 87
Width: 579
VWidth: 1533
Flags: W
HStem: -17 21G<277.249 307.575> 514 20G<98 184.788 613.333 668>
Fore
294 -17 m 1,0,-1
 284 -17 l 1,1,-1
 98 534 l 1,2,-1
 178 534 l 1,3,-1
 327 95 l 1,4,-1
 627 534 l 1,5,-1
 668 534 l 1,6,-1
 294 -17 l 1,0,-1
EndSplineSet
EndChar
StartChar: w
Encoding: 119 119 88
Width: 898
VWidth: 1533
Flags: W
HStem: -17 21G<249.301 276.963 624.907 653.559> 514 20G<98 180.5 541.475 569.056 933.643 987>
Fore
641 -17 m 1,0,-1
 630 -17 l 1,1,-1
 521 411 l 1,2,-1
 265 -17 l 1,3,-1
 255 -17 l 1,4,-1
 98 534 l 1,5,-1
 175 534 l 1,6,-1
 296 94 l 1,7,-1
 553 540 l 1,8,-1
 564 540 l 1,9,-1
 676 97 l 1,10,-1
 946 534 l 1,11,-1
 987 534 l 1,12,-1
 641 -17 l 1,0,-1
EndSplineSet
EndChar
StartChar: x
Encoding: 120 120 89
Width: 544
VWidth: 1533
Flags: W
HStem: 0 21G<5 71.3347 443.36 540> 514 20G<98 194.273 529.727 596>
Fore
457 0 m 1,0,-1
 294 239 l 1,1,-1
 51 0 l 1,2,-1
 5 0 l 1,3,-1
 276 267 l 1,4,-1
 98 534 l 1,5,-1
 181 534 l 1,6,-1
 327 314 l 1,7,-1
 550 534 l 1,8,-1
 596 534 l 1,9,-1
 345 288 l 1,10,-1
 540 0 l 1,11,-1
 457 0 l 1,0,-1
EndSplineSet
EndChar
StartChar: y
Encoding: 121 121 90
Width: 584
VWidth: 1533
Flags: W
HStem: -202 49<51.6193 134.547> 514 20G<98 184.847 616.487 673>
Fore
69 -202 m 0,0,1
 48 -202 48 -202 22.5 -196 c 128,-1,2
 -3 -190 -3 -190 -20 -175 c 1,3,-1
 21 -120 l 1,4,5
 34 -140 34 -140 48.5 -146.5 c 128,-1,6
 63 -153 63 -153 83 -153 c 0,7,8
 109 -153 109 -153 139 -138 c 128,-1,9
 169 -123 169 -123 195 -99 c 128,-1,10
 221 -75 221 -75 239.5 -46.5 c 128,-1,11
 258 -18 258 -18 262 6 c 0,12,13
 265 23 265 23 263 38.5 c 128,-1,14
 261 54 261 54 256 71 c 2,15,-1
 98 534 l 1,16,-1
 178 534 l 1,17,-1
 330 90 l 1,18,-1
 630 534 l 1,19,-1
 673 534 l 1,20,-1
 301 -15 l 2,21,22
 276 -51 276 -51 249 -84.5 c 128,-1,23
 222 -118 222 -118 192.5 -144 c 128,-1,24
 163 -170 163 -170 132 -186 c 128,-1,25
 101 -202 101 -202 69 -202 c 0,0,1
EndSplineSet
EndChar
StartChar: z
Encoding: 122 122 91
Width: 544
VWidth: 1533
Flags: W
HStem: 0 40<136 495> 495 39<170 501>
Fore
136 40 m 1,0,-1
 518 40 l 1,1,-1
 495 0 l 1,2,-1
 15 0 l 1,3,-1
 501 495 l 1,4,-1
 150 495 l 1,5,-1
 170 534 l 1,6,-1
 622 534 l 1,7,-1
 136 40 l 1,0,-1
EndSplineSet
EndChar
StartChar: braceleft
Encoding: 123 123 92
Width: 387
VWidth: 1533
Flags: W
HStem: -209 19<225.778 278> 721 20<378.507 440>
VStem: 135.5 79.5<-142.898 -51.3728>
Fore
278 -209 m 1,0,1
 196 -209 196 -209 166 -178 c 128,-1,2
 136 -147 136 -147 135.5 -99.5 c 128,-1,3
 135 -52 135 -52 150.5 4.5 c 128,-1,4
 166 61 166 61 176 114 c 128,-1,5
 186 167 186 167 177.5 207.5 c 128,-1,6
 169 248 169 248 120 265 c 1,7,8
 173 281 173 281 196 323 c 128,-1,9
 219 365 219 365 227.5 417 c 128,-1,10
 236 469 236 469 240.5 526.5 c 128,-1,11
 245 584 245 584 263 631.5 c 128,-1,12
 281 679 281 679 321.5 710 c 128,-1,13
 362 741 362 741 445 741 c 1,14,-1
 440 721 l 1,15,16
 392 721 392 721 370 691 c 128,-1,17
 348 661 348 661 338 615 c 128,-1,18
 328 569 328 569 322.5 513.5 c 128,-1,19
 317 458 317 458 304 407.5 c 128,-1,20
 291 357 291 357 263 318 c 128,-1,21
 235 279 235 279 179 267 c 1,22,23
 230 255 230 255 244 215.5 c 128,-1,24
 258 176 258 176 253 125.5 c 128,-1,25
 248 75 248 75 234.5 19 c 128,-1,26
 221 -37 221 -37 215 -83.5 c 128,-1,27
 209 -130 209 -130 221 -160 c 128,-1,28
 233 -190 233 -190 281 -190 c 1,29,-1
 278 -209 l 1,0,1
EndSplineSet
EndChar
StartChar: bar
Encoding: 124 124 93
Width: 263
VWidth: 1533
Flags: W
VStem: 49 262<-279 839 -279 -279>
Fore
49 -279 m 1,0,-1
 247 839 l 1,1,-1
 311 839 l 1,2,-1
 113 -279 l 1,3,-1
 49 -279 l 1,0,-1
EndSplineSet
EndChar
StartChar: braceright
Encoding: 125 125 94
Width: 387
VWidth: 1533
Flags: W
HStem: -209 19<40 100.123> 721 20<204 253.122>
VStem: 37 323<-209 265 -209 -209> 225.5 72<338.219 442.689>
Fore
360 265 m 1,0,1
 305 248 305 248 282 207 c 128,-1,2
 259 166 259 166 250 113 c 128,-1,3
 241 60 241 60 238 3 c 128,-1,4
 235 -54 235 -54 217 -100.5 c 128,-1,5
 199 -147 199 -147 158.5 -178 c 128,-1,6
 118 -209 118 -209 37 -209 c 1,7,-1
 40 -190 l 1,8,9
 86 -190 86 -190 108 -160 c 128,-1,10
 130 -130 130 -130 141 -83.5 c 128,-1,11
 152 -37 152 -37 157.5 18.5 c 128,-1,12
 163 74 163 74 176 124.5 c 128,-1,13
 189 175 189 175 216.5 214 c 128,-1,14
 244 253 244 253 299 267 c 1,15,16
 248 279 248 279 234.5 318 c 128,-1,17
 221 357 221 357 225.5 407.5 c 128,-1,18
 230 458 230 458 244 513.5 c 128,-1,19
 258 569 258 569 264 615 c 128,-1,20
 270 661 270 661 258.5 691 c 128,-1,21
 247 721 247 721 199 721 c 1,22,-1
 204 741 l 1,23,24
 265 741 265 741 296 723 c 128,-1,25
 327 705 327 705 338.5 675 c 128,-1,26
 350 645 350 645 345 607 c 128,-1,27
 340 569 340 569 330 527.5 c 128,-1,28
 320 486 320 486 309.5 444 c 128,-1,29
 299 402 299 402 297.5 366.5 c 128,-1,30
 296 331 296 331 310 304.5 c 128,-1,31
 324 278 324 278 360 265 c 1,0,1
EndSplineSet
EndChar
StartChar: asciitilde
Encoding: 126 126 95
Width: 686
VWidth: 1533
Flags: W
HStem: 222 62<463.82 569.634> 297 63<212.277 315.457>
Fore
658 317 m 1,0,1
 622 279 622 279 586 250.5 c 128,-1,2
 550 222 550 222 500 222 c 0,3,4
 468 222 468 222 441 233.5 c 128,-1,5
 414 245 414 245 388.5 259.5 c 128,-1,6
 363 274 363 274 335.5 285.5 c 128,-1,7
 308 297 308 297 273 297 c 0,8,9
 233 297 233 297 209.5 272.5 c 128,-1,10
 186 248 186 248 163 218 c 1,11,-1
 130 265 l 1,12,13
 167 307 167 307 200 333.5 c 128,-1,14
 233 360 233 360 290 360 c 0,15,16
 320 360 320 360 350 348 c 128,-1,17
 380 336 380 336 407.5 322 c 128,-1,18
 435 308 435 308 461.5 296 c 128,-1,19
 488 284 488 284 512 284 c 0,20,21
 547 284 547 284 575 310.5 c 128,-1,22
 603 337 603 337 624 363 c 1,23,-1
 658 317 l 1,0,1
EndSplineSet
EndChar
StartChar: uni0E33.alt1
Encoding: 65539 -1 96
Width: 573
VWidth: 1533
Flags: W
HStem: 0 21G<420 500.495> 593 31<270.283 446.31> 690 37<-269.165 -156.441> 895 40<-246.591 -133.84>
Fore
-78 813 m 256,0,1
 -87 762 -87 762 -129.5 726 c 128,-1,2
 -172 690 -172 690 -222 690 c 256,3,4
 -273 690 -273 690 -303 726 c 128,-1,5
 -333 762 -333 762 -324 813 c 256,6,7
 -314 863 -314 863 -272 899 c 128,-1,8
 -230 935 -230 935 -179 935 c 256,9,10
 -129 935 -129 935 -99 899 c 128,-1,11
 -69 863 -69 863 -78 813 c 256,0,1
420 0 m 1,12,-1
 494 422 l 2,13,14
 506 495 506 495 474.5 544 c 128,-1,15
 443 593 443 593 359 593 c 0,16,17
 313 593 313 593 279 579.5 c 128,-1,18
 245 566 245 566 220.5 543 c 128,-1,19
 196 520 196 520 179.5 492.5 c 128,-1,20
 163 465 163 465 153 437 c 1,21,-1
 75 437 l 1,22,23
 103 518 103 518 177 571 c 128,-1,24
 251 624 251 624 363 624 c 0,25,26
 472 624 472 624 530.5 573.5 c 128,-1,27
 589 523 589 523 569 412 c 2,28,-1
 497 0 l 1,29,-1
 420 0 l 1,12,-1
-117 811 m 128,-1,31
 -110 846 -110 846 -131 870.5 c 128,-1,32
 -152 895 -152 895 -187 895 c 256,33,34
 -222 895 -222 895 -250.5 870.5 c 128,-1,35
 -279 846 -279 846 -285 811 c 0,36,37
 -293 776 -293 776 -272 751.5 c 128,-1,38
 -251 727 -251 727 -216 727 c 256,39,40
 -181 727 -181 727 -152.5 751.5 c 128,-1,30
 -124 776 -124 776 -117 811 c 128,-1,31
EndSplineSet
EndChar
StartChar: quotedbl
Encoding: 34 34 97
Width: 377
VWidth: 1533
Flags: W
HStem: 386 351<345 399 399 399>
VStem: 167 262<386 688 386 386>
Fore
429 688 m 0,0,1
 415 615 415 615 390 537.5 c 128,-1,2
 365 460 365 460 345 386 c 1,3,-1
 330 386 l 1,4,5
 336 460 336 460 338 537.5 c 128,-1,6
 340 615 340 615 353 688 c 0,7,8
 356 707 356 707 366.5 722 c 128,-1,9
 377 737 377 737 399 737 c 256,10,11
 420 737 420 737 426 721 c 128,-1,12
 432 705 432 705 429 688 c 0,0,1
267 688 m 0,13,14
 253 615 253 615 228.5 537.5 c 128,-1,15
 204 460 204 460 182 386 c 1,16,-1
 167 386 l 1,17,18
 172 460 172 460 175 538 c 128,-1,19
 178 616 178 616 190 690 c 0,20,21
 193 708 193 708 204.5 722.5 c 128,-1,22
 216 737 216 737 238 737 c 256,23,24
 259 737 259 737 264.5 721 c 128,-1,25
 270 705 270 705 267 688 c 0,13,14
EndSplineSet
EndChar
StartChar: exclam
Encoding: 33 33 98
Width: 315
VWidth: 1533
Flags: W
HStem: -15 102<137.079 196.437> 719 20G<279 297.5>
Fore
325 642 m 0,0,1
 297 514 297 514 259 385 c 128,-1,2
 221 256 221 256 186 129 c 1,3,-1
 173 129 l 1,4,5
 184 255 184 255 188.5 385 c 128,-1,6
 193 515 193 515 215 642 c 0,7,8
 218 656 218 656 222.5 673 c 128,-1,9
 227 690 227 690 235.5 704.5 c 128,-1,10
 244 719 244 719 257 729 c 128,-1,11
 270 739 270 739 288 739 c 256,12,13
 307 739 307 739 316 729 c 128,-1,14
 325 719 325 719 328 704.5 c 128,-1,15
 331 690 331 690 329.5 673 c 128,-1,16
 328 656 328 656 325 642 c 0,0,1
218 37 m 256,17,18
 215 15 215 15 197 0 c 128,-1,19
 179 -15 179 -15 158 -15 c 256,20,21
 136 -15 136 -15 124 0 c 128,-1,22
 112 15 112 15 115 37 c 256,23,24
 118 58 118 58 136.5 72.5 c 128,-1,25
 155 87 155 87 176 87 c 0,26,27
 196 87 196 87 208.5 72.5 c 128,-1,28
 221 58 221 58 218 37 c 256,17,18
EndSplineSet
EndChar
StartChar: uni0E4E.alt1
Encoding: 65540 -1 99
Width: 0
VWidth: 1533
Flags: W
HStem: 653 31<-132.084 -98.9885> 972 31<-66 -42.7014 -40.2963 -18.2876 -18.2876 26>
VStem: -308 90<719.728 782.572>
Fore
38 1006 m 1,0,-1
 26 977 l 1,1,2
 -26 986 -26 986 -66 972 c 128,-1,3
 -106 958 -106 958 -113 915 c 0,4,5
 -118 892 -118 892 -96 872 c 128,-1,6
 -74 852 -74 852 -44 851 c 1,7,-1
 -57 828 l 1,8,9
 -115 822 -115 822 -162.5 803.5 c 128,-1,10
 -210 785 -210 785 -218 742 c 0,11,12
 -221 725 -221 725 -209.5 713 c 128,-1,13
 -198 701 -198 701 -178.5 694 c 128,-1,14
 -159 687 -159 687 -133 684 c 128,-1,15
 -107 681 -107 681 -81 684 c 1,16,-1
 -97 653 l 1,17,18
 -136 649 -136 649 -176 648 c 128,-1,19
 -216 647 -216 647 -247.5 656 c 128,-1,20
 -279 665 -279 665 -296.5 686 c 128,-1,21
 -314 707 -314 707 -308 742 c 0,22,23
 -299 793 -299 793 -247.5 816.5 c 128,-1,24
 -196 840 -196 840 -126 846 c 1,25,26
 -138 849 -138 849 -151 854.5 c 128,-1,27
 -164 860 -164 860 -174 868.5 c 128,-1,28
 -184 877 -184 877 -189.5 890 c 128,-1,29
 -195 903 -195 903 -192 921 c 0,30,31
 -186 954 -186 954 -164.5 974 c 128,-1,32
 -143 994 -143 994 -111.5 1003 c 128,-1,33
 -80 1012 -80 1012 -41.5 1012.5 c 128,-1,34
 -3 1013 -3 1013 38 1006 c 1,0,-1
EndSplineSet
EndChar
StartChar: exclamdown
Encoding: 161 161 100
Width: 286
VWidth: 1533
Flags: W
HStem: 498 103<208.048 266.952>
VStem: 74.5 215.5<-115 550 -115 -115> 187 103<525.266 588.411>
Fore
216 460 m 1,0,-1
 230 460 l 1,1,-1
 192 -31 l 2,2,3
 190 -52 190 -52 185.5 -73.5 c 128,-1,4
 181 -95 181 -95 172 -112.5 c 128,-1,5
 163 -130 163 -130 149 -141.5 c 128,-1,6
 135 -153 135 -153 115 -153 c 256,7,8
 95 -153 95 -153 86 -142.5 c 128,-1,9
 77 -132 77 -132 74.5 -115 c 128,-1,10
 72 -98 72 -98 75 -76 c 128,-1,11
 78 -54 78 -54 84 -31 c 2,12,-1
 216 460 l 1,0,-1
187 550 m 0,13,14
 190 572 190 572 207.5 586.5 c 128,-1,15
 225 601 225 601 247 601 c 256,16,17
 268 601 268 601 280.5 586.5 c 128,-1,18
 293 572 293 572 290 550 c 0,19,20
 285 529 285 529 267.5 513.5 c 128,-1,21
 250 498 250 498 228 498 c 256,22,23
 207 498 207 498 194.5 513.5 c 128,-1,24
 182 529 182 529 187 550 c 0,13,14
EndSplineSet
EndChar
StartChar: cent
Encoding: 162 162 101
Width: 601
VWidth: 1533
Flags: W
HStem: -18 21G<316 357.54> 95 32<277.371 336> 560 29<359.126 423 461 512.094> 687 20G<441.271 483>
Fore
354 -18 m 1,0,-1
 316 -18 l 1,1,-1
 336 95 l 1,2,3
 285 98 285 98 243.5 118 c 128,-1,4
 202 138 202 138 174.5 170 c 128,-1,5
 147 202 147 202 135.5 246 c 128,-1,6
 124 290 124 290 133 342 c 256,7,8
 143 394 143 394 170.5 437.5 c 128,-1,9
 198 481 198 481 237 513.5 c 128,-1,10
 276 546 276 546 324.5 566 c 128,-1,11
 373 586 373 586 423 589 c 1,12,-1
 445 707 l 1,13,-1
 483 707 l 1,14,-1
 461 589 l 1,15,16
 537 584 537 584 589 549.5 c 128,-1,17
 641 515 641 515 649 448 c 1,18,-1
 573 448 l 1,19,20
 561 504 561 504 522 532 c 128,-1,21
 483 560 483 560 434 560 c 0,22,23
 394 560 394 560 358 543 c 128,-1,24
 322 526 322 526 293 497 c 128,-1,25
 264 468 264 468 243 429.5 c 128,-1,26
 222 391 222 391 215 348 c 0,27,28
 196 248 196 248 237.5 187.5 c 128,-1,29
 279 127 279 127 357 127 c 0,30,31
 408 127 408 127 456 154 c 128,-1,32
 504 181 504 181 537 238 c 1,33,-1
 612 238 l 1,34,35
 581 170 581 170 515 135 c 128,-1,36
 449 100 449 100 374 95 c 1,37,-1
 354 -18 l 1,0,-1
EndSplineSet
EndChar
StartChar: sterling
Encoding: 163 163 102
Width: 716
VWidth: 1533
Flags: W
HStem: -18 84<521.326 598.527> -15 41<79.736 152.557> 166 26<136.587 227.215 226.304 228.125 228.125 246 253.5 289.374> 348 34<222 304 405 564> 547 21G<648 702.484> 664 29<461.507 572.452>
VStem: 305.5 96.5<194.271 199.5 199.5 208.758 208.758 218 256 288.029 382 395.744> 308 98<260.041 319.232 319.232 326.273 326.273 348>
Fore
290 149 m 1,0,1
 270 158 270 158 246 162 c 128,-1,2
 222 166 222 166 195 166 c 0,3,4
 150 166 150 166 113.5 143 c 128,-1,5
 77 120 77 120 69 78 c 0,6,7
 64 49 64 49 85 37.5 c 128,-1,8
 106 26 106 26 140 26 c 0,9,10
 182 26 182 26 225 61.5 c 128,-1,11
 268 97 268 97 290 149 c 1,0,1
304 382 m 1,12,13
 301 405 301 405 300 429.5 c 128,-1,14
 299 454 299 454 305 484 c 0,15,16
 322 581 322 581 385 637 c 128,-1,17
 448 693 448 693 540 693 c 0,18,19
 610 693 610 693 660.5 667.5 c 128,-1,20
 711 642 711 642 733 578 c 1,21,-1
 647 547 l 1,22,23
 649 576 649 576 639 598.5 c 128,-1,24
 629 621 629 621 609 635.5 c 128,-1,25
 589 650 589 650 563 657 c 128,-1,26
 537 664 537 664 509 664 c 0,27,28
 486 664 486 664 464 654.5 c 128,-1,29
 442 645 442 645 423.5 630.5 c 128,-1,30
 405 616 405 616 392 596 c 128,-1,31
 379 576 379 576 376 557 c 0,32,33
 365 503 365 503 375.5 462.5 c 128,-1,34
 386 422 386 422 396 382 c 1,35,-1
 584 382 l 1,36,-1
 564 348 l 1,37,-1
 405 348 l 1,38,39
 406 327 406 327 406 304.5 c 128,-1,40
 406 282 406 282 402 256 c 0,41,42
 392 207 392 207 362 164 c 1,43,44
 397 150 397 150 424.5 132.5 c 128,-1,45
 452 115 452 115 476 100.5 c 128,-1,46
 500 86 500 86 523.5 76 c 128,-1,47
 547 66 547 66 573 66 c 0,48,49
 629 66 629 66 667 98 c 128,-1,50
 705 130 705 130 733 175 c 1,51,-1
 748 169 l 1,52,53
 733 133 733 133 710 99.5 c 128,-1,54
 687 66 687 66 658 40 c 128,-1,55
 629 14 629 14 593.5 -2 c 128,-1,56
 558 -18 558 -18 518 -18 c 0,57,58
 486 -18 486 -18 463 -4.5 c 128,-1,59
 440 9 440 9 419.5 30.5 c 128,-1,60
 399 52 399 52 379 76.5 c 128,-1,61
 359 101 359 101 333 123 c 1,62,63
 308 95 308 95 278 69.5 c 128,-1,64
 248 44 248 44 216 25 c 128,-1,65
 184 6 184 6 152 -4.5 c 128,-1,66
 120 -15 120 -15 89 -15 c 0,67,68
 71 -15 71 -15 53 -9 c 128,-1,69
 35 -3 35 -3 22 8.5 c 128,-1,70
 9 20 9 20 2 34.5 c 128,-1,71
 -5 49 -5 49 -2 67 c 0,72,73
 3 97 3 97 23 120.5 c 128,-1,74
 43 144 43 144 71.5 159.5 c 128,-1,75
 100 175 100 175 133.5 183.5 c 128,-1,76
 167 192 167 192 199 192 c 0,77,78
 228 192 228 192 253.5 189 c 128,-1,79
 279 186 279 186 301 181 c 1,80,81
 304 190 304 190 305.5 199.5 c 128,-1,82
 307 209 307 209 310 218 c 0,83,84
 317 258 317 258 314 289 c 128,-1,85
 311 320 311 320 308 348 c 1,86,-1
 202 348 l 1,87,-1
 222 382 l 1,88,-1
 304 382 l 1,12,13
EndSplineSet
EndChar
StartChar: currency
Encoding: 164 164 103
Width: 716
VWidth: 1533
Flags: W
HStem: 69 52<288.921 463.577> 566 50<368.634 541.489>
Fore
455 566 m 256,0,1
 409 566 409 566 365.5 548 c 128,-1,2
 322 530 322 530 286 499.5 c 128,-1,3
 250 469 250 469 225.5 429 c 128,-1,4
 201 389 201 389 193 343 c 256,5,6
 186 297 186 297 195.5 256.5 c 128,-1,7
 205 216 205 216 230 186 c 128,-1,8
 255 156 255 156 292.5 138.5 c 128,-1,9
 330 121 330 121 376 121 c 256,10,11
 422 121 422 121 465.5 138.5 c 128,-1,12
 509 156 509 156 544.5 186 c 128,-1,13
 580 216 580 216 605 256.5 c 128,-1,14
 630 297 630 297 638 343 c 256,15,16
 645 389 645 389 635.5 429 c 128,-1,17
 626 469 626 469 601 499.5 c 128,-1,18
 576 530 576 530 538.5 548 c 128,-1,19
 501 566 501 566 455 566 c 256,0,1
553 132 m 1,20,21
 512 101 512 101 464.5 85 c 128,-1,22
 417 69 417 69 366 69 c 0,23,24
 317 69 317 69 276.5 85 c 128,-1,25
 236 101 236 101 205 129 c 1,26,-1
 135 69 l 1,27,-1
 103 109 l 1,28,-1
 173 169 l 1,29,30
 150 204 150 204 141.5 248.5 c 128,-1,31
 133 293 133 293 143 343 c 0,32,33
 152 392 152 392 176.5 437.5 c 128,-1,34
 201 483 201 483 236 518 c 1,35,-1
 186 578 l 1,36,-1
 233 618 l 1,37,-1
 284 558 l 1,38,39
 324 586 324 586 369 601 c 128,-1,40
 414 616 414 616 463 616 c 256,41,42
 512 616 512 616 553.5 600 c 128,-1,43
 595 584 595 584 626 555 c 1,44,-1
 701 618 l 1,45,-1
 733 578 l 1,46,-1
 659 515 l 1,47,48
 681 480 681 480 689.5 436 c 128,-1,49
 698 392 698 392 690 343 c 0,50,51
 681 294 681 294 658 250.5 c 128,-1,52
 635 207 635 207 599 172 c 1,53,-1
 652 109 l 1,54,-1
 604 69 l 1,55,-1
 553 132 l 1,20,21
EndSplineSet
EndChar
StartChar: yen
Encoding: 165 165 104
Width: 702
VWidth: 1533
Flags: W
HStem: 181 29<172 333 420 584> 302 29<193 342 445 606>
Fore
445 331 m 1,0,-1
 612 331 l 1,1,-1
 606 302 l 1,2,-1
 435 302 l 1,3,-1
 420 210 l 1,4,-1
 590 210 l 1,5,-1
 584 181 l 1,6,-1
 414 181 l 1,7,-1
 383 2 l 1,8,-1
 302 2 l 1,9,-1
 333 181 l 1,10,-1
 166 181 l 1,11,-1
 172 210 l 1,12,-1
 339 210 l 1,13,-1
 354 302 l 1,14,-1
 187 302 l 1,15,-1
 193 331 l 1,16,-1
 342 331 l 1,17,-1
 130 698 l 1,18,-1
 219 698 l 1,19,-1
 420 350 l 1,20,-1
 770 698 l 1,21,-1
 817 698 l 1,22,-1
 445 331 l 1,0,-1
EndSplineSet
EndChar
StartChar: brokenbar
Encoding: 166 166 105
Width: 246
VWidth: 1533
Flags: W
HStem: -196 21G<60 120.472>
VStem: 60 224<-196 754 -576.035 -196>
Fore
227 754 m 1,0,-1
 284 754 l 1,1,-1
 216 370 l 1,2,-1
 159 370 l 1,3,-1
 227 754 l 1,0,-1
127 190 m 1,4,-1
 184 190 l 1,5,-1
 117 -196 l 1,6,-1
 60 -196 l 1,7,-1
 127 190 l 1,4,-1
EndSplineSet
EndChar
StartChar: section
Encoding: 167 167 106
Width: 613
VWidth: 1533
Flags: W
HStem: -175 34<216.937 338.84> 710 29<385.482 513.657>
VStem: 41 83<-39.0078 14>
Fore
259 452 m 1,0,1
 238 472 238 472 228 501 c 128,-1,2
 218 530 218 530 225 575 c 0,3,4
 233 618 233 618 256 649.5 c 128,-1,5
 279 681 279 681 311 701 c 128,-1,6
 343 721 343 721 381 730 c 128,-1,7
 419 739 419 739 455 739 c 0,8,9
 488 739 488 739 519 732 c 128,-1,10
 550 725 550 725 574.5 709 c 128,-1,11
 599 693 599 693 617 664.5 c 128,-1,12
 635 636 635 636 639 595 c 1,13,-1
 567 595 l 1,14,15
 564 659 564 659 532 684.5 c 128,-1,16
 500 710 500 710 451 710 c 0,17,18
 392 710 392 710 351.5 683 c 128,-1,19
 311 656 311 656 301 595 c 0,20,21
 293 550 293 550 314.5 524 c 128,-1,22
 336 498 336 498 371 481.5 c 128,-1,23
 406 465 406 465 450 451.5 c 128,-1,24
 494 438 494 438 529 419 c 128,-1,25
 564 400 564 400 584 368.5 c 128,-1,26
 604 337 604 337 595 285 c 256,27,28
 586 233 586 233 558 201 c 128,-1,29
 530 169 530 169 497 152 c 1,30,31
 527 133 527 133 543.5 99.5 c 128,-1,32
 560 66 560 66 552 20 c 0,33,34
 543 -28 543 -28 514.5 -64.5 c 128,-1,35
 486 -101 486 -101 444.5 -125.5 c 128,-1,36
 403 -150 403 -150 353.5 -162.5 c 128,-1,37
 304 -175 304 -175 253 -175 c 0,38,39
 212 -175 212 -175 172 -162.5 c 128,-1,40
 132 -150 132 -150 102 -125.5 c 128,-1,41
 72 -101 72 -101 54.5 -66.5 c 128,-1,42
 37 -32 37 -32 41 14 c 1,43,-1
 124 14 l 1,44,45
 120 -26 120 -26 128 -54.5 c 128,-1,46
 136 -83 136 -83 155.5 -103 c 128,-1,47
 175 -123 175 -123 201.5 -132 c 128,-1,48
 228 -141 228 -141 259 -141 c 0,49,50
 333 -141 333 -141 391 -111 c 128,-1,51
 449 -81 449 -81 463 -3 c 0,52,53
 471 41 471 41 446.5 65 c 128,-1,54
 422 89 422 89 379.5 103.5 c 128,-1,55
 337 118 337 118 288 129 c 128,-1,56
 239 140 239 140 198.5 158 c 128,-1,57
 158 176 158 176 134 210 c 128,-1,58
 110 244 110 244 121 304 c 0,59,60
 132 360 132 360 170.5 396 c 128,-1,61
 209 432 209 432 259 452 c 1,0,1
518 264 m 0,62,63
 526 310 526 310 503 333.5 c 128,-1,64
 480 357 480 357 441.5 372.5 c 128,-1,65
 403 388 403 388 358 400 c 128,-1,66
 313 412 313 412 278 434 c 1,67,68
 247 417 247 417 231.5 389.5 c 128,-1,69
 216 362 216 362 209 322 c 0,70,71
 201 278 201 278 224 254 c 128,-1,72
 247 230 247 230 287 216 c 128,-1,73
 327 202 327 202 375 193 c 128,-1,74
 423 184 423 184 465 167 c 1,75,76
 489 181 489 181 500 204 c 128,-1,77
 511 227 511 227 518 264 c 0,62,63
EndSplineSet
EndChar
StartChar: dieresis
Encoding: 168 168 107
Width: 392
VWidth: 1533
Flags: W
HStem: 673 112<196.626 260.89 387.595 452.405>
VStem: 172 112<689.502 765.852> 363 112<689.502 765.852>
Fore
172 728 m 0,0,1
 176 751 176 751 196 768 c 128,-1,2
 216 785 216 785 239 785 c 256,3,4
 262 785 262 785 275 768 c 128,-1,5
 288 751 288 751 284 728 c 0,6,7
 281 705 281 705 261.5 689 c 128,-1,8
 242 673 242 673 219 673 c 256,9,10
 196 673 196 673 182.5 689 c 128,-1,11
 169 705 169 705 172 728 c 0,0,1
363 728 m 0,12,13
 368 751 368 751 387 768 c 128,-1,14
 406 785 406 785 431 785 c 0,15,16
 454 785 454 785 467 768 c 128,-1,17
 480 751 480 751 475 728 c 0,18,19
 472 705 472 705 453 689 c 128,-1,20
 434 673 434 673 411 673 c 0,21,22
 386 673 386 673 373 689 c 128,-1,23
 360 705 360 705 363 728 c 0,12,13
EndSplineSet
EndChar
StartChar: copyright
Encoding: 169 169 108
Width: 896
VWidth: 1533
Flags: W
HStem: -23 48<340.089 571.027> 146 30<413.998 562.098> 546 30<474.899 607.278> 693 46<451.845 681.557>
Fore
900 357 m 256,0,1
 886 278 886 278 842.5 209 c 128,-1,2
 799 140 799 140 737 88.5 c 128,-1,3
 675 37 675 37 599 7 c 128,-1,4
 523 -23 523 -23 445 -23 c 256,5,6
 366 -23 366 -23 300.5 7 c 128,-1,7
 235 37 235 37 190.5 88.5 c 128,-1,8
 146 140 146 140 126.5 209 c 128,-1,9
 107 278 107 278 121 357 c 256,10,11
 135 437 135 437 178.5 506.5 c 128,-1,12
 222 576 222 576 284.5 627.5 c 128,-1,13
 347 679 347 679 423.5 709 c 128,-1,14
 500 739 500 739 578 739 c 256,15,16
 656 739 656 739 721.5 709 c 128,-1,17
 787 679 787 679 831 627 c 128,-1,18
 875 575 875 575 894.5 506 c 128,-1,19
 914 437 914 437 900 357 c 256,0,1
846 359 m 256,20,21
 859 426 859 426 842 486.5 c 128,-1,22
 825 547 825 547 787.5 593 c 128,-1,23
 750 639 750 639 694 666 c 128,-1,24
 638 693 638 693 570 693 c 256,25,26
 503 693 503 693 437 666 c 128,-1,27
 371 639 371 639 317.5 593 c 128,-1,28
 264 547 264 547 226.5 486.5 c 128,-1,29
 189 426 189 426 176 359 c 256,30,31
 164 291 164 291 180 230.5 c 128,-1,32
 196 170 196 170 234.5 124 c 128,-1,33
 273 78 273 78 329 51.5 c 128,-1,34
 385 25 385 25 452 25 c 0,35,36
 518 25 518 25 584 51.5 c 128,-1,37
 650 78 650 78 703.5 124 c 128,-1,38
 757 170 757 170 795.5 230.5 c 128,-1,39
 834 291 834 291 846 359 c 256,20,21
711 276 m 1,40,41
 678 205 678 205 613.5 175.5 c 128,-1,42
 549 146 549 146 480 146 c 0,43,44
 434 146 434 146 393.5 161 c 128,-1,45
 353 176 353 176 324.5 204.5 c 128,-1,46
 296 233 296 233 283 273 c 128,-1,47
 270 313 270 313 279 360 c 256,48,49
 288 408 288 408 315 448 c 128,-1,50
 342 488 342 488 380.5 517 c 128,-1,51
 419 546 419 546 465 561 c 128,-1,52
 511 576 511 576 557 576 c 0,53,54
 590 576 590 576 622.5 569.5 c 128,-1,55
 655 563 655 563 680 546.5 c 128,-1,56
 705 530 705 530 721 505.5 c 128,-1,57
 737 481 737 481 742 446 c 1,58,-1
 670 446 l 1,59,60
 661 491 661 491 628 518.5 c 128,-1,61
 595 546 595 546 546 546 c 0,62,63
 511 546 511 546 479.5 530 c 128,-1,64
 448 514 448 514 422.5 487.5 c 128,-1,65
 397 461 397 461 381 429 c 128,-1,66
 365 397 365 397 359 365 c 0,67,68
 353 330 353 330 356.5 296 c 128,-1,69
 360 262 360 262 375.5 236 c 128,-1,70
 391 210 391 210 417 193 c 128,-1,71
 443 176 443 176 481 176 c 0,72,73
 530 176 530 176 572.5 204 c 128,-1,74
 615 232 615 232 641 276 c 1,75,-1
 711 276 l 1,40,41
EndSplineSet
EndChar
StartChar: ordfeminine
Encoding: 170 170 109
Width: 401
VWidth: 1533
Flags: W
HStem: 337 370<264 268 225 324 500.232 506.313> 337 25<184.805 295.727> 541 26<292.188 386.172 386.828 400> 681 26<271.956 386.905>
VStem: 94 369<448 489 569 573 448 573 638.907 682.034>
Fore
383 347 m 1,0,1
 380 359 380 359 379.5 370.5 c 128,-1,2
 379 382 379 382 382 394 c 1,3,4
 347 360 347 360 307.5 348.5 c 128,-1,5
 268 337 268 337 225 337 c 0,6,7
 196 337 196 337 170 344 c 128,-1,8
 144 351 144 351 125.5 365 c 128,-1,9
 107 379 107 379 98 399.5 c 128,-1,10
 89 420 89 420 94 448 c 0,11,12
 100 484 100 484 126.5 507 c 128,-1,13
 153 530 153 530 190 544 c 128,-1,14
 227 558 227 558 268.5 562.5 c 128,-1,15
 310 567 310 567 345 567 c 2,16,-1
 366 567 l 2,17,18
 376 567 376 567 386.5 568 c 128,-1,19
 397 569 397 569 405 569 c 1,20,-1
 406 575 l 2,21,22
 414 618 414 618 395 649.5 c 128,-1,23
 376 681 376 681 319 681 c 0,24,25
 297 681 297 681 277.5 673 c 128,-1,26
 258 665 258 665 242.5 652 c 128,-1,27
 227 639 227 639 216 624 c 128,-1,28
 205 609 205 609 204 593 c 1,29,-1
 136 593 l 1,30,31
 163 658 163 658 213.5 682.5 c 128,-1,32
 264 707 264 707 324 707 c 0,33,34
 409 707 409 707 442 671.5 c 128,-1,35
 475 636 475 636 463 573 c 2,36,-1
 440 438 l 2,37,38
 431 386 431 386 443 347 c 1,39,-1
 383 347 l 1,0,1
340 541 m 2,40,41
 310 541 310 541 280 535.5 c 128,-1,42
 250 530 250 530 225.5 518.5 c 128,-1,43
 201 507 201 507 184 489 c 128,-1,44
 167 471 167 471 163 446 c 0,45,46
 156 412 156 412 181.5 387 c 128,-1,47
 207 362 207 362 248 362 c 0,48,49
 301 362 301 362 341.5 400 c 128,-1,50
 382 438 382 438 394 506 c 2,51,-1
 400 541 l 1,52,-1
 340 541 l 2,40,41
EndSplineSet
EndChar
StartChar: guillemotleft
Encoding: 171 171 110
Width: 561
VWidth: 1533
Flags: W
HStem: 75 432<230 307 307 307>
VStem: 124 417<291 472 291 291>
Fore
359 472 m 1,0,-1
 179 291 l 1,1,-1
 294 110 l 1,2,-1
 230 75 l 1,3,-1
 124 291 l 1,4,-1
 307 507 l 1,5,-1
 359 472 l 1,0,-1
541 472 m 1,6,-1
 362 291 l 1,7,-1
 477 110 l 1,8,-1
 412 75 l 1,9,-1
 308 291 l 1,10,-1
 489 507 l 1,11,-1
 541 472 l 1,6,-1
EndSplineSet
EndChar
StartChar: logicalnot
Encoding: 172 172 111
Width: 643
VWidth: 1533
Flags: W
HStem: 376 56<97 603>
Fore
603 376 m 1,0,-1
 87 376 l 1,1,-1
 97 432 l 1,2,-1
 668 432 l 1,3,-1
 615 129 l 1,4,-1
 558 129 l 1,5,-1
 603 376 l 1,0,-1
EndSplineSet
EndChar
StartChar: registered
Encoding: 174 174 112
Width: 896
VWidth: 1533
Flags: W
HStem: -23 48<340.089 571.027> 342 29<420 491.727 491.727 557.512> 534 29<449 513.181 513.181 568.497> 693 46<451.845 681.557>
VStem: 632 73<418.048 492.583>
Fore
900 357 m 256,0,1
 886 278 886 278 842.5 209 c 128,-1,2
 799 140 799 140 737 88.5 c 128,-1,3
 675 37 675 37 599 7 c 128,-1,4
 523 -23 523 -23 445 -23 c 256,5,6
 366 -23 366 -23 300.5 7 c 128,-1,7
 235 37 235 37 190.5 88.5 c 128,-1,8
 146 140 146 140 126.5 209 c 128,-1,9
 107 278 107 278 121 357 c 256,10,11
 135 437 135 437 178.5 506.5 c 128,-1,12
 222 576 222 576 284.5 627.5 c 128,-1,13
 347 679 347 679 423.5 709 c 128,-1,14
 500 739 500 739 578 739 c 256,15,16
 656 739 656 739 721.5 709 c 128,-1,17
 787 679 787 679 831 627.5 c 128,-1,18
 875 576 875 576 894.5 506.5 c 128,-1,19
 914 437 914 437 900 357 c 256,0,1
846 359 m 0,20,21
 857 426 857 426 841 486.5 c 128,-1,22
 825 547 825 547 787.5 593 c 128,-1,23
 750 639 750 639 694 666 c 128,-1,24
 638 693 638 693 570 693 c 256,25,26
 503 693 503 693 437 666 c 128,-1,27
 371 639 371 639 317.5 593 c 128,-1,28
 264 547 264 547 226.5 486.5 c 128,-1,29
 189 426 189 426 176 359 c 256,30,31
 164 291 164 291 180 230.5 c 128,-1,32
 196 170 196 170 234.5 124 c 128,-1,33
 273 78 273 78 329 51.5 c 128,-1,34
 385 25 385 25 452 25 c 0,35,36
 518 25 518 25 584 51.5 c 128,-1,37
 650 78 650 78 703.5 124 c 128,-1,38
 757 170 757 170 795.5 230.5 c 128,-1,39
 834 291 834 291 846 359 c 0,20,21
610 155 m 1,40,41
 598 173 598 173 593.5 205.5 c 128,-1,42
 589 238 589 238 581 267.5 c 128,-1,43
 573 297 573 297 558.5 319.5 c 128,-1,44
 544 342 544 342 515 342 c 2,45,-1
 415 342 l 1,46,-1
 382 155 l 1,47,-1
 320 155 l 1,48,-1
 392 563 l 1,49,-1
 520 563 l 2,50,51
 546 563 546 563 580.5 560 c 128,-1,52
 615 557 615 557 645 546 c 128,-1,53
 675 535 675 535 693 514.5 c 128,-1,54
 711 494 711 494 705 457 c 0,55,56
 702 435 702 435 689 417.5 c 128,-1,57
 676 400 676 400 657.5 387 c 128,-1,58
 639 374 639 374 617.5 365 c 128,-1,59
 596 356 596 356 578 353 c 1,60,61
 613 348 613 348 627 324.5 c 128,-1,62
 641 301 641 301 646.5 270 c 128,-1,63
 652 239 652 239 657 207 c 128,-1,64
 662 175 662 175 682 155 c 1,65,-1
 610 155 l 1,40,41
632 457 m 0,66,67
 636 486 636 486 623 502 c 128,-1,68
 610 518 610 518 587 525 c 128,-1,69
 564 532 564 532 537.5 533 c 128,-1,70
 511 534 511 534 489 534 c 2,71,-1
 449 534 l 1,72,-1
 420 371 l 1,73,-1
 466 371 l 2,74,75
 491 371 491 371 517.5 372.5 c 128,-1,76
 544 374 544 374 567 381.5 c 128,-1,77
 590 389 590 389 608 407 c 128,-1,78
 626 425 626 425 632 457 c 0,66,67
EndSplineSet
EndChar
StartChar: macron
Encoding: 175 175 113
Width: 340
VWidth: 1533
Flags: W
HStem: 698 59<133 463 133 463 133 133>
Fore
133 757 m 1,0,-1
 474 757 l 1,1,-1
 463 698 l 1,2,-1
 123 698 l 1,3,-1
 133 757 l 1,0,-1
EndSplineSet
EndChar
StartChar: degree
Encoding: 176 176 114
Width: 383
VWidth: 1533
Flags: W
HStem: 382 43<212.134 293.683> 662 45<280.295 372.182>
VStem: 124 324<509 543 543 576 543 543 543 543>
Fore
316 707 m 256,0,1
 350 707 350 707 376.5 694 c 128,-1,2
 403 681 403 681 420.5 658.5 c 128,-1,3
 438 636 438 636 446 606 c 128,-1,4
 454 576 454 576 448 543 c 256,5,6
 442 509 442 509 424 480 c 128,-1,7
 406 451 406 451 380 428.5 c 128,-1,8
 354 406 354 406 322.5 394 c 128,-1,9
 291 382 291 382 258 382 c 256,10,11
 224 382 224 382 196.5 394 c 128,-1,12
 169 406 169 406 151 428.5 c 128,-1,13
 133 451 133 451 125.5 480 c 128,-1,14
 118 509 118 509 124 543 c 256,15,16
 130 576 130 576 148 606 c 128,-1,17
 166 636 166 636 192 658.5 c 128,-1,18
 218 681 218 681 250 694 c 128,-1,19
 282 707 282 707 316 707 c 256,0,1
308 662 m 0,20,21
 284 662 284 662 261 653 c 128,-1,22
 238 644 238 644 218.5 628 c 128,-1,23
 199 612 199 612 186 589.5 c 128,-1,24
 173 567 173 567 169 543 c 0,25,26
 161 494 161 494 188.5 459.5 c 128,-1,27
 216 425 216 425 265 425 c 0,28,29
 290 425 290 425 313 434 c 128,-1,30
 336 443 336 443 355 459 c 128,-1,31
 374 475 374 475 387 496.5 c 128,-1,32
 400 518 400 518 405 543 c 0,33,34
 414 592 414 592 385.5 627 c 128,-1,35
 357 662 357 662 308 662 c 0,20,21
EndSplineSet
EndChar
StartChar: plusminus
Encoding: 177 177 115
Width: 662
VWidth: 1533
Flags: W
HStem: 0 49<54 616> 331 48<112 362 425 675>
Fore
417 331 m 1,0,-1
 380 127 l 1,1,-1
 325 127 l 1,2,-1
 362 331 l 1,3,-1
 104 331 l 1,4,-1
 112 379 l 1,5,-1
 370 379 l 1,6,-1
 405 581 l 1,7,-1
 460 581 l 1,8,-1
 425 379 l 1,9,-1
 682 379 l 1,10,-1
 675 331 l 1,11,-1
 417 331 l 1,0,-1
46 0 m 1,12,-1
 54 49 l 1,13,-1
 624 49 l 1,14,-1
 616 0 l 1,15,-1
 46 0 l 1,12,-1
EndSplineSet
EndChar
StartChar: twosuperior
Encoding: 178 178 116
Width: 424
VWidth: 1533
Flags: W
HStem: 282 49<150 432> 675 29<233.881 374.685>
VStem: 115 58<577.787 639.513>
Fore
72 282 m 1,0,1
 86 324 86 324 113 351.5 c 128,-1,2
 140 379 140 379 172.5 399 c 128,-1,3
 205 419 205 419 242 434 c 128,-1,4
 279 449 279 449 313 466 c 0,5,6
 348 484 348 484 376.5 508 c 128,-1,7
 405 532 405 532 412 572 c 0,8,9
 420 613 420 613 396.5 644 c 128,-1,10
 373 675 373 675 314 675 c 0,11,12
 264 675 264 675 224 647 c 128,-1,13
 184 619 184 619 173 566 c 1,14,-1
 115 566 l 1,15,16
 136 635 136 635 193 669.5 c 128,-1,17
 250 704 250 704 319 704 c 0,18,19
 354 704 354 704 384.5 695.5 c 128,-1,20
 415 687 415 687 436.5 671 c 128,-1,21
 458 655 458 655 468 629.5 c 128,-1,22
 478 604 478 604 472 572 c 0,23,24
 466 534 466 534 442.5 507.5 c 128,-1,25
 419 481 419 481 386 462 c 128,-1,26
 353 443 353 443 316 428.5 c 128,-1,27
 279 414 279 414 245.5 400 c 128,-1,28
 212 386 212 386 185.5 370 c 128,-1,29
 159 354 159 354 150 331 c 1,30,-1
 442 331 l 1,31,-1
 432 282 l 1,32,-1
 72 282 l 1,0,1
EndSplineSet
EndChar
StartChar: threesuperior
Encoding: 179 179 117
Width: 424
VWidth: 1533
Flags: W
HStem: 273 26<192.927 331.233> 682 25<267.09 410.166>
VStem: 104 387<409 601 409 409> 159 60<599.956 663.793>
Fore
261 273 m 0,0,1
 193 273 193 273 147 306.5 c 128,-1,2
 101 340 101 340 104 409 c 1,3,-1
 164 409 l 1,4,5
 153 356 153 356 184.5 327.5 c 128,-1,6
 216 299 216 299 265 299 c 0,7,8
 317 299 317 299 363 326.5 c 128,-1,9
 409 354 409 354 419 402 c 0,10,11
 423 429 423 429 409.5 447.5 c 128,-1,12
 396 466 396 466 371.5 475 c 128,-1,13
 347 484 347 484 314.5 485 c 128,-1,14
 282 486 282 486 250 480 c 1,15,-1
 256 517 l 1,16,17
 290 511 290 511 320 515.5 c 128,-1,18
 350 520 350 520 373 532 c 128,-1,19
 396 544 396 544 411 562 c 128,-1,20
 426 580 426 580 431 601 c 0,21,22
 437 635 437 635 412.5 658.5 c 128,-1,23
 388 682 388 682 336 682 c 0,24,25
 291 682 291 682 261.5 655.5 c 128,-1,26
 232 629 232 629 219 584 c 1,27,-1
 159 584 l 1,28,29
 175 642 175 642 225.5 674.5 c 128,-1,30
 276 707 276 707 340 707 c 0,31,32
 409 707 409 707 454.5 681.5 c 128,-1,33
 500 656 500 656 491 601 c 0,34,35
 483 564 483 564 454.5 539 c 128,-1,36
 426 514 426 514 392 503 c 1,37,38
 431 495 431 495 457.5 470 c 128,-1,39
 484 445 484 445 477 400 c 0,40,41
 471 368 471 368 450 343.5 c 128,-1,42
 429 319 429 319 399.5 303.5 c 128,-1,43
 370 288 370 288 333.5 280.5 c 128,-1,44
 297 273 297 273 261 273 c 0,0,1
EndSplineSet
EndChar
StartChar: acute
Encoding: 180 180 118
Width: 280
VWidth: 1533
Flags: W
HStem: 650 193<212 420 420 420>
VStem: 179 267<652 810 652 652>
Fore
179 652 m 1,0,-1
 380 826 l 2,1,2
 397 843 397 843 420 843 c 0,3,4
 434 843 434 843 441.5 833 c 128,-1,5
 449 823 449 823 446 810 c 256,6,7
 443 796 443 796 431.5 786.5 c 128,-1,8
 420 777 420 777 396 760 c 2,9,-1
 212 650 l 1,10,-1
 179 652 l 1,0,-1
EndSplineSet
EndChar
StartChar: mu
Encoding: 181 181 119
Width: 679
VWidth: 1533
Flags: W
HStem: -18 36<245.293 410.146>
Fore
544 0 m 1,0,-1
 550 121 l 1,1,2
 509 52 509 52 440 17 c 128,-1,3
 371 -18 371 -18 297 -18 c 0,4,5
 207 -18 207 -18 161 44 c 1,6,-1
 115 -210 l 1,7,-1
 35 -210 l 1,8,-1
 175 581 l 1,9,-1
 256 581 l 1,10,-1
 195 235 l 2,11,12
 187 192 187 192 188.5 152.5 c 128,-1,13
 190 113 190 113 204 83.5 c 128,-1,14
 218 54 218 54 247 36 c 128,-1,15
 276 18 276 18 324 18 c 0,16,17
 374 18 374 18 416 37.5 c 128,-1,18
 458 57 458 57 490.5 90 c 128,-1,19
 523 123 523 123 544.5 165 c 128,-1,20
 566 207 566 207 575 253 c 2,21,-1
 632 581 l 1,22,-1
 707 581 l 1,23,-1
 606 0 l 1,24,-1
 544 0 l 1,0,-1
EndSplineSet
EndChar
StartChar: paragraph
Encoding: 182 182 120
Width: 561
VWidth: 1533
Flags: W
HStem: 678 40<425 503 558 650>
Fore
558 678 m 1,0,-1
 412 -150 l 1,1,-1
 357 -150 l 1,2,-1
 503 678 l 1,3,-1
 425 678 l 1,4,-1
 279 -150 l 1,5,-1
 222 -150 l 1,6,-1
 296 262 l 1,7,8
 187 262 187 262 142.5 328 c 128,-1,9
 98 394 98 394 117 498 c 0,10,11
 126 547 126 547 149.5 588 c 128,-1,12
 173 629 173 629 207.5 657 c 128,-1,13
 242 685 242 685 286 701.5 c 128,-1,14
 330 718 330 718 379 718 c 2,15,-1
 658 718 l 1,16,-1
 650 678 l 1,17,-1
 558 678 l 1,0,-1
EndSplineSet
EndChar
StartChar: periodcentered
Encoding: 183 183 121
Width: 259
VWidth: 1533
Flags: W
HStem: 236 112<148.595 212.92>
VStem: 124 112<268.505 333.895>
Fore
124 291 m 256,0,1
 129 314 129 314 148 331 c 128,-1,2
 167 348 167 348 190 348 c 0,3,4
 215 348 215 348 228 331 c 128,-1,5
 241 314 241 314 236 291 c 256,6,7
 232 268 232 268 213.5 252 c 128,-1,8
 195 236 195 236 170 236 c 0,9,10
 147 236 147 236 133.5 252 c 128,-1,11
 120 268 120 268 124 291 c 256,0,1
EndSplineSet
EndChar
StartChar: cedilla
Encoding: 184 184 122
Width: 225
VWidth: 1533
Flags: W
HStem: -241 241<52 97 97 121.57> -241 32<-8.52094 74.9475> -104 32<85.0381 110.015>
VStem: -37 235<-225 -149 -225 -200.43> 123 75<-188.952 -155 -155 -130.43>
Fore
97 0 m 1,0,-1
 126 0 l 1,1,-1
 80 -77 l 1,2,3
 95 -72 95 -72 106 -72 c 128,-1,4
 117 -72 117 -72 130 -72 c 0,5,6
 161 -72 161 -72 183 -93.5 c 128,-1,7
 205 -115 205 -115 198 -149 c 0,8,9
 193 -172 193 -172 178.5 -189.5 c 128,-1,10
 164 -207 164 -207 143.5 -218.5 c 128,-1,11
 123 -230 123 -230 99 -235.5 c 128,-1,12
 75 -241 75 -241 52 -241 c 0,13,14
 25 -241 25 -241 2.5 -238.5 c 128,-1,15
 -20 -236 -20 -236 -37 -225 c 1,16,-1
 -21 -195 l 1,17,18
 3 -209 3 -209 43 -209 c 0,19,20
 67 -209 67 -209 92 -196.5 c 128,-1,21
 117 -184 117 -184 123 -155 c 0,22,23
 126 -133 126 -133 110.5 -118.5 c 128,-1,24
 95 -104 95 -104 78 -104 c 0,25,26
 64 -104 64 -104 49.5 -106.5 c 128,-1,27
 35 -109 35 -109 31 -110 c 1,28,-1
 97 0 l 1,0,-1
EndSplineSet
EndChar
StartChar: onesuperior
Encoding: 185 185 123
Width: 323
VWidth: 1533
Flags: W
HStem: 281 433<291 330 317.653 330> 622 27<190 242.341>
VStem: 186 182<622 714 609.653 622>
Fore
288 622 m 1,0,-1
 186 622 l 1,1,-1
 190 649 l 1,2,3
 222 649 222 649 243 651 c 128,-1,4
 264 653 264 653 278.5 660.5 c 128,-1,5
 293 668 293 668 304.5 680.5 c 128,-1,6
 316 693 316 693 330 714 c 1,7,-1
 368 714 l 1,8,-1
 291 281 l 1,9,-1
 228 281 l 1,10,-1
 288 622 l 1,0,-1
EndSplineSet
EndChar
StartChar: ordmasculine
Encoding: 186 186 124
Width: 469
VWidth: 1533
Flags: W
HStem: 334 29<225.309 375.604> 675 29<275.578 421.578>
VStem: 120 410<481 518 520 558 520 520 520 520>
Fore
293 334 m 256,0,1
 248 334 248 334 213 348.5 c 128,-1,2
 178 363 178 363 155 388.5 c 128,-1,3
 132 414 132 414 122.5 447.5 c 128,-1,4
 113 481 113 481 120 520 c 256,5,6
 126 558 126 558 148 591 c 128,-1,7
 170 624 170 624 202.5 649.5 c 128,-1,8
 235 675 235 675 274.5 689.5 c 128,-1,9
 314 704 314 704 357 704 c 0,10,11
 399 704 399 704 434 689.5 c 128,-1,12
 469 675 469 675 493 649.5 c 128,-1,13
 517 624 517 624 527 591 c 128,-1,14
 537 558 537 558 530 520 c 256,15,16
 524 481 524 481 502.5 447.5 c 128,-1,17
 481 414 481 414 449 388.5 c 128,-1,18
 417 363 417 363 377 348.5 c 128,-1,19
 337 334 337 334 293 334 c 256,0,1
353 675 m 256,20,21
 294 675 294 675 249 633.5 c 128,-1,22
 204 592 204 592 192 518 c 0,23,24
 179 449 179 449 206 406 c 128,-1,25
 233 363 233 363 297 363 c 0,26,27
 360 363 360 363 402.5 406 c 128,-1,28
 445 449 445 449 457 518 c 0,29,30
 469 592 469 592 440 633.5 c 128,-1,31
 411 675 411 675 353 675 c 256,20,21
EndSplineSet
EndChar
StartChar: guillemotright
Encoding: 187 187 125
Width: 561
VWidth: 1533
Flags: W
HStem: 75 432<356 432 432 432>
VStem: 121 417<110 291 110 110>
Fore
432 507 m 1,0,-1
 538 291 l 1,1,-1
 356 75 l 1,2,-1
 305 110 l 1,3,-1
 483 291 l 1,4,-1
 370 472 l 1,5,-1
 432 507 l 1,0,-1
250 507 m 1,6,-1
 356 291 l 1,7,-1
 173 75 l 1,8,-1
 121 110 l 1,9,-1
 301 291 l 1,10,-1
 186 472 l 1,11,-1
 250 507 l 1,6,-1
EndSplineSet
EndChar
StartChar: onequarter
Encoding: 188 188 126
Width: 1079
VWidth: 1533
Flags: W
HStem: -17 21<190 253.202 702 763.4> 100 33<550 719 783 859> 622 27<218 267.919> 685 20G<793.798 857>
Fore
190 -17 m 1,0,-1
 811 705 l 1,1,-1
 857 705 l 1,2,-1
 236 -17 l 1,3,-1
 190 -17 l 1,0,-1
777 100 m 1,4,-1
 760 0 l 1,5,-1
 702 0 l 1,6,-1
 719 100 l 1,7,-1
 500 100 l 1,8,-1
 489 118 l 1,9,-1
 822 423 l 1,10,-1
 834 423 l 1,11,-1
 783 133 l 1,12,-1
 882 133 l 1,13,-1
 859 100 l 1,14,-1
 777 100 l 1,4,-1
550 133 m 1,15,-1
 725 133 l 1,16,-1
 759 327 l 1,17,-1
 550 133 l 1,15,-1
302 622 m 1,18,-1
 213 622 l 1,19,-1
 218 649 l 1,20,21
 250 649 250 649 268.5 651 c 128,-1,22
 287 653 287 653 299 660.5 c 128,-1,23
 311 668 311 668 320.5 680.5 c 128,-1,24
 330 693 330 693 343 714 c 1,25,-1
 376 714 l 1,26,-1
 299 285 l 1,27,-1
 242 285 l 1,28,-1
 302 622 l 1,18,-1
EndSplineSet
Ligature2: "'frac' Diagonal Fractions in Latin lookup 0 subtable" one fraction four
Ligature2: "'frac' Diagonal Fractions in Latin lookup 0 subtable" one slash four
EndChar
StartChar: onehalf
Encoding: 189 189 127
Width: 1079
VWidth: 1533
Flags: W
HStem: 0 49<639 923> 391 31<722.58 866.516> 622 27<215 264.919> 685 20G<781.659 843>
VStem: 604 60<291.864 349.484>
Fore
218 -17 m 1,0,-1
 173 -17 l 1,1,-1
 799 705 l 1,2,-1
 843 705 l 1,3,-1
 218 -17 l 1,0,-1
566 0 m 1,4,5
 578 41 578 41 604 69 c 128,-1,6
 630 97 630 97 663 116.5 c 128,-1,7
 696 136 696 136 733 151.5 c 128,-1,8
 770 167 770 167 805 184 c 256,9,10
 840 201 840 201 869 225.5 c 128,-1,11
 898 250 898 250 906 290 c 0,12,13
 914 333 914 333 888 362 c 128,-1,14
 862 391 862 391 803 391 c 0,15,16
 754 391 754 391 713.5 363.5 c 128,-1,17
 673 336 673 336 664 282 c 1,18,-1
 604 282 l 1,19,20
 627 353 627 353 684 387.5 c 128,-1,21
 741 422 741 422 810 422 c 0,22,23
 845 422 845 422 875.5 413.5 c 128,-1,24
 906 405 906 405 928.5 389 c 128,-1,25
 951 373 951 373 961 347.5 c 128,-1,26
 971 322 971 322 964 290 c 0,27,28
 957 251 957 251 933 224.5 c 128,-1,29
 909 198 909 198 876 178.5 c 128,-1,30
 843 159 843 159 805.5 144.5 c 128,-1,31
 768 130 768 130 734.5 116.5 c 128,-1,32
 701 103 701 103 675 87 c 128,-1,33
 649 71 649 71 639 49 c 1,34,-1
 931 49 l 1,35,-1
 923 0 l 1,36,-1
 566 0 l 1,4,5
299 622 m 1,37,-1
 210 622 l 1,38,-1
 215 649 l 1,39,40
 247 649 247 649 265.5 651 c 128,-1,41
 284 653 284 653 296 660.5 c 128,-1,42
 308 668 308 668 317.5 680.5 c 128,-1,43
 327 693 327 693 340 714 c 1,44,-1
 373 714 l 1,45,-1
 296 285 l 1,46,-1
 239 285 l 1,47,-1
 299 622 l 1,37,-1
EndSplineSet
Ligature2: "'frac' Diagonal Fractions in Latin lookup 0 subtable" one fraction two
Ligature2: "'frac' Diagonal Fractions in Latin lookup 0 subtable" one slash two
EndChar
StartChar: threequarters
Encoding: 190 190 128
Width: 1079
VWidth: 1533
Flags: W
HStem: -17 21<308 370.313 791 852.4> 100 33<638 808 872 948> 279 28<248.043 387.131> 682 25<320.235 452.216>
VStem: 213 58<600.097 664.25> 484 59<558.953 638.538>
Fore
308 -17 m 1,0,-1
 934 705 l 1,1,-1
 978 705 l 1,2,-1
 353 -17 l 1,3,-1
 308 -17 l 1,0,-1
866 100 m 1,4,-1
 849 0 l 1,5,-1
 791 0 l 1,6,-1
 808 100 l 1,7,-1
 587 100 l 1,8,-1
 578 118 l 1,9,-1
 909 423 l 1,10,-1
 923 423 l 1,11,-1
 872 133 l 1,12,-1
 969 133 l 1,13,-1
 948 100 l 1,14,-1
 866 100 l 1,4,-1
638 133 m 1,15,-1
 814 133 l 1,16,-1
 848 327 l 1,17,-1
 638 133 l 1,15,-1
316 279 m 0,18,19
 248 279 248 279 201.5 313.5 c 128,-1,20
 155 348 155 348 158 417 c 1,21,-1
 218 417 l 1,22,23
 209 363 209 363 240 335 c 128,-1,24
 271 307 271 307 320 307 c 0,25,26
 374 307 374 307 419.5 334.5 c 128,-1,27
 465 362 465 362 474 409 c 0,28,29
 478 437 478 437 464.5 455.5 c 128,-1,30
 451 474 451 474 426.5 483 c 128,-1,31
 402 492 402 492 369.5 493 c 128,-1,32
 337 494 337 494 305 488 c 1,33,-1
 311 524 l 1,34,35
 379 512 379 512 428 535 c 128,-1,36
 477 558 477 558 484 601 c 0,37,38
 491 635 491 635 466.5 658.5 c 128,-1,39
 442 682 442 682 389 682 c 0,40,41
 345 682 345 682 314.5 655.5 c 128,-1,42
 284 629 284 629 271 584 c 1,43,-1
 213 584 l 1,44,45
 230 642 230 642 280.5 674.5 c 128,-1,46
 331 707 331 707 394 707 c 0,47,48
 428 707 428 707 457 701 c 128,-1,49
 486 695 486 695 506.5 681.5 c 128,-1,50
 527 668 527 668 537 648.5 c 128,-1,51
 547 629 547 629 543 601 c 0,52,53
 535 564 535 564 507.5 542.5 c 128,-1,54
 480 521 480 521 446 511 c 1,55,56
 486 503 486 503 512 477.5 c 128,-1,57
 538 452 538 452 530 408 c 0,58,59
 524 374 524 374 503.5 350.5 c 128,-1,60
 483 327 483 327 453 310.5 c 128,-1,61
 423 294 423 294 388 286.5 c 128,-1,62
 353 279 353 279 316 279 c 0,18,19
EndSplineSet
Ligature2: "'frac' Diagonal Fractions in Latin lookup 0 subtable" three fraction four
Ligature2: "'frac' Diagonal Fractions in Latin lookup 0 subtable" three slash four
EndChar
StartChar: questiondown
Encoding: 191 191 129
Width: 550
VWidth: 1533
Flags: W
HStem: -152 31<211.924 350.787> 497 102<371.048 430.468>
VStem: 348 103<525.432 583.53> 376 18<365.932 457> 451 81<-14.631 77>
Fore
58 49 m 0,0,1
 66 90 66 90 89.5 120 c 128,-1,2
 113 150 113 150 145.5 175.5 c 128,-1,3
 178 201 178 201 214.5 225.5 c 128,-1,4
 251 250 251 250 284 281.5 c 128,-1,5
 317 313 317 313 341.5 355 c 128,-1,6
 366 397 366 397 376 457 c 1,7,-1
 394 457 l 1,8,9
 389 386 389 386 372.5 338.5 c 128,-1,10
 356 291 356 291 332 257.5 c 128,-1,11
 308 224 308 224 280.5 200 c 128,-1,12
 253 176 253 176 227.5 154 c 128,-1,13
 202 132 202 132 184 106.5 c 128,-1,14
 166 81 166 81 159 46 c 0,15,16
 150 -3 150 -3 155.5 -35 c 128,-1,17
 161 -67 161 -67 177 -86.5 c 128,-1,18
 193 -106 193 -106 217 -113.5 c 128,-1,19
 241 -121 241 -121 268 -121 c 0,20,21
 337 -121 337 -121 385.5 -73 c 128,-1,22
 434 -25 434 -25 451 77 c 1,23,-1
 532 77 l 1,24,25
 523 18 523 18 496 -24 c 128,-1,26
 469 -66 469 -66 432.5 -95 c 128,-1,27
 396 -124 396 -124 351.5 -138 c 128,-1,28
 307 -152 307 -152 259 -152 c 0,29,30
 216 -152 216 -152 175.5 -140.5 c 128,-1,31
 135 -129 135 -129 106 -104.5 c 128,-1,32
 77 -80 77 -80 63 -42.5 c 128,-1,33
 49 -5 49 -5 58 49 c 0,0,1
348 547 m 0,34,35
 353 569 353 569 370.5 584 c 128,-1,36
 388 599 388 599 409 599 c 256,37,38
 431 599 431 599 443 584 c 128,-1,39
 455 569 455 569 451 547 c 0,40,41
 448 526 448 526 431 511.5 c 128,-1,42
 414 497 414 497 392 497 c 256,43,44
 371 497 371 497 358 511.5 c 128,-1,45
 345 526 345 526 348 547 c 0,34,35
EndSplineSet
EndChar
StartChar: Aacute
Encoding: 193 193 130
Width: 818
VWidth: 1533
Flags: W
HStem: 0 21G<22.4249 57 714 804.153>
Fore
811 0 m 1,0,-1
 558 739 l 1,1,-1
 541 739 l 1,2,-1
 8 0 l 1,3,-1
 57 0 l 1,4,-1
 316 366 l 1,5,-1
 586 366 l 1,6,-1
 714 0 l 1,7,-1
 811 0 l 1,0,-1
575 403 m 1,8,-1
 343 403 l 1,9,-1
 503 627 l 1,10,-1
 575 403 l 1,8,-1
347 773 m 1,11,-1
 544 946 l 2,12,13
 563 963 563 963 586 963 c 0,14,15
 601 963 601 963 608 953 c 128,-1,16
 615 943 615 943 612 929 c 0,17,18
 609 917 609 917 598 907 c 128,-1,19
 587 897 587 897 563 882 c 2,20,-1
 379 771 l 1,21,-1
 347 773 l 1,11,-1
EndSplineSet
Ligature2: "'liga' Standard Ligatures in Latin lookup 19 subtable" A acutecomb
EndChar
StartChar: Acircumflex
Encoding: 194 194 131
Width: 818
VWidth: 1533
Flags: W
HStem: 0 21G<8 71.153 707.005 811> 366 37<343 575> 719 20G<526.575 564.847>
Fore
714 0 m 1,0,-1
 586 366 l 1,1,-1
 316 366 l 1,2,-1
 57 0 l 1,3,-1
 8 0 l 1,4,-1
 541 739 l 1,5,-1
 558 739 l 1,6,-1
 811 0 l 1,7,-1
 714 0 l 1,0,-1
503 627 m 1,8,-1
 343 403 l 1,9,-1
 575 403 l 1,10,-1
 503 627 l 1,8,-1
685 754 m 1,11,-1
 570 875 l 1,12,-1
 414 754 l 1,13,-1
 382 754 l 1,14,-1
 549 940 l 1,15,-1
 615 940 l 1,16,-1
 716 754 l 1,17,-1
 685 754 l 1,11,-1
EndSplineSet
EndChar
StartChar: Atilde
Encoding: 195 195 132
Width: 818
VWidth: 1533
Flags: W
HStem: 0 21G<8 71.153 707.005 811> 366 37<343 575> 719 20G<526.575 564.847> 776 57<620.892 690.389> 831 57<451.111 521.923>
Fore
714 0 m 1,0,-1
 586 366 l 1,1,-1
 316 366 l 1,2,-1
 57 0 l 1,3,-1
 8 0 l 1,4,-1
 541 739 l 1,5,-1
 558 739 l 1,6,-1
 811 0 l 1,7,-1
 714 0 l 1,0,-1
503 627 m 1,8,-1
 343 403 l 1,9,-1
 575 403 l 1,10,-1
 503 627 l 1,8,-1
380 777 m 1,11,12
 392 808 392 808 411 833 c 0,13,14
 428 854 428 854 452.5 871 c 128,-1,15
 477 888 477 888 512 888 c 0,16,17
 537 888 537 888 556.5 879.5 c 128,-1,18
 576 871 576 871 594 860 c 128,-1,19
 612 849 612 849 628 841 c 128,-1,20
 644 833 644 833 661 833 c 0,21,22
 679 833 679 833 693 842 c 128,-1,23
 707 851 707 851 718 863 c 0,24,25
 728 877 728 877 737 894 c 1,26,-1
 762 894 l 1,27,28
 750 860 750 860 731 834 c 0,29,30
 714 813 714 813 689 794.5 c 128,-1,31
 664 776 664 776 626 776 c 0,32,33
 599 776 599 776 581 784.5 c 128,-1,34
 563 793 563 793 547.5 803.5 c 128,-1,35
 532 814 532 814 516.5 822.5 c 128,-1,36
 501 831 501 831 481 831 c 0,37,38
 463 831 463 831 448.5 822.5 c 128,-1,39
 434 814 434 814 425 803 c 0,40,41
 414 791 414 791 406 777 c 1,42,-1
 380 777 l 1,11,12
EndSplineSet
Ligature2: "'liga' Standard Ligatures in Latin lookup 19 subtable" A tildecomb
EndChar
StartChar: Adieresis
Encoding: 196 196 133
Width: 818
VWidth: 1533
Flags: W
HStem: 0 21G<8 71.153 707.005 811> 366 37<343 575> 719 20G<526.575 564.847> 771 112<437.626 501.405 628.595 693.405>
VStem: 412 112<787.502 863.307> 604 112<787.502 863.852>
Fore
714 0 m 1,0,-1
 586 366 l 1,1,-1
 316 366 l 1,2,-1
 57 0 l 1,3,-1
 8 0 l 1,4,-1
 541 739 l 1,5,-1
 558 739 l 1,6,-1
 811 0 l 1,7,-1
 714 0 l 1,0,-1
503 627 m 1,8,-1
 343 403 l 1,9,-1
 575 403 l 1,10,-1
 503 627 l 1,8,-1
412 826 m 0,11,12
 417 849 417 849 437 866 c 128,-1,13
 457 883 457 883 480 883 c 256,14,15
 503 883 503 883 516 866 c 128,-1,16
 529 849 529 849 524 826 c 0,17,18
 521 803 521 803 502 787 c 128,-1,19
 483 771 483 771 460 771 c 256,20,21
 437 771 437 771 423 787 c 128,-1,22
 409 803 409 803 412 826 c 0,11,12
604 826 m 0,23,24
 609 849 609 849 628 866 c 128,-1,25
 647 883 647 883 672 883 c 0,26,27
 695 883 695 883 708 866 c 128,-1,28
 721 849 721 849 716 826 c 0,29,30
 713 803 713 803 694 787 c 128,-1,31
 675 771 675 771 652 771 c 0,32,33
 627 771 627 771 614 787 c 128,-1,34
 601 803 601 803 604 826 c 0,23,24
EndSplineSet
EndChar
StartChar: Aring
Encoding: 197 197 134
Width: 818
VWidth: 1533
Flags: W
HStem: 0 21G<8 71.153 707.005 811> 366 37<343 575> 869 37<519.875 623.27>
VStem: 452 37<758.338 839.125> 635 37<753.07 833.985>
Fore
503 627 m 1,0,-1
 343 403 l 1,1,-1
 575 403 l 1,2,-1
 503 627 l 1,0,-1
575 869 m 256,3,4
 544 869 544 869 519.5 847.5 c 128,-1,5
 495 826 495 826 489 796 c 256,6,7
 483 765 483 765 501.5 744.5 c 128,-1,8
 520 724 520 724 550 724 c 256,9,10
 581 724 581 724 605 744.5 c 128,-1,11
 629 765 629 765 635 796 c 256,12,13
 641 826 641 826 623.5 847.5 c 128,-1,14
 606 869 606 869 575 869 c 256,3,4
583 906 m 0,15,16
 627 906 627 906 653 874.5 c 128,-1,17
 679 843 679 843 672 796 c 0,18,19
 664 759 664 759 637 730.5 c 128,-1,20
 610 702 610 702 573 691 c 1,21,-1
 811 0 l 1,22,-1
 714 0 l 1,23,-1
 586 366 l 1,24,-1
 316 366 l 1,25,-1
 57 0 l 1,26,-1
 8 0 l 1,27,-1
 509 693 l 1,28,29
 478 705 478 705 462 732.5 c 128,-1,30
 446 760 446 760 452 796 c 0,31,32
 460 843 460 843 498.5 874.5 c 128,-1,33
 537 906 537 906 583 906 c 0,15,16
EndSplineSet
EndChar
StartChar: AE
Encoding: 198 198 135
Width: 1096
VWidth: 1533
Flags: W
HStem: 0 37<645 1081> 366 37<399 619 710 1036> 678 38<633 673 757 1199>
Fore
555 0 m 1,0,-1
 619 366 l 1,1,-1
 366 366 l 1,2,-1
 54 0 l 1,3,-1
 0 0 l 1,4,-1
 615 716 l 1,5,-1
 1207 716 l 1,6,-1
 1199 678 l 1,7,-1
 757 678 l 1,8,-1
 710 403 l 1,9,-1
 1043 403 l 1,10,-1
 1036 366 l 1,11,-1
 704 366 l 1,12,-1
 645 37 l 1,13,-1
 1087 37 l 1,14,-1
 1081 0 l 1,15,-1
 555 0 l 1,0,-1
673 678 m 1,16,-1
 633 678 l 1,17,-1
 399 403 l 1,18,-1
 626 403 l 1,19,-1
 673 678 l 1,16,-1
EndSplineSet
EndChar
StartChar: Egrave
Encoding: 200 200 137
Width: 691
VWidth: 1533
Flags: W
HStem: 0 37<166 676> 366 37<230 630> 678 38<278 794>
Fore
77 0 m 1,0,-1
 202 716 l 1,1,-1
 802 716 l 1,2,-1
 794 678 l 1,3,-1
 278 678 l 1,4,-1
 230 403 l 1,5,-1
 636 403 l 1,6,-1
 630 366 l 1,7,-1
 224 366 l 1,8,-1
 166 37 l 1,9,-1
 682 37 l 1,10,-1
 676 0 l 1,11,-1
 77 0 l 1,0,-1
598 768 m 1,12,-1
 455 879 l 2,13,14
 435 894 435 894 427 904 c 128,-1,15
 419 914 419 914 422 926 c 0,16,17
 425 940 425 940 435 950 c 128,-1,18
 445 960 445 960 458 960 c 0,19,20
 483 960 483 960 494 943 c 2,21,-1
 630 770 l 1,22,-1
 598 768 l 1,12,-1
EndSplineSet
Ligature2: "'liga' Standard Ligatures in Latin lookup 19 subtable" E gravecomb
EndChar
StartChar: Eacute
Encoding: 201 201 138
Width: 691
VWidth: 1533
Flags: W
HStem: 0 21G<80.4916 676> 696 20G<202 797.789>
Fore
676 0 m 1,0,-1
 682 37 l 1,1,-1
 166 37 l 1,2,-1
 224 366 l 1,3,-1
 630 366 l 1,4,-1
 636 403 l 1,5,-1
 230 403 l 1,6,-1
 278 678 l 1,7,-1
 794 678 l 1,8,-1
 802 716 l 1,9,-1
 202 716 l 1,10,-1
 77 0 l 1,11,-1
 676 0 l 1,0,-1
394 777 m 1,12,-1
 592 951 l 2,13,14
 610 967 610 967 633 967 c 0,15,16
 649 967 649 967 655.5 957.5 c 128,-1,17
 662 948 662 948 659 934 c 0,18,19
 656 921 656 921 645.5 911.5 c 128,-1,20
 635 902 635 902 610 886 c 2,21,-1
 426 776 l 1,22,-1
 394 777 l 1,12,-1
EndSplineSet
Ligature2: "'liga' Standard Ligatures in Latin lookup 19 subtable" E acutecomb
EndChar
StartChar: Igrave
Encoding: 204 204 141
Width: 248
VWidth: 1533
Flags: W
HStem: 0 21G<81 167.52> 696 20G<203.48 290>
VStem: 81 295<0 773 1.53064e-18 1.53064e-18>
Fore
81 0 m 1,0,-1
 207 716 l 1,1,-1
 290 716 l 1,2,-1
 164 0 l 1,3,-1
 81 0 l 1,0,-1
343 771 m 1,4,-1
 201 882 l 2,5,6
 181 897 181 897 172.5 907 c 128,-1,7
 164 917 164 917 167 929 c 0,8,9
 170 943 170 943 180 953 c 128,-1,10
 190 963 190 963 204 963 c 0,11,12
 228 963 228 963 239 946 c 2,13,-1
 376 773 l 1,14,-1
 343 771 l 1,4,-1
EndSplineSet
Ligature2: "'liga' Standard Ligatures in Latin lookup 19 subtable" I gravecomb
EndChar
StartChar: Iacute
Encoding: 205 205 142
Width: 248
VWidth: 1533
Flags: W
HStem: 0 21G<84.5196 164> 696 20G<207 286.48>
VStem: 81 319<0 929 1.53064e-18 1.53064e-18>
Fore
164 0 m 1,0,-1
 290 716 l 1,1,-1
 207 716 l 1,2,-1
 81 0 l 1,3,-1
 164 0 l 1,0,-1
135 773 m 1,4,-1
 333 946 l 2,5,6
 351 963 351 963 374 963 c 0,7,8
 389 963 389 963 396 953 c 128,-1,9
 403 943 403 943 400 929 c 0,10,11
 397 917 397 917 386.5 907 c 128,-1,12
 376 897 376 897 351 882 c 2,13,-1
 167 771 l 1,14,-1
 135 773 l 1,4,-1
EndSplineSet
Ligature2: "'liga' Standard Ligatures in Latin lookup 19 subtable" I acutecomb
EndChar
StartChar: Icircumflex
Encoding: 206 206 143
Width: 248
VWidth: 1533
Flags: W
HStem: 0 21G<81 167.52> 696 20G<203.48 290>
VStem: 81 348<0 764 1.53064e-18 1.53064e-18>
Fore
81 0 m 1,0,-1
 207 716 l 1,1,-1
 290 716 l 1,2,-1
 164 0 l 1,3,-1
 81 0 l 1,0,-1
399 764 m 1,4,-1
 284 885 l 1,5,-1
 127 764 l 1,6,-1
 95 764 l 1,7,-1
 262 949 l 1,8,-1
 328 949 l 1,9,-1
 429 764 l 1,10,-1
 399 764 l 1,4,-1
EndSplineSet
EndChar
StartChar: Idieresis
Encoding: 207 207 144
Width: 248
VWidth: 1533
Flags: W
HStem: 0 21G<81 167.52> 696 20G<203.48 290> 767 112<144.626 208.405 335.595 400.405>
VStem: 120 112<799.422 864.889> 311 112<783.502 859.852>
Fore
81 0 m 1,0,-1
 207 716 l 1,1,-1
 290 716 l 1,2,-1
 164 0 l 1,3,-1
 81 0 l 1,0,-1
120 822 m 0,4,5
 124 845 124 845 144 862 c 128,-1,6
 164 879 164 879 187 879 c 256,7,8
 210 879 210 879 223 862 c 128,-1,9
 236 845 236 845 232 822 c 128,-1,10
 228 799 228 799 209 783 c 128,-1,11
 190 767 190 767 167 767 c 256,12,13
 144 767 144 767 130.5 783 c 128,-1,14
 117 799 117 799 120 822 c 0,4,5
311 822 m 0,15,16
 316 845 316 845 335 862 c 128,-1,17
 354 879 354 879 379 879 c 0,18,19
 402 879 402 879 415 862 c 128,-1,20
 428 845 428 845 423 822 c 0,21,22
 420 799 420 799 401 783 c 128,-1,23
 382 767 382 767 359 767 c 0,24,25
 334 767 334 767 321 783 c 128,-1,26
 308 799 308 799 311 822 c 0,15,16
EndSplineSet
EndChar
StartChar: Eth
Encoding: 208 208 145
Width: 880
VWidth: 1533
Flags: W
HStem: 0 37<192 555.81> 366 37<87 167 256 457> 678 38<304 659.062>
Fore
908 380 m 0,0,1
 894 301 894 301 859.5 232 c 128,-1,2
 825 163 825 163 761.5 111.5 c 128,-1,3
 698 60 698 60 600.5 30 c 128,-1,4
 503 0 503 0 363 0 c 2,5,-1
 103 0 l 1,6,-1
 167 366 l 1,7,-1
 81 366 l 1,8,-1
 87 403 l 1,9,-1
 173 403 l 1,10,-1
 228 716 l 1,11,-1
 483 716 l 2,12,13
 618 716 618 716 706 690 c 128,-1,14
 794 664 794 664 843 618.5 c 128,-1,15
 892 573 892 573 906 512 c 128,-1,16
 920 451 920 451 908 380 c 0,0,1
806 380 m 0,17,18
 817 443 817 443 809.5 497.5 c 128,-1,19
 802 552 802 552 766.5 592 c 128,-1,20
 731 632 731 632 665 655 c 128,-1,21
 599 678 599 678 497 678 c 2,22,-1
 304 678 l 1,23,-1
 256 403 l 1,24,-1
 463 403 l 1,25,-1
 457 366 l 1,26,-1
 250 366 l 1,27,-1
 192 37 l 1,28,-1
 385 37 l 2,29,30
 488 37 488 37 562 60 c 128,-1,31
 636 83 636 83 685 127.5 c 128,-1,32
 734 172 734 172 763.5 235.5 c 128,-1,33
 793 299 793 299 806 380 c 0,17,18
EndSplineSet
EndChar
StartChar: Ntilde
Encoding: 209 209 146
Width: 818
VWidth: 1533
Flags: W
HStem: -21 21<77 127.489 712.189 740.555> 696 20G<198.508 308.757 816.493 868> 764 56<614.157 682.888> 819 56<443.111 514.058>
Fore
727 -21 m 1,0,-1
 236 642 l 1,1,-1
 124 0 l 1,2,-1
 77 0 l 1,3,-1
 202 716 l 1,4,-1
 294 716 l 1,5,-1
 719 140 l 1,6,-1
 820 716 l 1,7,-1
 868 716 l 1,8,-1
 737 -21 l 1,9,-1
 727 -21 l 1,0,-1
373 765 m 1,10,11
 385 796 385 796 403 820 c 0,12,13
 420 842 420 842 444.5 858.5 c 128,-1,14
 469 875 469 875 504 875 c 0,15,16
 529 875 529 875 549 867 c 128,-1,17
 569 859 569 859 586.5 848 c 128,-1,18
 604 837 604 837 620 828.5 c 128,-1,19
 636 820 636 820 653 820 c 0,20,21
 672 820 672 820 685.5 829.5 c 128,-1,22
 699 839 699 839 710 851 c 0,23,24
 721 865 721 865 730 882 c 1,25,-1
 754 882 l 1,26,27
 742 848 742 848 724 822 c 0,28,29
 707 800 707 800 681.5 782 c 128,-1,30
 656 764 656 764 618 764 c 0,31,32
 592 764 592 764 573.5 772 c 128,-1,33
 555 780 555 780 539.5 791 c 128,-1,34
 524 802 524 802 509 810.5 c 128,-1,35
 494 819 494 819 474 819 c 0,36,37
 455 819 455 819 440.5 810.5 c 128,-1,38
 426 802 426 802 417 791 c 0,39,40
 406 779 406 779 399 765 c 1,41,-1
 373 765 l 1,10,11
EndSplineSet
EndChar
StartChar: Ograve
Encoding: 210 210 147
Width: 912
VWidth: 1533
Flags: W
HStem: -26 29<339.286 577.734> 710 29<457.384 695.672>
Fore
937 357 m 0,0,1
 921 271 921 271 873.5 200.5 c 128,-1,2
 826 130 826 130 759.5 79.5 c 128,-1,3
 693 29 693 29 612.5 1.5 c 128,-1,4
 532 -26 532 -26 451 -26 c 256,5,6
 370 -26 370 -26 299 1.5 c 128,-1,7
 228 29 228 29 179 79.5 c 128,-1,8
 130 130 130 130 107 200.5 c 128,-1,9
 84 271 84 271 100 356 c 256,10,11
 115 440 115 440 162.5 510.5 c 128,-1,12
 210 581 210 581 277.5 631.5 c 128,-1,13
 345 682 345 682 425.5 710.5 c 128,-1,14
 506 739 506 739 586 739 c 256,15,16
 665 739 665 739 735.5 711.5 c 128,-1,17
 806 684 806 684 856 633.5 c 128,-1,18
 906 583 906 583 929 512.5 c 128,-1,19
 952 442 952 442 937 357 c 0,0,1
834 357 m 0,20,21
 846 428 846 428 836 492.5 c 128,-1,22
 826 557 826 557 795 605 c 128,-1,23
 764 653 764 653 710 681.5 c 128,-1,24
 656 710 656 710 581 710 c 0,25,26
 504 710 504 710 440.5 681.5 c 128,-1,27
 377 653 377 653 328 605 c 128,-1,28
 279 557 279 557 246 492.5 c 128,-1,29
 213 428 213 428 201 356 c 256,30,31
 189 284 189 284 199 220 c 128,-1,32
 209 156 209 156 240 108 c 128,-1,33
 271 60 271 60 325 31.5 c 128,-1,34
 379 3 379 3 455 3 c 0,35,36
 530 3 530 3 594.5 31.5 c 128,-1,37
 659 60 659 60 708 109 c 128,-1,38
 757 158 757 158 789.5 221.5 c 128,-1,39
 822 285 822 285 834 357 c 0,20,21
691 768 m 1,40,-1
 549 879 l 2,41,42
 529 894 529 894 520.5 904 c 128,-1,43
 512 914 512 914 515 926 c 0,44,45
 518 940 518 940 528 950 c 128,-1,46
 538 960 538 960 552 960 c 0,47,48
 576 960 576 960 587 943 c 2,49,-1
 724 770 l 1,50,-1
 691 768 l 1,40,-1
EndSplineSet
Ligature2: "'liga' Standard Ligatures in Latin lookup 19 subtable" O gravecomb
EndChar
StartChar: Oacute
Encoding: 211 211 148
Width: 912
VWidth: 1533
Flags: W
HStem: -26 29<339.286 577.734> 710 29<457.384 695.672>
Fore
937 357 m 0,0,1
 952 442 952 442 929 512.5 c 128,-1,2
 906 583 906 583 856 633.5 c 128,-1,3
 806 684 806 684 735.5 711.5 c 128,-1,4
 665 739 665 739 586 739 c 256,5,6
 506 739 506 739 425.5 710.5 c 128,-1,7
 345 682 345 682 277.5 631.5 c 128,-1,8
 210 581 210 581 162.5 510.5 c 128,-1,9
 115 440 115 440 100 356 c 256,10,11
 84 271 84 271 107 200.5 c 128,-1,12
 130 130 130 130 179 79.5 c 128,-1,13
 228 29 228 29 299 1.5 c 128,-1,14
 370 -26 370 -26 451 -26 c 256,15,16
 532 -26 532 -26 612.5 1.5 c 128,-1,17
 693 29 693 29 759.5 79.5 c 128,-1,18
 826 130 826 130 873.5 200.5 c 128,-1,19
 921 271 921 271 937 357 c 0,0,1
834 357 m 0,20,21
 822 285 822 285 789.5 221.5 c 128,-1,22
 757 158 757 158 708 109 c 128,-1,23
 659 60 659 60 594.5 31.5 c 128,-1,24
 530 3 530 3 455 3 c 0,25,26
 379 3 379 3 325 31.5 c 128,-1,27
 271 60 271 60 240 108 c 128,-1,28
 209 156 209 156 199 220 c 128,-1,29
 189 284 189 284 201 356 c 256,30,31
 213 428 213 428 246 492.5 c 128,-1,32
 279 557 279 557 328 605 c 128,-1,33
 377 653 377 653 440.5 681.5 c 128,-1,34
 504 710 504 710 581 710 c 0,35,36
 656 710 656 710 710 681.5 c 128,-1,37
 764 653 764 653 795 605 c 128,-1,38
 826 557 826 557 836 492.5 c 128,-1,39
 846 428 846 428 834 357 c 0,20,21
484 770 m 1,40,-1
 682 943 l 2,41,42
 701 960 701 960 724 960 c 0,43,44
 739 960 739 960 746 950 c 128,-1,45
 753 940 753 940 750 926 c 0,46,47
 747 914 747 914 736 904 c 128,-1,48
 725 894 725 894 701 879 c 2,49,-1
 517 768 l 1,50,-1
 484 770 l 1,40,-1
EndSplineSet
Ligature2: "'liga' Standard Ligatures in Latin lookup 19 subtable" O acutecomb
EndChar
StartChar: Otilde
Encoding: 213 213 150
Width: 912
VWidth: 1533
Flags: W
HStem: -26 29<339.286 577.734> 710 29<457.384 695.672> 774 57<645.803 714.888> 829 57<475.369 547.538>
Fore
937 357 m 0,0,1
 921 271 921 271 873.5 200.5 c 128,-1,2
 826 130 826 130 759.5 79.5 c 128,-1,3
 693 29 693 29 612.5 1.5 c 128,-1,4
 532 -26 532 -26 451 -26 c 256,5,6
 370 -26 370 -26 299 1.5 c 128,-1,7
 228 29 228 29 179 79.5 c 128,-1,8
 130 130 130 130 107 200.5 c 128,-1,9
 84 271 84 271 100 356 c 256,10,11
 115 440 115 440 162.5 510.5 c 128,-1,12
 210 581 210 581 277.5 631.5 c 128,-1,13
 345 682 345 682 425.5 710.5 c 128,-1,14
 506 739 506 739 586 739 c 256,15,16
 665 739 665 739 735.5 711.5 c 128,-1,17
 806 684 806 684 856 633.5 c 128,-1,18
 906 583 906 583 929 512.5 c 128,-1,19
 952 442 952 442 937 357 c 0,0,1
834 357 m 0,20,21
 846 428 846 428 836 492.5 c 128,-1,22
 826 557 826 557 795 605 c 128,-1,23
 764 653 764 653 710 681.5 c 128,-1,24
 656 710 656 710 581 710 c 0,25,26
 504 710 504 710 440.5 681.5 c 128,-1,27
 377 653 377 653 328 605 c 128,-1,28
 279 557 279 557 246 492.5 c 128,-1,29
 213 428 213 428 201 356 c 256,30,31
 189 284 189 284 199 220 c 128,-1,32
 209 156 209 156 240 108 c 128,-1,33
 271 60 271 60 325 31.5 c 128,-1,34
 379 3 379 3 455 3 c 0,35,36
 530 3 530 3 594.5 31.5 c 128,-1,37
 659 60 659 60 708 109 c 128,-1,38
 757 158 757 158 789.5 221.5 c 128,-1,39
 822 285 822 285 834 357 c 0,20,21
405 776 m 1,40,41
 417 806 417 806 435 831 c 0,42,43
 452 852 452 852 476.5 869 c 128,-1,44
 501 886 501 886 537 886 c 0,45,46
 561 886 561 886 581 877.5 c 128,-1,47
 601 869 601 869 618.5 858.5 c 128,-1,48
 636 848 636 848 652 839.5 c 128,-1,49
 668 831 668 831 685 831 c 0,50,51
 704 831 704 831 717.5 840 c 128,-1,52
 731 849 731 849 742 862 c 128,-1,53
 753 875 753 875 762 892 c 1,54,-1
 787 892 l 1,55,56
 774 859 774 859 756 833 c 0,57,58
 739 811 739 811 713.5 792.5 c 128,-1,59
 688 774 688 774 650 774 c 0,60,61
 624 774 624 774 605.5 782.5 c 128,-1,62
 587 791 587 791 572 802 c 128,-1,63
 557 813 557 813 541.5 821 c 128,-1,64
 526 829 526 829 506 829 c 0,65,66
 488 829 488 829 473 821 c 128,-1,67
 458 813 458 813 449 802 c 0,68,69
 438 790 438 790 431 776 c 1,70,-1
 405 776 l 1,40,41
EndSplineSet
Ligature2: "'liga' Standard Ligatures in Latin lookup 19 subtable" O tildecomb
EndChar
StartChar: multiply
Encoding: 215 215 152
Width: 662
VWidth: 1533
Flags: W
Fore
374 250 m 1,0,-1
 87 3 l 1,1,-1
 54 43 l 1,2,-1
 342 291 l 1,3,-1
 141 538 l 1,4,-1
 189 578 l 1,5,-1
 389 331 l 1,6,-1
 676 578 l 1,7,-1
 708 538 l 1,8,-1
 422 291 l 1,9,-1
 621 43 l 1,10,-1
 575 3 l 1,11,-1
 374 250 l 1,0,-1
EndSplineSet
EndChar
StartChar: Oslash
Encoding: 216 216 153
Width: 949
VWidth: 1533
Flags: W
HStem: -25 36<373.984 593.761> 702 37<487.667 708.046>
Fore
879 638 m 1,0,1
 931 584 931 584 954 512 c 128,-1,2
 977 440 977 440 963 357 c 0,3,4
 949 279 949 279 904 209.5 c 128,-1,5
 859 140 859 140 793 87.5 c 128,-1,6
 727 35 727 35 645 5 c 128,-1,7
 563 -25 563 -25 475 -25 c 0,8,9
 402 -25 402 -25 340 -4 c 128,-1,10
 278 17 278 17 232 55 c 1,11,-1
 87 -75 l 1,12,-1
 25 -75 l 1,13,-1
 201 84 l 1,14,15
 152 136 152 136 130.5 206 c 128,-1,16
 109 276 109 276 124 357 c 0,17,18
 138 437 138 437 183 506 c 128,-1,19
 228 575 228 575 294 627 c 128,-1,20
 360 679 360 679 441.5 709 c 128,-1,21
 523 739 523 739 609 739 c 0,22,23
 679 739 679 739 739.5 719 c 128,-1,24
 800 699 800 699 846 664 c 1,25,-1
 986 791 l 1,26,-1
 1049 791 l 1,27,-1
 879 638 l 1,0,1
860 359 m 0,28,29
 872 426 872 426 860.5 483.5 c 128,-1,30
 849 541 849 541 820 586 c 1,31,-1
 282 101 l 1,32,33
 319 58 319 58 369.5 34.5 c 128,-1,34
 420 11 420 11 480 11 c 0,35,36
 544 11 544 11 606 37.5 c 128,-1,37
 668 64 668 64 720.5 111.5 c 128,-1,38
 773 159 773 159 809.5 222 c 128,-1,39
 846 285 846 285 860 359 c 0,28,29
225 359 m 0,40,41
 213 294 213 294 223 237.5 c 128,-1,42
 233 181 233 181 259 135 c 1,43,-1
 796 618 l 1,44,45
 759 658 759 658 709 680 c 128,-1,46
 659 702 659 702 601 702 c 0,47,48
 538 702 538 702 476 676 c 128,-1,49
 414 650 414 650 362.5 604 c 128,-1,50
 311 558 311 558 275 495 c 128,-1,51
 239 432 239 432 225 359 c 0,40,41
EndSplineSet
EndChar
StartChar: Ugrave
Encoding: 217 217 154
Width: 878
VWidth: 1533
Flags: W
HStem: -25 34<329.062 558.212> 696 20G<198.471 285 842.471 928>
Fore
852 291 m 2,0,1
 839 209 839 209 799.5 149.5 c 128,-1,2
 760 90 760 90 704.5 51 c 128,-1,3
 649 12 649 12 579 -6.5 c 128,-1,4
 509 -25 509 -25 434 -25 c 256,5,6
 359 -25 359 -25 296 -6.5 c 128,-1,7
 233 12 233 12 191 51 c 128,-1,8
 149 90 149 90 131 150 c 128,-1,9
 113 210 113 210 127 291 c 2,10,-1
 202 716 l 1,11,-1
 285 716 l 1,12,-1
 207 274 l 2,13,14
 196 213 196 213 209 164 c 128,-1,15
 222 115 222 115 253.5 80.5 c 128,-1,16
 285 46 285 46 332.5 27.5 c 128,-1,17
 380 9 380 9 440 9 c 256,18,19
 500 9 500 9 554.5 27.5 c 128,-1,20
 609 46 609 46 652.5 80.5 c 128,-1,21
 696 115 696 115 726.5 164 c 128,-1,22
 757 213 757 213 768 274 c 2,23,-1
 846 716 l 1,24,-1
 928 716 l 1,25,-1
 852 291 l 2,0,1
665 760 m 1,26,-1
 523 871 l 2,27,28
 503 886 503 886 494.5 896 c 128,-1,29
 486 906 486 906 489 918 c 0,30,31
 492 932 492 932 502 942 c 128,-1,32
 512 952 512 952 526 952 c 0,33,34
 550 952 550 952 561 935 c 2,35,-1
 698 762 l 1,36,-1
 665 760 l 1,26,-1
EndSplineSet
Ligature2: "'liga' Standard Ligatures in Latin lookup 19 subtable" U gravecomb
EndChar
StartChar: Uacute
Encoding: 218 218 155
Width: 878
VWidth: 1533
Flags: W
HStem: -25 34<329.062 558.212> 696 20G<202 281.471 846 924.424>
Fore
852 291 m 2,0,-1
 928 716 l 1,1,-1
 846 716 l 1,2,-1
 768 274 l 2,3,4
 757 213 757 213 726.5 164 c 128,-1,5
 696 115 696 115 652.5 80.5 c 128,-1,6
 609 46 609 46 554.5 27.5 c 128,-1,7
 500 9 500 9 440 9 c 256,8,9
 380 9 380 9 332.5 27.5 c 128,-1,10
 285 46 285 46 253.5 80.5 c 128,-1,11
 222 115 222 115 209 164 c 128,-1,12
 196 213 196 213 207 274 c 2,13,-1
 285 716 l 1,14,-1
 202 716 l 1,15,-1
 127 291 l 2,16,17
 113 210 113 210 131 150 c 128,-1,18
 149 90 149 90 191 51 c 128,-1,19
 233 12 233 12 296 -6.5 c 128,-1,20
 359 -25 359 -25 434 -25 c 256,21,22
 509 -25 509 -25 579 -6.5 c 128,-1,23
 649 12 649 12 704.5 51 c 128,-1,24
 760 90 760 90 799.5 149.5 c 128,-1,25
 839 209 839 209 852 291 c 2,0,-1
454 764 m 1,26,-1
 652 937 l 2,27,28
 670 954 670 954 693 954 c 0,29,30
 708 954 708 954 715 944 c 128,-1,31
 722 934 722 934 719 920 c 0,32,33
 716 908 716 908 705.5 898 c 128,-1,34
 695 888 695 888 670 872 c 2,35,-1
 486 762 l 1,36,-1
 454 764 l 1,26,-1
EndSplineSet
Ligature2: "'liga' Standard Ligatures in Latin lookup 19 subtable" U acutecomb
EndChar
StartChar: Yacute
Encoding: 221 221 158
Width: 737
VWidth: 1533
Flags: W
HStem: 0 21G<319.518 402> 696 20G<144.589 224 806 835.797>
Fore
856 716 m 1,0,-1
 806 716 l 1,1,-1
 440 350 l 1,2,-1
 224 716 l 1,3,-1
 133 716 l 1,4,-1
 370 307 l 1,5,-1
 316 0 l 1,6,-1
 402 0 l 1,7,-1
 458 322 l 1,8,-1
 856 716 l 1,0,-1
394 765 m 1,9,-1
 592 938 l 2,10,11
 610 955 610 955 633 955 c 0,12,13
 649 955 649 955 655.5 945 c 128,-1,14
 662 935 662 935 659 921 c 0,15,16
 656 909 656 909 645.5 899 c 128,-1,17
 635 889 635 889 610 874 c 2,18,-1
 426 764 l 1,19,-1
 394 765 l 1,9,-1
EndSplineSet
Ligature2: "'liga' Standard Ligatures in Latin lookup 19 subtable" Y acutecomb
EndChar
StartChar: Thorn
Encoding: 222 222 159
Width: 700
VWidth: 1533
Flags: W
HStem: 0 21G<95 181.473> 167 38<213 238.798 238.798 300.392 300.392 393.44> 489 37<268 295.604 295.604 358.665 358.665 400.058 400.058 433.454 433.454 441.5 473 528.233>
Fore
719 353 m 0,0,1
 711 313 711 313 691.5 284 c 128,-1,2
 672 255 672 255 642 235 c 128,-1,3
 612 215 612 215 574.5 202 c 128,-1,4
 537 189 537 189 497 181 c 0,5,6
 415 167 415 167 336 167 c 0,7,8
 297 166 297 166 265 166.5 c 128,-1,9
 233 167 233 167 207 167 c 1,10,-1
 178 0 l 1,11,-1
 95 0 l 1,12,-1
 210 656 l 1,13,-1
 291 656 l 1,14,-1
 268 526 l 1,15,16
 291 526 291 526 323.5 526.5 c 128,-1,17
 356 527 356 527 394 527 c 0,18,19
 432 526 432 526 473 523.5 c 128,-1,20
 514 521 514 521 552 514 c 0,21,22
 589 506 589 506 622.5 494.5 c 128,-1,23
 656 483 656 483 680 464 c 128,-1,24
 704 445 704 445 714.5 417 c 128,-1,25
 725 389 725 389 719 353 c 0,0,1
613 353 m 0,26,27
 622 400 622 400 596 427.5 c 128,-1,28
 570 455 570 455 529.5 469 c 128,-1,29
 489 483 489 483 441.5 486 c 128,-1,30
 394 489 394 489 359 489 c 2,31,-1
 264 489 l 1,32,-1
 213 205 l 1,33,-1
 304 205 l 2,34,35
 345 205 345 205 395 208.5 c 128,-1,36
 445 212 445 212 491 225.5 c 128,-1,37
 537 239 537 239 570.5 269 c 128,-1,38
 604 299 604 299 613 353 c 0,26,27
EndSplineSet
EndChar
StartChar: uni00DF
Encoding: 223 223 160
Width: 696
VWidth: 1533
Flags: W
HStem: -18 35<373.205 482.39> 417 30<402.104 444.119 444.119 510.28> 776 35<371.409 536.756>
Fore
158 0 m 1,0,-1
 77 0 l 1,1,-1
 170 532 l 2,2,3
 193 665 193 665 275 738 c 128,-1,4
 357 811 357 811 472 811 c 0,5,6
 520 811 520 811 564.5 800.5 c 128,-1,7
 609 790 609 790 641 767 c 128,-1,8
 673 744 673 744 688.5 706 c 128,-1,9
 704 668 704 668 695 615 c 0,10,11
 682 543 682 543 630 498.5 c 128,-1,12
 578 454 578 454 495 435 c 1,13,14
 538 435 538 435 578 418.5 c 128,-1,15
 618 402 618 402 645.5 372 c 128,-1,16
 673 342 673 342 687 301.5 c 128,-1,17
 701 261 701 261 693 213 c 0,18,19
 685 164 685 164 658.5 122 c 128,-1,20
 632 80 632 80 592.5 48.5 c 128,-1,21
 553 17 553 17 505.5 -0.5 c 128,-1,22
 458 -18 458 -18 409 -18 c 0,23,24
 370 -18 370 -18 323 -10 c 128,-1,25
 276 -2 276 -2 247 26 c 1,26,-1
 299 101 l 1,27,28
 304 89 304 89 315.5 73.5 c 128,-1,29
 327 58 327 58 343 46 c 128,-1,30
 359 34 359 34 378 25.5 c 128,-1,31
 397 17 397 17 419 17 c 0,32,33
 452 17 452 17 479.5 34.5 c 128,-1,34
 507 52 507 52 528.5 79.5 c 128,-1,35
 550 107 550 107 564 141.5 c 128,-1,36
 578 176 578 176 584 210 c 0,37,38
 590 248 590 248 587 286 c 128,-1,39
 584 324 584 324 568.5 353 c 128,-1,40
 553 382 553 382 525.5 399.5 c 128,-1,41
 498 417 498 417 457 417 c 0,42,43
 435 417 435 417 424.5 417 c 128,-1,44
 414 417 414 417 394 414 c 1,45,-1
 400 451 l 1,46,47
 417 446 417 446 428.5 447 c 128,-1,48
 440 448 440 448 460 448 c 0,49,50
 488 448 488 448 511 461.5 c 128,-1,51
 534 475 534 475 550 498 c 128,-1,52
 566 521 566 521 576.5 549.5 c 128,-1,53
 587 578 587 578 592 607 c 0,54,55
 609 699 609 699 572 737.5 c 128,-1,56
 535 776 535 776 466 776 c 0,57,58
 374 776 374 776 323.5 714 c 128,-1,59
 273 652 273 652 251 535 c 2,60,-1
 158 0 l 1,0,-1
EndSplineSet
EndChar
StartChar: agrave
Encoding: 224 224 161
Width: 616
VWidth: 1533
Flags: W
HStem: -15 35<223.487 374.112> 293 38<268.96 340.5 359.5 389.555 389.555 407.304 407.304 526> 512 38<350.73 486.821>
VStem: 494.5 65<30.4922 88.2819>
Fore
500 0 m 1,0,1
 495 25 495 25 494.5 45.5 c 128,-1,2
 494 66 494 66 497 89 c 1,3,4
 445 29 445 29 385 7 c 128,-1,5
 325 -15 325 -15 251 -15 c 0,6,7
 213 -15 213 -15 174.5 -6 c 128,-1,8
 136 3 136 3 108 23 c 128,-1,9
 80 43 80 43 64.5 75 c 128,-1,10
 49 107 49 107 57 152 c 0,11,12
 64 199 64 199 94 230.5 c 128,-1,13
 124 262 124 262 166.5 282 c 128,-1,14
 209 302 209 302 259.5 313 c 128,-1,15
 310 324 310 324 359.5 327.5 c 128,-1,16
 409 331 409 331 455 331 c 128,-1,17
 501 331 501 331 534 331 c 1,18,-1
 537 353 l 2,19,20
 550 432 550 432 510.5 472 c 128,-1,21
 471 512 471 512 392 512 c 0,22,23
 366 512 366 512 336.5 503.5 c 128,-1,24
 307 495 307 495 281 479 c 128,-1,25
 255 463 255 463 235 439 c 128,-1,26
 215 415 215 415 210 386 c 1,27,-1
 126 386 l 1,28,29
 144 432 144 432 173 463.5 c 128,-1,30
 202 495 202 495 238 514.5 c 128,-1,31
 274 534 274 534 315.5 542 c 128,-1,32
 357 550 357 550 400 550 c 0,33,34
 472 550 472 550 515 535 c 128,-1,35
 558 520 558 520 580.5 493 c 128,-1,36
 603 466 603 466 606.5 429 c 128,-1,37
 610 392 610 392 606 351 c 0,38,39
 599 308 599 308 588.5 263 c 128,-1,40
 578 218 578 218 569.5 172.5 c 128,-1,41
 561 127 561 127 559.5 83.5 c 128,-1,42
 558 40 558 40 570 0 c 1,43,-1
 500 0 l 1,0,1
422 293 m 2,44,45
 385 293 385 293 340.5 287.5 c 128,-1,46
 296 282 296 282 255.5 266.5 c 128,-1,47
 215 251 215 251 184 223.5 c 128,-1,48
 153 196 153 196 146 150 c 0,49,50
 140 118 140 118 149.5 94.5 c 128,-1,51
 159 71 159 71 180 54 c 128,-1,52
 201 37 201 37 228.5 28.5 c 128,-1,53
 256 20 256 20 285 20 c 0,54,55
 333 20 333 20 372 38.5 c 128,-1,56
 411 57 411 57 441 87.5 c 128,-1,57
 471 118 471 118 491 158.5 c 128,-1,58
 511 199 511 199 518 244 c 2,59,-1
 526 293 l 1,60,-1
 422 293 l 2,44,45
494 595 m 1,61,-1
 351 705 l 2,62,63
 331 721 331 721 322.5 731 c 128,-1,64
 314 741 314 741 317 753 c 0,65,66
 320 767 320 767 330 777 c 128,-1,67
 340 787 340 787 354 787 c 0,68,69
 379 787 379 787 389 770 c 2,70,-1
 526 596 l 1,71,-1
 494 595 l 1,61,-1
EndSplineSet
Ligature2: "'liga' Standard Ligatures in Latin lookup 19 subtable" a gravecomb
EndChar
StartChar: aacute
Encoding: 225 225 162
Width: 616
VWidth: 1533
Flags: W
HStem: -15 35<223.487 374.112> 293 38<268.96 340.5 359.5 389.555 389.555 407.304 407.304 422> 512 38<350.73 486.821>
VStem: 500 70<0 45.1477>
Fore
570 0 m 1,0,1
 558 40 558 40 559.5 83.5 c 128,-1,2
 561 127 561 127 569.5 172.5 c 128,-1,3
 578 218 578 218 588.5 263 c 128,-1,4
 599 308 599 308 606 351 c 0,5,6
 610 392 610 392 606.5 429 c 128,-1,7
 603 466 603 466 580.5 493 c 128,-1,8
 558 520 558 520 515 535 c 128,-1,9
 472 550 472 550 400 550 c 0,10,11
 357 550 357 550 315.5 542 c 128,-1,12
 274 534 274 534 238 514.5 c 128,-1,13
 202 495 202 495 173 463.5 c 128,-1,14
 144 432 144 432 126 386 c 1,15,-1
 210 386 l 1,16,17
 215 415 215 415 235 439 c 128,-1,18
 255 463 255 463 281 479 c 128,-1,19
 307 495 307 495 336.5 503.5 c 128,-1,20
 366 512 366 512 392 512 c 0,21,22
 471 512 471 512 510.5 472 c 128,-1,23
 550 432 550 432 537 353 c 2,24,-1
 534 331 l 1,25,26
 501 331 501 331 455 331 c 128,-1,27
 409 331 409 331 359.5 327.5 c 128,-1,28
 310 324 310 324 259.5 313 c 128,-1,29
 209 302 209 302 166.5 282 c 128,-1,30
 124 262 124 262 94 230.5 c 128,-1,31
 64 199 64 199 57 152 c 0,32,33
 49 107 49 107 64.5 75 c 128,-1,34
 80 43 80 43 108 23 c 128,-1,35
 136 3 136 3 174.5 -6 c 128,-1,36
 213 -15 213 -15 251 -15 c 0,37,38
 325 -15 325 -15 385 7 c 128,-1,39
 445 29 445 29 497 89 c 1,40,41
 494 66 494 66 494.5 45.5 c 128,-1,42
 495 25 495 25 500 0 c 1,43,-1
 570 0 l 1,0,1
526 293 m 1,44,-1
 518 244 l 2,45,46
 511 199 511 199 491 158.5 c 128,-1,47
 471 118 471 118 441 87.5 c 128,-1,48
 411 57 411 57 372 38.5 c 128,-1,49
 333 20 333 20 285 20 c 0,50,51
 256 20 256 20 228.5 28.5 c 128,-1,52
 201 37 201 37 180 54 c 128,-1,53
 159 71 159 71 149.5 94.5 c 128,-1,54
 140 118 140 118 146 150 c 0,55,56
 153 196 153 196 184 223.5 c 128,-1,57
 215 251 215 251 255.5 266.5 c 128,-1,58
 296 282 296 282 340.5 287.5 c 128,-1,59
 385 293 385 293 422 293 c 2,60,-1
 526 293 l 1,44,-1
293 593 m 1,61,-1
 491 767 l 2,62,63
 509 783 509 783 532 783 c 0,64,65
 547 783 547 783 554 773.5 c 128,-1,66
 561 764 561 764 558 750 c 0,67,68
 555 737 555 737 544.5 727.5 c 128,-1,69
 534 718 534 718 509 702 c 2,70,-1
 325 592 l 1,71,-1
 293 593 l 1,61,-1
EndSplineSet
Ligature2: "'liga' Standard Ligatures in Latin lookup 19 subtable" a acutecomb
EndChar
StartChar: atilde
Encoding: 227 227 164
Width: 616
VWidth: 1533
Flags: W
HStem: -15 35<223.487 374.112> 293 38<268.96 340.5 359.5 389.555 389.555 407.304 407.304 526> 512 38<350.73 486.821> 592 57<463.196 532.631> 647 57<293.111 363.725>
VStem: 494.5 65<30.4922 88.2819>
Fore
500 0 m 1,0,1
 495 25 495 25 494.5 45.5 c 128,-1,2
 494 66 494 66 497 89 c 1,3,4
 445 29 445 29 385 7 c 128,-1,5
 325 -15 325 -15 251 -15 c 0,6,7
 213 -15 213 -15 174.5 -6 c 128,-1,8
 136 3 136 3 108 23 c 128,-1,9
 80 43 80 43 64.5 75 c 128,-1,10
 49 107 49 107 57 152 c 0,11,12
 64 199 64 199 94 230.5 c 128,-1,13
 124 262 124 262 166.5 282 c 128,-1,14
 209 302 209 302 259.5 313 c 128,-1,15
 310 324 310 324 359.5 327.5 c 128,-1,16
 409 331 409 331 455 331 c 128,-1,17
 501 331 501 331 534 331 c 1,18,-1
 537 353 l 2,19,20
 550 432 550 432 510.5 472 c 128,-1,21
 471 512 471 512 392 512 c 0,22,23
 366 512 366 512 336.5 503.5 c 128,-1,24
 307 495 307 495 281 479 c 128,-1,25
 255 463 255 463 235 439 c 128,-1,26
 215 415 215 415 210 386 c 1,27,-1
 126 386 l 1,28,29
 144 432 144 432 173 463.5 c 128,-1,30
 202 495 202 495 238 514.5 c 128,-1,31
 274 534 274 534 315.5 542 c 128,-1,32
 357 550 357 550 400 550 c 0,33,34
 472 550 472 550 515 535 c 128,-1,35
 558 520 558 520 580.5 493 c 128,-1,36
 603 466 603 466 606.5 429 c 128,-1,37
 610 392 610 392 606 351 c 0,38,39
 599 308 599 308 588.5 263 c 128,-1,40
 578 218 578 218 569.5 172.5 c 128,-1,41
 561 127 561 127 559.5 83.5 c 128,-1,42
 558 40 558 40 570 0 c 1,43,-1
 500 0 l 1,0,1
422 293 m 2,44,45
 385 293 385 293 340.5 287.5 c 128,-1,46
 296 282 296 282 255.5 266.5 c 128,-1,47
 215 251 215 251 184 223.5 c 128,-1,48
 153 196 153 196 146 150 c 0,49,50
 140 118 140 118 149.5 94.5 c 128,-1,51
 159 71 159 71 180 54 c 128,-1,52
 201 37 201 37 228.5 28.5 c 128,-1,53
 256 20 256 20 285 20 c 0,54,55
 333 20 333 20 372 38.5 c 128,-1,56
 411 57 411 57 441 87.5 c 128,-1,57
 471 118 471 118 491 158.5 c 128,-1,58
 511 199 511 199 518 244 c 2,59,-1
 526 293 l 1,60,-1
 422 293 l 2,44,45
222 593 m 1,61,62
 235 624 235 624 253 649 c 0,63,64
 270 670 270 670 294.5 687 c 128,-1,65
 319 704 319 704 354 704 c 0,66,67
 379 704 379 704 399 695.5 c 128,-1,68
 419 687 419 687 436.5 676 c 128,-1,69
 454 665 454 665 470 657 c 128,-1,70
 486 649 486 649 503 649 c 0,71,72
 521 649 521 649 535 658 c 128,-1,73
 549 667 549 667 560 679 c 0,74,75
 570 693 570 693 580 710 c 1,76,-1
 604 710 l 1,77,78
 592 676 592 676 573 650 c 0,79,80
 557 629 557 629 531.5 610.5 c 128,-1,81
 506 592 506 592 468 592 c 0,82,83
 442 592 442 592 423.5 600.5 c 128,-1,84
 405 609 405 609 389.5 619.5 c 128,-1,85
 374 630 374 630 358.5 638.5 c 128,-1,86
 343 647 343 647 324 647 c 128,-1,87
 305 647 305 647 290.5 638.5 c 128,-1,88
 276 630 276 630 267 619 c 0,89,90
 256 607 256 607 248 593 c 1,91,-1
 222 593 l 1,61,62
EndSplineSet
Ligature2: "'liga' Standard Ligatures in Latin lookup 19 subtable" a tildecomb
EndChar
StartChar: ae
Encoding: 230 230 167
Width: 1036
VWidth: 1533
Flags: W
HStem: -15 38<182.492 319.436 671.848 822.835> 294 37<334.662 442.172 442.172 498> 333 38<615 958> 509 41<321.025 455.539 709.952 893.452>
Fore
1035 216 m 1,0,1
 994 110 994 110 916.5 46.5 c 128,-1,2
 839 -17 839 -17 728 -17 c 0,3,4
 690 -17 690 -17 653 -7.5 c 128,-1,5
 616 2 616 2 585.5 19.5 c 128,-1,6
 555 37 555 37 531 63.5 c 128,-1,7
 507 90 507 90 497 126 c 1,8,9
 468 84 468 84 439.5 56.5 c 128,-1,10
 411 29 411 29 379.5 13 c 128,-1,11
 348 -3 348 -3 310.5 -9 c 128,-1,12
 273 -15 273 -15 225 -15 c 0,13,14
 186 -15 186 -15 151.5 -6 c 128,-1,15
 117 3 117 3 93 23.5 c 128,-1,16
 69 44 69 44 59 75 c 128,-1,17
 49 106 49 106 57 150 c 0,18,19
 69 222 69 222 122.5 259 c 128,-1,20
 176 296 176 296 245 312 c 128,-1,21
 314 328 314 328 385.5 329.5 c 128,-1,22
 457 331 457 331 506 331 c 1,23,-1
 509 353 l 2,24,25
 537 509 537 509 380 509 c 0,26,27
 354 509 354 509 326.5 500.5 c 128,-1,28
 299 492 299 492 276 476.5 c 128,-1,29
 253 461 253 461 235.5 438 c 128,-1,30
 218 415 218 415 213 386 c 1,31,-1
 127 386 l 1,32,33
 164 478 164 478 232.5 514 c 128,-1,34
 301 550 301 550 388 550 c 0,35,36
 419 550 419 550 450 545 c 128,-1,37
 481 540 481 540 508 527 c 128,-1,38
 535 514 535 514 554 493 c 128,-1,39
 573 472 573 472 580 440 c 1,40,41
 624 491 624 491 687 520.5 c 128,-1,42
 750 550 750 550 814 550 c 0,43,44
 929 550 929 550 985 499 c 128,-1,45
 1041 448 1041 448 1046 333 c 1,46,-1
 598 333 l 1,47,48
 590 314 590 314 585.5 296.5 c 128,-1,49
 581 279 581 279 578 262 c 0,50,51
 569 213 569 213 574.5 169.5 c 128,-1,52
 580 126 580 126 600.5 93 c 128,-1,53
 621 60 621 60 657 40.5 c 128,-1,54
 693 21 693 21 745 21 c 0,55,56
 787 21 787 21 819 38 c 128,-1,57
 851 55 851 55 876.5 82.5 c 128,-1,58
 902 110 902 110 921 145.5 c 128,-1,59
 940 181 940 181 952 216 c 1,60,-1
 1035 216 l 1,0,1
958 371 m 1,61,62
 951 435 951 435 913 473 c 128,-1,63
 875 511 875 511 806 511 c 0,64,65
 733 511 733 511 689 474 c 128,-1,66
 645 437 645 437 615 371 c 1,67,-1
 958 371 l 1,61,62
498 294 m 1,68,-1
 400 294 l 2,69,70
 362 294 362 294 320.5 289 c 128,-1,71
 279 284 279 284 244 268.5 c 128,-1,72
 209 253 209 253 182 224.5 c 128,-1,73
 155 196 155 196 147 150 c 0,74,75
 135 87 135 87 167 55 c 128,-1,76
 199 23 199 23 261 23 c 0,77,78
 310 23 310 23 349 40 c 128,-1,79
 388 57 388 57 416.5 87 c 128,-1,80
 445 117 445 117 463 157.5 c 128,-1,81
 481 198 481 198 491 244 c 2,82,-1
 498 294 l 1,68,-1
EndSplineSet
EndChar
StartChar: ccedilla
Encoding: 231 231 168
Width: 645
VWidth: 1533
Flags: W
HStem: -241 32<244.479 327.948> -104 32<338.038 363.015> -17 17<350 378.379> 512 38<334.622 500.548>
VStem: 376 75<-188.952 -155 -155 -130.43>
Fore
586 386 m 1,0,1
 573 448 573 448 532 480 c 128,-1,2
 491 512 491 512 426 512 c 0,3,4
 377 512 377 512 335 491.5 c 128,-1,5
 293 471 293 471 260 437 c 128,-1,6
 227 403 227 403 204.5 360 c 128,-1,7
 182 317 182 317 175 273 c 0,8,9
 166 225 166 225 171 180.5 c 128,-1,10
 176 136 176 136 197 101 c 128,-1,11
 218 66 218 66 253 44.5 c 128,-1,12
 288 23 288 23 340 23 c 0,13,14
 405 23 405 23 458.5 54.5 c 128,-1,15
 512 86 512 86 544 147 c 1,16,-1
 632 147 l 1,17,18
 612 103 612 103 579 71.5 c 128,-1,19
 546 40 546 40 507 21 c 128,-1,20
 468 2 468 2 424 -7.5 c 128,-1,21
 380 -17 380 -17 340 -17 c 0,22,23
 279 -17 279 -17 227.5 4 c 128,-1,24
 176 25 176 25 140 62.5 c 128,-1,25
 104 100 104 100 89 152 c 128,-1,26
 74 204 74 204 84 267 c 256,27,28
 95 330 95 330 129.5 382 c 128,-1,29
 164 434 164 434 212.5 471.5 c 128,-1,30
 261 509 261 509 320 529.5 c 128,-1,31
 379 550 379 550 440 550 c 0,32,33
 480 550 480 550 520.5 541 c 128,-1,34
 561 532 561 532 594 513 c 128,-1,35
 627 494 627 494 648.5 462.5 c 128,-1,36
 670 431 670 431 675 386 c 1,37,-1
 586 386 l 1,0,1
350 0 m 1,38,-1
 379 0 l 1,39,-1
 333 -77 l 1,40,41
 348 -72 348 -72 359 -72 c 128,-1,42
 370 -72 370 -72 383 -72 c 0,43,44
 414 -72 414 -72 436 -93.5 c 128,-1,45
 458 -115 458 -115 451 -149 c 0,46,47
 446 -172 446 -172 431.5 -189.5 c 128,-1,48
 417 -207 417 -207 396.5 -218.5 c 128,-1,49
 376 -230 376 -230 352 -235.5 c 128,-1,50
 328 -241 328 -241 305 -241 c 0,51,52
 278 -241 278 -241 255.5 -238.5 c 128,-1,53
 233 -236 233 -236 216 -225 c 1,54,-1
 232 -195 l 1,55,56
 256 -209 256 -209 296 -209 c 0,57,58
 320 -209 320 -209 345 -196.5 c 128,-1,59
 370 -184 370 -184 376 -155 c 0,60,61
 379 -133 379 -133 363.5 -118.5 c 128,-1,62
 348 -104 348 -104 331 -104 c 0,63,64
 317 -104 317 -104 302.5 -106.5 c 128,-1,65
 288 -109 288 -109 284 -110 c 1,66,-1
 350 0 l 1,38,-1
EndSplineSet
EndChar
StartChar: egrave
Encoding: 232 232 169
Width: 657
VWidth: 1533
Flags: W
HStem: -17 38<263.306 391.227> 333 38<213 592> 514 36<329.781 511.044>
VStem: 572 75<120.049 190>
Fore
193 333 m 1,0,1
 184 316 184 316 181.5 297.5 c 128,-1,2
 179 279 179 279 176 262 c 0,3,4
 167 213 167 213 174 169.5 c 128,-1,5
 181 126 181 126 204 93 c 128,-1,6
 227 60 227 60 264.5 40.5 c 128,-1,7
 302 21 302 21 354 21 c 0,8,9
 388 21 388 21 423 34.5 c 128,-1,10
 458 48 458 48 488 71 c 128,-1,11
 518 94 518 94 540.5 124.5 c 128,-1,12
 563 155 563 155 572 190 c 1,13,-1
 647 190 l 1,14,15
 635 140 635 140 603.5 100.5 c 128,-1,16
 572 61 572 61 530 35 c 128,-1,17
 488 9 488 9 440 -4 c 128,-1,18
 392 -17 392 -17 347 -17 c 0,19,20
 287 -17 287 -17 234 3 c 128,-1,21
 181 23 181 23 144 59 c 128,-1,22
 107 95 107 95 89.5 146.5 c 128,-1,23
 72 198 72 198 83 261 c 0,24,25
 94 325 94 325 126.5 378 c 128,-1,26
 159 431 159 431 206 469 c 128,-1,27
 253 507 253 507 311.5 528.5 c 128,-1,28
 370 550 370 550 434 550 c 0,29,30
 484 550 484 550 530 537 c 128,-1,31
 576 524 576 524 610.5 497.5 c 128,-1,32
 645 471 645 471 663.5 429.5 c 128,-1,33
 682 388 682 388 678 333 c 1,34,-1
 193 333 l 1,0,1
592 371 m 1,35,36
 583 435 583 435 537 474.5 c 128,-1,37
 491 514 491 514 422 514 c 0,38,39
 356 514 356 514 298.5 474 c 128,-1,40
 241 434 241 434 213 371 c 1,41,-1
 592 371 l 1,35,36
526 595 m 1,42,-1
 383 705 l 2,43,44
 363 721 363 721 355 731 c 128,-1,45
 347 741 347 741 350 753 c 0,46,47
 353 767 353 767 363 777 c 128,-1,48
 373 787 373 787 386 787 c 0,49,50
 411 787 411 787 422 770 c 2,51,-1
 558 596 l 1,52,-1
 526 595 l 1,42,-1
EndSplineSet
Ligature2: "'liga' Standard Ligatures in Latin lookup 19 subtable" e gravecomb
EndChar
StartChar: eacute
Encoding: 233 233 170
Width: 657
VWidth: 1533
Flags: W
HStem: -17 38<263.306 391.227> 514 36<329.781 511.044>
VStem: 572 75<120.049 190>
Fore
678 333 m 1,0,1
 682 388 682 388 663.5 429.5 c 128,-1,2
 645 471 645 471 610.5 497.5 c 128,-1,3
 576 524 576 524 530 537 c 128,-1,4
 484 550 484 550 434 550 c 0,5,6
 370 550 370 550 311.5 528.5 c 128,-1,7
 253 507 253 507 206 469 c 128,-1,8
 159 431 159 431 126.5 378 c 128,-1,9
 94 325 94 325 83 261 c 0,10,11
 72 198 72 198 89.5 146.5 c 128,-1,12
 107 95 107 95 144 59 c 128,-1,13
 181 23 181 23 234 3 c 128,-1,14
 287 -17 287 -17 347 -17 c 0,15,16
 392 -17 392 -17 440 -4 c 128,-1,17
 488 9 488 9 530 35 c 128,-1,18
 572 61 572 61 603.5 100.5 c 128,-1,19
 635 140 635 140 647 190 c 1,20,-1
 572 190 l 1,21,22
 563 155 563 155 540.5 124.5 c 128,-1,23
 518 94 518 94 488 71 c 128,-1,24
 458 48 458 48 423 34.5 c 128,-1,25
 388 21 388 21 354 21 c 0,26,27
 302 21 302 21 264.5 40.5 c 128,-1,28
 227 60 227 60 204 93 c 128,-1,29
 181 126 181 126 174 169.5 c 128,-1,30
 167 213 167 213 176 262 c 0,31,32
 179 279 179 279 181.5 297.5 c 128,-1,33
 184 316 184 316 193 333 c 1,34,-1
 678 333 l 1,0,1
592 371 m 1,35,-1
 213 371 l 1,36,37
 241 434 241 434 298.5 474 c 128,-1,38
 356 514 356 514 422 514 c 0,39,40
 491 514 491 514 537 474.5 c 128,-1,41
 583 435 583 435 592 371 c 1,35,-1
325 596 m 1,42,-1
 523 770 l 2,43,44
 541 787 541 787 564 787 c 0,45,46
 580 787 580 787 586.5 777 c 128,-1,47
 593 767 593 767 590 753 c 0,48,49
 587 741 587 741 576.5 731 c 128,-1,50
 566 721 566 721 541 705 c 2,51,-1
 357 595 l 1,52,-1
 325 596 l 1,42,-1
EndSplineSet
Ligature2: "'liga' Standard Ligatures in Latin lookup 19 subtable" e acutecomb
EndChar
StartChar: igrave
Encoding: 236 236 173
Width: 249
VWidth: 1533
Flags: W
HStem: 0 21G<94 156.534>
VStem: 94 254<0 593 1.53064e-18 1.53064e-18>
Fore
94 0 m 1,0,-1
 187 532 l 1,1,-1
 247 532 l 1,2,-1
 153 0 l 1,3,-1
 94 0 l 1,0,-1
316 592 m 1,4,-1
 173 702 l 2,5,6
 153 718 153 718 144.5 727.5 c 128,-1,7
 136 737 136 737 140 750 c 0,8,9
 143 764 143 764 153 773.5 c 128,-1,10
 163 783 163 783 176 783 c 0,11,12
 201 783 201 783 212 767 c 2,13,-1
 348 593 l 1,14,-1
 316 592 l 1,4,-1
EndSplineSet
Ligature2: "'liga' Standard Ligatures in Latin lookup 19 subtable" i gravecomb
EndChar
StartChar: iacute
Encoding: 237 237 174
Width: 248
VWidth: 1533
Flags: W
HStem: 0 21G<94 156.534>
VStem: 94 280<0 751 1.53064e-18 1.53064e-18>
Fore
94 0 m 1,0,-1
 187 532 l 1,1,-1
 247 532 l 1,2,-1
 153 0 l 1,3,-1
 94 0 l 1,0,-1
109 595 m 1,4,-1
 307 768 l 2,5,6
 325 785 325 785 348 785 c 0,7,8
 363 785 363 785 370 775 c 128,-1,9
 377 765 377 765 374 751 c 0,10,11
 371 739 371 739 360.5 729 c 128,-1,12
 350 719 350 719 325 704 c 2,13,-1
 141 593 l 1,14,-1
 109 595 l 1,4,-1
EndSplineSet
Ligature2: "'liga' Standard Ligatures in Latin lookup 19 subtable" i acutecomb
EndChar
StartChar: eth
Encoding: 240 240 177
Width: 650
VWidth: 1533
Flags: W
HStem: -14 32<233.221 432.678> 507 33<309.98 511.425>
Fore
665 264 m 0,0,1
 653 199 653 199 621 148 c 128,-1,2
 589 97 589 97 542 61 c 128,-1,3
 495 25 495 25 438.5 5.5 c 128,-1,4
 382 -14 382 -14 320 -14 c 256,5,6
 259 -14 259 -14 209 5.5 c 128,-1,7
 159 25 159 25 125.5 61 c 128,-1,8
 92 97 92 97 77.5 148 c 128,-1,9
 63 199 63 199 75 262 c 0,10,11
 86 327 86 327 118 378 c 128,-1,12
 150 429 150 429 197 465 c 128,-1,13
 244 501 244 501 301.5 520.5 c 128,-1,14
 359 540 359 540 420 540 c 0,15,16
 494 540 494 540 547 512 c 1,17,18
 526 561 526 561 496 602.5 c 128,-1,19
 466 644 466 644 429 678 c 1,20,-1
 227 589 l 1,21,-1
 216 629 l 1,22,-1
 394 707 l 1,23,24
 360 733 360 733 322.5 752 c 128,-1,25
 285 771 285 771 242 788 c 1,26,-1
 264 829 l 1,27,28
 365 793 365 793 446 730 c 1,29,-1
 593 796 l 1,30,-1
 606 756 l 1,31,-1
 481 701 l 1,32,33
 515 673 515 673 552 623 c 128,-1,34
 589 573 589 573 617 512.5 c 128,-1,35
 645 452 645 452 660 386 c 128,-1,36
 675 320 675 320 665 264 c 0,0,1
587 262 m 256,37,38
 596 314 596 314 591.5 359.5 c 128,-1,39
 587 405 587 405 566.5 438 c 128,-1,40
 546 471 546 471 508.5 489 c 128,-1,41
 471 507 471 507 414 507 c 256,42,43
 357 507 357 507 313.5 489 c 128,-1,44
 270 471 270 471 237.5 438 c 128,-1,45
 205 405 205 405 185.5 360.5 c 128,-1,46
 166 316 166 316 156 264 c 256,47,48
 147 212 147 212 151.5 166.5 c 128,-1,49
 156 121 156 121 177 88 c 128,-1,50
 198 55 198 55 235.5 36.5 c 128,-1,51
 273 18 273 18 330 18 c 256,52,53
 386 18 386 18 430 36.5 c 128,-1,54
 474 55 474 55 506 88 c 128,-1,55
 538 121 538 121 558 165.5 c 128,-1,56
 578 210 578 210 587 262 c 256,37,38
EndSplineSet
EndChar
StartChar: ntilde
Encoding: 241 241 178
Width: 642
VWidth: 1533
Flags: W
HStem: 0 21G<69 143.455 500 576.5> 511 38<333.729 466.859> 590 57<494.201 563.388> 645 57<324.111 395.538>
Fore
500 0 m 1,0,-1
 564 370 l 2,1,2
 570 406 570 406 560 432 c 128,-1,3
 550 458 550 458 529.5 476 c 128,-1,4
 509 494 509 494 480 502.5 c 128,-1,5
 451 511 451 511 417 511 c 0,6,7
 374 511 374 511 336.5 493 c 128,-1,8
 299 475 299 475 269 446 c 128,-1,9
 239 417 239 417 219 379.5 c 128,-1,10
 199 342 199 342 192 301 c 2,11,-1
 140 0 l 1,12,-1
 69 0 l 1,13,-1
 163 534 l 1,14,-1
 233 534 l 1,15,-1
 215 434 l 1,16,17
 250 484 250 484 308 516.5 c 128,-1,18
 366 549 366 549 425 549 c 0,19,20
 469 549 469 549 511 539 c 128,-1,21
 553 529 553 529 584 506.5 c 128,-1,22
 615 484 615 484 630 448 c 128,-1,23
 645 412 645 412 636 360 c 2,24,-1
 573 0 l 1,25,-1
 500 0 l 1,0,-1
253 592 m 1,26,27
 265 622 265 622 284 647 c 0,28,29
 301 668 301 668 325.5 685 c 128,-1,30
 350 702 350 702 385 702 c 0,31,32
 409 702 409 702 429 693.5 c 128,-1,33
 449 685 449 685 466.5 674.5 c 128,-1,34
 484 664 484 664 500.5 655.5 c 128,-1,35
 517 647 517 647 534 647 c 0,36,37
 552 647 552 647 566 656 c 128,-1,38
 580 665 580 665 590 678 c 0,39,40
 601 691 601 691 610 708 c 1,41,-1
 635 708 l 1,42,43
 622 675 622 675 604 649 c 0,44,45
 587 627 587 627 562 608.5 c 128,-1,46
 537 590 537 590 498 590 c 0,47,48
 472 590 472 590 453.5 598.5 c 128,-1,49
 435 607 435 607 420 618 c 128,-1,50
 405 629 405 629 389.5 637 c 128,-1,51
 374 645 374 645 354 645 c 0,52,53
 336 645 336 645 321.5 637 c 128,-1,54
 307 629 307 629 297 618 c 0,55,56
 287 606 287 606 279 592 c 1,57,-1
 253 592 l 1,26,27
EndSplineSet
EndChar
StartChar: ograve
Encoding: 242 242 179
Width: 682
VWidth: 1533
Flags: W
HStem: -15 38<247.945 450.231> 509 38<326.385 527.693>
Fore
690 265 m 0,0,1
 678 201 678 201 645 149 c 128,-1,2
 612 97 612 97 564.5 61 c 128,-1,3
 517 25 517 25 458.5 5 c 128,-1,4
 400 -15 400 -15 337 -15 c 256,5,6
 274 -15 274 -15 223 5 c 128,-1,7
 172 25 172 25 137.5 61 c 128,-1,8
 103 97 103 97 87.5 149 c 128,-1,9
 72 201 72 201 84 265 c 0,10,11
 95 330 95 330 128 382 c 128,-1,12
 161 434 161 434 208.5 470.5 c 128,-1,13
 256 507 256 507 315 527 c 128,-1,14
 374 547 374 547 437 547 c 0,15,16
 501 547 501 547 552.5 528 c 128,-1,17
 604 509 604 509 638.5 472 c 128,-1,18
 673 435 673 435 687 383 c 128,-1,19
 701 331 701 331 690 265 c 0,0,1
604 265 m 256,20,21
 613 317 613 317 608.5 362.5 c 128,-1,22
 604 408 604 408 583.5 440 c 128,-1,23
 563 472 563 472 525.5 490.5 c 128,-1,24
 488 509 488 509 431 509 c 0,25,26
 373 509 373 509 329 490.5 c 128,-1,27
 285 472 285 472 253 440 c 128,-1,28
 221 408 221 408 201 363.5 c 128,-1,29
 181 319 181 319 172 267 c 256,30,31
 163 215 163 215 167.5 170.5 c 128,-1,32
 172 126 172 126 192.5 93 c 128,-1,33
 213 60 213 60 250.5 41.5 c 128,-1,34
 288 23 288 23 347 23 c 0,35,36
 403 23 403 23 447 41.5 c 128,-1,37
 491 60 491 60 523 92 c 128,-1,38
 555 124 555 124 575 168.5 c 128,-1,39
 595 213 595 213 604 265 c 256,20,21
534 592 m 1,40,-1
 391 702 l 2,41,42
 371 718 371 718 362.5 727.5 c 128,-1,43
 354 737 354 737 357 750 c 0,44,45
 360 764 360 764 370 773.5 c 128,-1,46
 380 783 380 783 394 783 c 0,47,48
 419 783 419 783 429 767 c 2,49,-1
 566 593 l 1,50,-1
 534 592 l 1,40,-1
EndSplineSet
Ligature2: "'liga' Standard Ligatures in Latin lookup 19 subtable" o gravecomb
EndChar
StartChar: oacute
Encoding: 243 243 180
Width: 682
VWidth: 1533
Flags: W
HStem: -15 38<247.945 450.231> 509 38<326.385 527.693>
Fore
690 265 m 0,0,1
 701 331 701 331 687 383 c 128,-1,2
 673 435 673 435 638.5 472 c 128,-1,3
 604 509 604 509 552.5 528 c 128,-1,4
 501 547 501 547 437 547 c 0,5,6
 374 547 374 547 315 527 c 128,-1,7
 256 507 256 507 208.5 470.5 c 128,-1,8
 161 434 161 434 128 382 c 128,-1,9
 95 330 95 330 84 265 c 0,10,11
 72 201 72 201 87.5 149 c 128,-1,12
 103 97 103 97 137.5 61 c 128,-1,13
 172 25 172 25 223 5 c 128,-1,14
 274 -15 274 -15 337 -15 c 256,15,16
 400 -15 400 -15 458.5 5 c 128,-1,17
 517 25 517 25 564.5 61 c 128,-1,18
 612 97 612 97 645 149 c 128,-1,19
 678 201 678 201 690 265 c 0,0,1
604 265 m 256,20,21
 595 213 595 213 575 168.5 c 128,-1,22
 555 124 555 124 523 92 c 128,-1,23
 491 60 491 60 447 41.5 c 128,-1,24
 403 23 403 23 347 23 c 0,25,26
 288 23 288 23 250.5 41.5 c 128,-1,27
 213 60 213 60 192.5 93 c 128,-1,28
 172 126 172 126 167.5 170.5 c 128,-1,29
 163 215 163 215 172 267 c 256,30,31
 181 319 181 319 201 363.5 c 128,-1,32
 221 408 221 408 253 440 c 128,-1,33
 285 472 285 472 329 490.5 c 128,-1,34
 373 509 373 509 431 509 c 0,35,36
 488 509 488 509 525.5 490.5 c 128,-1,37
 563 472 563 472 583.5 440 c 128,-1,38
 604 408 604 408 608.5 362.5 c 128,-1,39
 613 317 613 317 604 265 c 256,20,21
337 595 m 1,40,-1
 535 768 l 2,41,42
 553 785 553 785 576 785 c 0,43,44
 592 785 592 785 599 775 c 128,-1,45
 606 765 606 765 603 751 c 0,46,47
 599 739 599 739 588.5 729 c 128,-1,48
 578 719 578 719 553 704 c 2,49,-1
 370 593 l 1,50,-1
 337 595 l 1,40,-1
EndSplineSet
Ligature2: "'liga' Standard Ligatures in Latin lookup 19 subtable" o acutecomb
EndChar
StartChar: otilde
Encoding: 245 245 182
Width: 682
VWidth: 1533
Flags: W
HStem: -15 38<247.945 450.231> 509 38<326.385 527.693> 592 57<507.196 576.888> 647 57<337.369 408.596>
Fore
690 265 m 0,0,1
 678 201 678 201 645 149 c 128,-1,2
 612 97 612 97 564.5 61 c 128,-1,3
 517 25 517 25 458.5 5 c 128,-1,4
 400 -15 400 -15 337 -15 c 256,5,6
 274 -15 274 -15 223 5 c 128,-1,7
 172 25 172 25 137.5 61 c 128,-1,8
 103 97 103 97 87.5 149 c 128,-1,9
 72 201 72 201 84 265 c 0,10,11
 95 330 95 330 128 382 c 128,-1,12
 161 434 161 434 208.5 470.5 c 128,-1,13
 256 507 256 507 315 527 c 128,-1,14
 374 547 374 547 437 547 c 0,15,16
 501 547 501 547 552.5 528 c 128,-1,17
 604 509 604 509 638.5 472 c 128,-1,18
 673 435 673 435 687 383 c 128,-1,19
 701 331 701 331 690 265 c 0,0,1
604 265 m 256,20,21
 613 317 613 317 608.5 362.5 c 128,-1,22
 604 408 604 408 583.5 440 c 128,-1,23
 563 472 563 472 525.5 490.5 c 128,-1,24
 488 509 488 509 431 509 c 0,25,26
 373 509 373 509 329 490.5 c 128,-1,27
 285 472 285 472 253 440 c 128,-1,28
 221 408 221 408 201 363.5 c 128,-1,29
 181 319 181 319 172 267 c 256,30,31
 163 215 163 215 167.5 170.5 c 128,-1,32
 172 126 172 126 192.5 93 c 128,-1,33
 213 60 213 60 250.5 41.5 c 128,-1,34
 288 23 288 23 347 23 c 0,35,36
 403 23 403 23 447 41.5 c 128,-1,37
 491 60 491 60 523 92 c 128,-1,38
 555 124 555 124 575 168.5 c 128,-1,39
 595 213 595 213 604 265 c 256,20,21
267 593 m 1,40,41
 279 624 279 624 297 649 c 0,42,43
 314 670 314 670 338.5 687 c 128,-1,44
 363 704 363 704 399 704 c 0,45,46
 423 704 423 704 443 695.5 c 128,-1,47
 463 687 463 687 480.5 676 c 128,-1,48
 498 665 498 665 514 657 c 128,-1,49
 530 649 530 649 547 649 c 0,50,51
 566 649 566 649 579.5 658 c 128,-1,52
 593 667 593 667 604 679 c 0,53,54
 615 693 615 693 624 710 c 1,55,-1
 649 710 l 1,56,57
 636 676 636 676 618 650 c 0,58,59
 601 629 601 629 575.5 610.5 c 128,-1,60
 550 592 550 592 512 592 c 0,61,62
 486 592 486 592 467.5 600.5 c 128,-1,63
 449 609 449 609 434 619.5 c 128,-1,64
 419 630 419 630 403.5 638.5 c 128,-1,65
 388 647 388 647 368 647 c 0,66,67
 350 647 350 647 335 638.5 c 128,-1,68
 320 630 320 630 311 619 c 0,69,70
 301 607 301 607 293 593 c 1,71,-1
 267 593 l 1,40,41
EndSplineSet
Ligature2: "'liga' Standard Ligatures in Latin lookup 19 subtable" o tildecomb
EndChar
StartChar: divide
Encoding: 247 247 184
Width: 657
VWidth: 1533
Flags: W
HStem: 0 127<303.173 374.827> 262 57<100 659> 455 125<382.173 454.827>
Fore
668 319 m 1,0,-1
 659 262 l 1,1,-1
 90 262 l 1,2,-1
 100 319 l 1,3,-1
 668 319 l 1,0,-1
356 518 m 256,4,5
 360 544 360 544 381.5 562 c 128,-1,6
 403 580 403 580 429 580 c 256,7,8
 455 580 455 580 470.5 562 c 128,-1,9
 486 544 486 544 481 518 c 256,10,11
 477 492 477 492 455.5 473.5 c 128,-1,12
 434 455 434 455 408 455 c 256,13,14
 382 455 382 455 366.5 473.5 c 128,-1,15
 351 492 351 492 356 518 c 256,4,5
276 63 m 256,16,17
 281 89 281 89 302.5 108 c 128,-1,18
 324 127 324 127 350 127 c 256,19,20
 376 127 376 127 391 108 c 128,-1,21
 406 89 406 89 402 63 c 256,22,23
 397 37 397 37 375.5 18.5 c 128,-1,24
 354 0 354 0 328 0 c 256,25,26
 302 0 302 0 286.5 18.5 c 128,-1,27
 271 37 271 37 276 63 c 256,16,17
EndSplineSet
EndChar
StartChar: oslash
Encoding: 248 248 185
Width: 746
VWidth: 1533
Flags: W
HStem: -12 37<293.875 479.234> 566 35<381.21 567.96>
Fore
225 101 m 1,0,1
 255 66 255 66 294 45.5 c 128,-1,2
 333 25 333 25 382 25 c 256,3,4
 431 25 431 25 479 46 c 128,-1,5
 527 67 527 67 568 104 c 128,-1,6
 609 141 609 141 638 190 c 128,-1,7
 667 239 667 239 678 296 c 0,8,9
 685 342 685 342 679 384 c 128,-1,10
 673 426 673 426 653 460 c 1,11,-1
 225 101 l 1,0,1
635 492 m 1,12,13
 606 527 606 527 566.5 546.5 c 128,-1,14
 527 566 527 566 478 566 c 256,15,16
 429 566 429 566 381 545 c 128,-1,17
 333 524 333 524 292 487.5 c 128,-1,18
 251 451 251 451 222 402 c 128,-1,19
 193 353 193 353 184 296 c 0,20,21
 175 250 175 250 182 208 c 128,-1,22
 189 166 189 166 205 130 c 1,23,-1
 635 492 l 1,12,13
-8 -52 m 1,24,-1
 147 81 l 1,25,26
 109 123 109 123 93 177.5 c 128,-1,27
 77 232 77 232 87 294 c 0,28,29
 98 359 98 359 135.5 415 c 128,-1,30
 173 471 173 471 227.5 512 c 128,-1,31
 282 553 282 553 348.5 577 c 128,-1,32
 415 601 415 601 486 601 c 0,33,34
 546 601 546 601 596.5 582.5 c 128,-1,35
 647 564 647 564 687 534 c 1,36,-1
 800 630 l 1,37,-1
 857 630 l 1,38,-1
 713 509 l 1,39,40
 751 469 751 469 768 414 c 128,-1,41
 785 359 785 359 773 294 c 0,42,43
 762 232 762 232 725 176 c 128,-1,44
 688 120 688 120 634.5 78.5 c 128,-1,45
 581 37 581 37 514.5 12.5 c 128,-1,46
 448 -12 448 -12 377 -12 c 0,47,48
 316 -12 316 -12 264.5 6.5 c 128,-1,49
 213 25 213 25 175 55 c 1,50,-1
 46 -52 l 1,51,-1
 -8 -52 l 1,24,-1
EndSplineSet
EndChar
StartChar: ugrave
Encoding: 249 249 186
Width: 705
VWidth: 1533
Flags: W
HStem: -17 38<268.307 371.125> 514 20G<159.409 236 592.478 667>
Fore
503 0 m 1,0,-1
 520 100 l 1,1,2
 503 75 503 75 478.5 54.5 c 128,-1,3
 454 34 454 34 426.5 18 c 128,-1,4
 399 2 399 2 369 -7.5 c 128,-1,5
 339 -17 339 -17 311 -17 c 0,6,7
 267 -17 267 -17 224 -7 c 128,-1,8
 181 3 181 3 150.5 25.5 c 128,-1,9
 120 48 120 48 104.5 84 c 128,-1,10
 89 120 89 120 98 172 c 2,11,-1
 163 534 l 1,12,-1
 236 534 l 1,13,-1
 170 163 l 2,14,15
 164 127 164 127 174 100.5 c 128,-1,16
 184 74 184 74 204.5 56 c 128,-1,17
 225 38 225 38 254.5 29.5 c 128,-1,18
 284 21 284 21 317 21 c 0,19,20
 360 21 360 21 398.5 39 c 128,-1,21
 437 57 437 57 467 87 c 128,-1,22
 497 117 497 117 516 155 c 128,-1,23
 535 193 535 193 543 233 c 2,24,-1
 596 534 l 1,25,-1
 667 534 l 1,26,-1
 573 0 l 1,27,-1
 503 0 l 1,0,-1
514 593 m 1,28,-1
 371 704 l 2,29,30
 351 719 351 719 342.5 729 c 128,-1,31
 334 739 334 739 337 751 c 0,32,33
 340 765 340 765 350 775 c 128,-1,34
 360 785 360 785 374 785 c 0,35,36
 399 785 399 785 409 768 c 2,37,-1
 546 595 l 1,38,-1
 514 593 l 1,28,-1
EndSplineSet
Ligature2: "'liga' Standard Ligatures in Latin lookup 19 subtable" u gravecomb
EndChar
StartChar: uacute
Encoding: 250 250 187
Width: 642
VWidth: 1533
Flags: W
HStem: -17 38<268.307 371.125> 514 20G<163 232.442 596 663.479>
Fore
573 0 m 1,0,-1
 667 534 l 1,1,-1
 596 534 l 1,2,-1
 543 233 l 2,3,4
 535 193 535 193 516 155 c 128,-1,5
 497 117 497 117 467 87 c 128,-1,6
 437 57 437 57 398.5 39 c 128,-1,7
 360 21 360 21 317 21 c 0,8,9
 284 21 284 21 254.5 29.5 c 128,-1,10
 225 38 225 38 204.5 56 c 128,-1,11
 184 74 184 74 174 100.5 c 128,-1,12
 164 127 164 127 170 163 c 2,13,-1
 236 534 l 1,14,-1
 163 534 l 1,15,-1
 98 172 l 2,16,17
 89 120 89 120 104.5 84 c 128,-1,18
 120 48 120 48 150.5 25.5 c 128,-1,19
 181 3 181 3 224 -7 c 128,-1,20
 267 -17 267 -17 311 -17 c 0,21,22
 339 -17 339 -17 369 -7.5 c 128,-1,23
 399 2 399 2 426.5 18 c 128,-1,24
 454 34 454 34 478.5 54.5 c 128,-1,25
 503 75 503 75 520 100 c 1,26,-1
 503 0 l 1,27,-1
 573 0 l 1,0,-1
310 593 m 1,28,-1
 507 767 l 2,29,30
 526 783 526 783 549 783 c 0,31,32
 564 783 564 783 571 773.5 c 128,-1,33
 578 764 578 764 575 750 c 0,34,35
 572 737 572 737 561 727.5 c 128,-1,36
 550 718 550 718 526 702 c 2,37,-1
 342 592 l 1,38,-1
 310 593 l 1,28,-1
EndSplineSet
Ligature2: "'liga' Standard Ligatures in Latin lookup 19 subtable" u acutecomb
EndChar
StartChar: yacute
Encoding: 253 253 190
Width: 584
VWidth: 1533
Flags: W
HStem: -202 49<51.6193 134.547> 514 20G<104.825 178 630 659.448>
Fore
69 -202 m 0,0,1
 101 -202 101 -202 132 -186 c 128,-1,2
 163 -170 163 -170 192.5 -144 c 128,-1,3
 222 -118 222 -118 249 -84.5 c 128,-1,4
 276 -51 276 -51 301 -15 c 2,5,-1
 673 534 l 1,6,-1
 630 534 l 1,7,-1
 330 90 l 1,8,-1
 178 534 l 1,9,-1
 98 534 l 1,10,-1
 256 71 l 2,11,12
 261 54 261 54 263 38.5 c 128,-1,13
 265 23 265 23 262 6 c 0,14,15
 258 -18 258 -18 239.5 -46.5 c 128,-1,16
 221 -75 221 -75 195 -99 c 128,-1,17
 169 -123 169 -123 139 -138 c 128,-1,18
 109 -153 109 -153 83 -153 c 0,19,20
 63 -153 63 -153 48.5 -146.5 c 128,-1,21
 34 -140 34 -140 21 -120 c 1,22,-1
 -20 -175 l 1,23,24
 -3 -190 -3 -190 22.5 -196 c 128,-1,25
 48 -202 48 -202 69 -202 c 0,0,1
293 595 m 1,26,-1
 491 768 l 2,27,28
 509 785 509 785 532 785 c 0,29,30
 547 785 547 785 554 775 c 128,-1,31
 561 765 561 765 558 751 c 0,32,33
 555 739 555 739 544.5 729 c 128,-1,34
 534 719 534 719 509 704 c 2,35,-1
 325 593 l 1,36,-1
 293 595 l 1,26,-1
EndSplineSet
Ligature2: "'liga' Standard Ligatures in Latin lookup 19 subtable" y acutecomb
EndChar
StartChar: thorn
Encoding: 254 254 191
Width: 714
VWidth: 1533
Flags: W
HStem: 0 21G<69 155.478> 184 35<190 396.669> 538 34<250 437.34> 696 20G<191.48 276>
Fore
744 385 m 0,0,1
 733 325 733 325 694 286 c 128,-1,2
 655 247 655 247 594.5 224 c 128,-1,3
 534 201 534 201 455 192.5 c 128,-1,4
 376 184 376 184 285 184 c 2,5,-1
 184 184 l 1,6,-1
 152 0 l 1,7,-1
 69 0 l 1,8,-1
 195 716 l 1,9,-1
 276 716 l 1,10,-1
 250 572 l 1,11,-1
 356 572 l 2,12,13
 561 572 561 572 661.5 530.5 c 128,-1,14
 762 489 762 489 744 385 c 0,0,1
635 386 m 0,15,16
 641 420 641 420 628.5 448.5 c 128,-1,17
 616 477 616 477 582.5 497 c 128,-1,18
 549 517 549 517 492 527.5 c 128,-1,19
 435 538 435 538 353 538 c 2,20,-1
 245 538 l 1,21,-1
 190 219 l 1,22,-1
 293 219 l 2,23,24
 451 219 451 219 534.5 255 c 128,-1,25
 618 291 618 291 635 386 c 0,15,16
EndSplineSet
EndChar
StartChar: Lslash
Encoding: 321 321 193
Width: 657
VWidth: 1533
Flags: W
HStem: 0 37<205 644> 696 20G<237.48 325>
Fore
486 497 m 1,0,-1
 481 475 l 1,1,-1
 84 314 l 1,2,-1
 87 336 l 1,3,-1
 486 497 l 1,0,-1
115 0 m 1,4,-1
 241 716 l 1,5,-1
 325 716 l 1,6,-1
 205 37 l 1,7,-1
 650 37 l 1,8,-1
 644 0 l 1,9,-1
 115 0 l 1,4,-1
EndSplineSet
EndChar
StartChar: lslash
Encoding: 322 322 194
Width: 280
VWidth: 1533
Flags: W
HStem: 0 21G<103 189.435> 696 20G<224.519 311>
VStem: 103 242<0 512 21.5433 49.5613>
Fore
103 0 m 1,0,-1
 176 425 l 1,1,-1
 107 397 l 1,2,-1
 112 420 l 1,3,-1
 181 446 l 1,4,-1
 228 716 l 1,5,-1
 311 716 l 1,6,-1
 270 483 l 1,7,-1
 345 512 l 1,8,-1
 342 492 l 1,9,-1
 265 460 l 1,10,-1
 186 0 l 1,11,-1
 103 0 l 1,0,-1
EndSplineSet
EndChar
StartChar: OE
Encoding: 338 338 195
Width: 1278
VWidth: 1533
Flags: W
HStem: -26 29<310.628 545.067> 0 37<813 1265> 366 37<877 1219> 678 38<925 1383> 710 29<427.623 661.542>
Fore
724 0 m 1,0,-1
 741 103 l 1,1,2
 676 41 676 41 592.5 7.5 c 128,-1,3
 509 -26 509 -26 419 -26 c 0,4,5
 337 -26 337 -26 270.5 1.5 c 128,-1,6
 204 29 204 29 158.5 79.5 c 128,-1,7
 113 130 113 130 94 200.5 c 128,-1,8
 75 271 75 271 90 356 c 256,9,10
 106 440 106 440 149.5 510.5 c 128,-1,11
 193 581 193 581 256.5 631.5 c 128,-1,12
 320 682 320 682 397 710.5 c 128,-1,13
 474 739 474 739 553 739 c 0,14,15
 644 739 644 739 715.5 705.5 c 128,-1,16
 787 672 787 672 831 612 c 1,17,-1
 849 716 l 1,18,-1
 1391 716 l 1,19,-1
 1383 678 l 1,20,-1
 925 678 l 1,21,-1
 877 403 l 1,22,-1
 1225 403 l 1,23,-1
 1219 366 l 1,24,-1
 871 366 l 1,25,-1
 813 37 l 1,26,-1
 1271 37 l 1,27,-1
 1265 0 l 1,28,-1
 724 0 l 1,0,-1
780 357 m 0,29,30
 793 428 793 428 786.5 492.5 c 128,-1,31
 780 557 780 557 752.5 605 c 128,-1,32
 725 653 725 653 674.5 681.5 c 128,-1,33
 624 710 624 710 549 710 c 0,34,35
 472 710 472 710 411.5 681.5 c 128,-1,36
 351 653 351 653 306.5 605 c 128,-1,37
 262 557 262 557 233 492.5 c 128,-1,38
 204 428 204 428 192 356 c 256,39,40
 179 284 179 284 185.5 220 c 128,-1,41
 192 156 192 156 219.5 108 c 128,-1,42
 247 60 247 60 297 31.5 c 128,-1,43
 347 3 347 3 423 3 c 256,44,45
 500 3 500 3 560.5 31.5 c 128,-1,46
 621 60 621 60 665.5 109 c 128,-1,47
 710 158 710 158 739 221.5 c 128,-1,48
 768 285 768 285 780 357 c 0,29,30
EndSplineSet
EndChar
StartChar: oe
Encoding: 339 339 196
Width: 1042
VWidth: 1533
Flags: W
HStem: -15 38<211.572 392.163 684.16 839.797> 333 38<647 987> 509 38<285.785 470.697 748.425 922.102>
VStem: 541 67.5<174 262 262 357.5> 966 69<122.342 190>
Fore
629 333 m 1,0,1
 619 316 619 316 617 297.5 c 128,-1,2
 615 279 615 279 612 262 c 0,3,4
 604 218 604 218 608.5 174 c 128,-1,5
 613 130 613 130 631.5 96.5 c 128,-1,6
 650 63 650 63 684 42 c 128,-1,7
 718 21 718 21 767 21 c 0,8,9
 800 21 800 21 832.5 35 c 128,-1,10
 865 49 865 49 891.5 72 c 128,-1,11
 918 95 918 95 937.5 125.5 c 128,-1,12
 957 156 957 156 966 190 c 1,13,-1
 1035 190 l 1,14,15
 1026 143 1026 143 998.5 104.5 c 128,-1,16
 971 66 971 66 932.5 39 c 128,-1,17
 894 12 894 12 849.5 -2.5 c 128,-1,18
 805 -17 805 -17 760 -17 c 0,19,20
 687 -17 687 -17 631 16 c 128,-1,21
 575 49 575 49 546 112 c 1,22,23
 498 48 498 48 430.5 16.5 c 128,-1,24
 363 -15 363 -15 290 -15 c 0,25,26
 228 -15 228 -15 181.5 6.5 c 128,-1,27
 135 28 135 28 106 66 c 128,-1,28
 77 104 77 104 66 154.5 c 128,-1,29
 55 205 55 205 66 265 c 256,30,31
 77 325 77 325 105 377 c 128,-1,32
 133 429 133 429 175.5 466.5 c 128,-1,33
 218 504 218 504 271.5 525.5 c 128,-1,34
 325 547 325 547 388 547 c 0,35,36
 460 547 460 547 516.5 515.5 c 128,-1,37
 573 484 573 484 599 425 c 1,38,39
 647 484 647 484 712 517 c 128,-1,40
 777 550 777 550 848 550 c 0,41,42
 949 550 949 550 1011 493.5 c 128,-1,43
 1073 437 1073 437 1066 333 c 1,44,-1
 629 333 l 1,0,1
987 371 m 1,45,46
 981 432 981 432 942 473 c 128,-1,47
 903 514 903 514 837 514 c 0,48,49
 773 514 773 514 722.5 471.5 c 128,-1,50
 672 429 672 429 647 371 c 1,51,-1
 987 371 l 1,45,46
535 265 m 256,52,53
 544 313 544 313 541 357.5 c 128,-1,54
 538 402 538 402 521 435.5 c 128,-1,55
 504 469 504 469 470.5 489 c 128,-1,56
 437 509 437 509 382 509 c 256,57,58
 327 509 327 509 287 489 c 128,-1,59
 247 469 247 469 218 435.5 c 128,-1,60
 189 402 189 402 172 358 c 128,-1,61
 155 314 155 314 146 267 c 0,62,63
 138 219 138 219 140.5 175.5 c 128,-1,64
 143 132 143 132 159.5 98 c 128,-1,65
 176 64 176 64 210 43.5 c 128,-1,66
 244 23 244 23 297 23 c 0,67,68
 353 23 353 23 393.5 43 c 128,-1,69
 434 63 434 63 462.5 96.5 c 128,-1,70
 491 130 491 130 508.5 174 c 128,-1,71
 526 218 526 218 535 265 c 256,52,53
EndSplineSet
EndChar
StartChar: Scaron
Encoding: 352 352 197
Width: 792
VWidth: 1533
Flags: W
HStem: -25 36<316.149 442.099> 702 34<454.675 566.972>
VStem: 90 102<142.151 207> 713 89<557 625.606>
Fore
756 204 m 0,0,1
 765 251 765 251 746.5 283.5 c 128,-1,2
 728 316 728 316 693 337.5 c 128,-1,3
 658 359 658 359 611 372.5 c 128,-1,4
 564 386 564 386 514.5 397 c 128,-1,5
 465 408 465 408 417.5 419.5 c 128,-1,6
 370 431 370 431 333.5 448.5 c 128,-1,7
 297 466 297 466 278 493 c 128,-1,8
 259 520 259 520 267 560 c 0,9,10
 274 603 274 603 300.5 630.5 c 128,-1,11
 327 658 327 658 361.5 674 c 128,-1,12
 396 690 396 690 435 696 c 128,-1,13
 474 702 474 702 507 702 c 0,14,15
 544 702 544 702 581 695 c 128,-1,16
 618 688 618 688 647 671.5 c 128,-1,17
 676 655 676 655 694.5 626.5 c 128,-1,18
 713 598 713 598 713 557 c 1,19,-1
 802 557 l 1,20,21
 802 609 802 609 773.5 644 c 128,-1,22
 745 679 745 679 703 699 c 128,-1,23
 661 719 661 719 610.5 727.5 c 128,-1,24
 560 736 560 736 515 736 c 0,25,26
 469 736 469 736 413 727 c 128,-1,27
 357 718 357 718 306.5 695 c 128,-1,28
 256 672 256 672 218.5 633.5 c 128,-1,29
 181 595 181 595 170 537 c 0,30,31
 159 472 159 472 193.5 436 c 128,-1,32
 228 400 228 400 286.5 378.5 c 128,-1,33
 345 357 345 357 414 344 c 128,-1,34
 483 331 483 331 541 312.5 c 128,-1,35
 599 294 599 294 635.5 263.5 c 128,-1,36
 672 233 672 233 661 178 c 0,37,38
 652 130 652 130 622.5 98 c 128,-1,39
 593 66 593 66 554 47 c 128,-1,40
 515 28 515 28 470 19.5 c 128,-1,41
 425 11 425 11 386 11 c 0,42,43
 342 11 342 11 304.5 24.5 c 128,-1,44
 267 38 267 38 240 63.5 c 128,-1,45
 213 89 213 89 200 125 c 128,-1,46
 187 161 187 161 192 207 c 1,47,-1
 90 207 l 1,48,49
 84 146 84 146 108.5 102 c 128,-1,50
 133 58 133 58 175.5 30 c 128,-1,51
 218 2 218 2 272.5 -11.5 c 128,-1,52
 327 -25 327 -25 380 -25 c 0,53,54
 435 -25 435 -25 496.5 -15 c 128,-1,55
 558 -5 558 -5 611.5 21.5 c 128,-1,56
 665 48 665 48 704.5 91.5 c 128,-1,57
 744 135 744 135 756 204 c 0,0,1
572 770 m 1,58,-1
 506 770 l 1,59,-1
 405 955 l 1,60,-1
 437 955 l 1,61,-1
 550 834 l 1,62,-1
 710 955 l 1,63,-1
 741 955 l 1,64,-1
 572 770 l 1,58,-1
EndSplineSet
EndChar
StartChar: scaron
Encoding: 353 353 198
Width: 654
VWidth: 1533
Flags: W
HStem: -18 38<256.042 354.141> 505 35.5<285.297 322 338 357.5 357.5 371.27 364.385 463.305>
VStem: 67 76<96.2675 152> 543 75<379 452.348>
Fore
583 153 m 0,0,1
 589 192 589 192 575 216.5 c 128,-1,2
 561 241 561 241 534 256 c 128,-1,3
 507 271 507 271 471 279 c 128,-1,4
 435 287 435 287 399 294 c 0,5,6
 366 301 366 301 329.5 307.5 c 128,-1,7
 293 314 293 314 264 328 c 0,8,9
 238 340 238 340 224 360 c 128,-1,10
 210 380 210 380 216 414 c 0,11,12
 221 443 221 443 240 462 c 128,-1,13
 259 481 259 481 284.5 491 c 128,-1,14
 310 501 310 501 338 505 c 128,-1,15
 366 509 366 509 391 509 c 0,16,17
 452 509 452 509 497.5 476 c 128,-1,18
 543 443 543 443 543 379 c 1,19,-1
 618 379 l 1,20,21
 618 425 618 425 599 456.5 c 128,-1,22
 580 488 580 488 548.5 508.5 c 128,-1,23
 517 529 517 529 477.5 538 c 128,-1,24
 438 547 438 547 399 547 c 0,25,26
 363 547 363 547 322 540.5 c 128,-1,27
 281 534 281 534 242.5 517 c 128,-1,28
 204 500 204 500 175.5 471 c 128,-1,29
 147 442 147 442 140 399 c 256,30,31
 132 356 132 356 145.5 329 c 128,-1,32
 159 302 159 302 185.5 285 c 128,-1,33
 212 268 212 268 248 259 c 128,-1,34
 284 250 284 250 322 244 c 0,35,36
 339 241 339 241 357.5 237 c 128,-1,37
 376 233 376 233 394 230 c 0,38,39
 411 227 411 227 427 223 c 128,-1,40
 443 219 443 219 455 213 c 0,41,42
 481 201 481 201 496 182.5 c 128,-1,43
 511 164 511 164 504 133 c 0,44,45
 498 98 498 98 476.5 76 c 128,-1,46
 455 54 455 54 426 41.5 c 128,-1,47
 397 29 397 29 364 24.5 c 128,-1,48
 331 20 331 20 302 20 c 0,49,50
 271 20 271 20 243 28.5 c 128,-1,51
 215 37 215 37 192 54 c 128,-1,52
 169 71 169 71 156 95.5 c 128,-1,53
 143 120 143 120 143 152 c 1,54,-1
 67 152 l 1,55,56
 67 107 67 107 88.5 75 c 128,-1,57
 110 43 110 43 142.5 22.5 c 128,-1,58
 175 2 175 2 215 -8 c 128,-1,59
 255 -18 255 -18 294 -18 c 0,60,61
 336 -18 336 -18 382.5 -10.5 c 128,-1,62
 429 -3 429 -3 470.5 16 c 128,-1,63
 512 35 512 35 542.5 68 c 128,-1,64
 573 101 573 101 583 153 c 0,0,1
461 595 m 1,65,-1
 396 595 l 1,66,-1
 294 780 l 1,67,-1
 327 780 l 1,68,-1
 440 659 l 1,69,-1
 599 780 l 1,70,-1
 630 780 l 1,71,-1
 461 595 l 1,65,-1
EndSplineSet
EndChar
StartChar: Ydieresis
Encoding: 376 376 199
Width: 754
VWidth: 1533
Flags: W
HStem: 0 21G<324 412.54> 696 20G<141 243.803 794 863> 768 112<402.626 466.405 593.11 657.89>
VStem: 377 112<784.502 860.307> 569 112<784.502 861.393>
Fore
466 322 m 1,0,-1
 409 0 l 1,1,-1
 324 0 l 1,2,-1
 377 307 l 1,3,-1
 141 716 l 1,4,-1
 232 716 l 1,5,-1
 448 350 l 1,6,-1
 814 716 l 1,7,-1
 863 716 l 1,8,-1
 466 322 l 1,0,-1
377 823 m 0,9,10
 382 846 382 846 402 863 c 128,-1,11
 422 880 422 880 445 880 c 256,12,13
 468 880 468 880 481 863 c 128,-1,14
 494 846 494 846 489 823 c 0,15,16
 486 800 486 800 467 784 c 128,-1,17
 448 768 448 768 425 768 c 256,18,19
 402 768 402 768 388 784 c 128,-1,20
 374 800 374 800 377 823 c 0,9,10
569 823 m 0,21,22
 573 846 573 846 592.5 863 c 128,-1,23
 612 880 612 880 636 880 c 0,24,25
 659 880 659 880 672 863 c 128,-1,26
 685 846 685 846 681 823 c 0,27,28
 678 800 678 800 658.5 784 c 128,-1,29
 639 768 639 768 616 768 c 0,30,31
 592 768 592 768 579 784 c 128,-1,32
 566 800 566 800 569 823 c 0,21,22
EndSplineSet
EndChar
StartChar: Zcaron
Encoding: 381 381 200
Width: 683
VWidth: 1533
Flags: W
HStem: 0 21G<41.4071 624> 696 20G<196 757.649>
Fore
776 716 m 1,0,-1
 196 716 l 1,1,-1
 176 678 l 1,2,-1
 647 678 l 1,3,-1
 23 0 l 1,4,-1
 624 0 l 1,5,-1
 642 37 l 1,6,-1
 153 37 l 1,7,-1
 776 716 l 1,0,-1
520 767 m 1,8,-1
 454 767 l 1,9,-1
 353 952 l 1,10,-1
 385 952 l 1,11,-1
 498 831 l 1,12,-1
 658 952 l 1,13,-1
 688 952 l 1,14,-1
 520 767 l 1,8,-1
EndSplineSet
EndChar
StartChar: zcaron
Encoding: 382 382 201
Width: 601
VWidth: 1533
Flags: W
HStem: 0 21G<37.6364 498> 514 20G<173 606.324>
Fore
626 534 m 1,0,-1
 173 534 l 1,1,-1
 153 495 l 1,2,-1
 504 495 l 1,3,-1
 18 0 l 1,4,-1
 498 0 l 1,5,-1
 521 40 l 1,6,-1
 140 40 l 1,7,-1
 626 534 l 1,0,-1
449 593 m 1,8,-1
 383 593 l 1,9,-1
 282 779 l 1,10,-1
 314 779 l 1,11,-1
 428 658 l 1,12,-1
 587 779 l 1,13,-1
 618 779 l 1,14,-1
 449 593 l 1,8,-1
EndSplineSet
EndChar
StartChar: florin
Encoding: 402 402 202
Width: 716
VWidth: 1533
Flags: W
HStem: -222 33<63.7363 169.477> 468 27<339 428 514 609> 751 39<638.941 734.477>
Fore
435 495 m 1,0,-1
 442 521 l 2,1,2
 458 575 458 575 486 623.5 c 128,-1,3
 514 672 514 672 552 708.5 c 128,-1,4
 590 745 590 745 637.5 767.5 c 128,-1,5
 685 790 685 790 742 790 c 0,6,7
 751 790 751 790 764 783.5 c 128,-1,8
 777 777 777 777 788.5 768.5 c 128,-1,9
 800 760 800 760 809.5 749.5 c 128,-1,10
 819 739 819 739 823 730 c 1,11,-1
 739 695 l 1,12,13
 736 713 736 713 718.5 732 c 128,-1,14
 701 751 701 751 687 751 c 0,15,16
 659 751 659 751 636 738 c 128,-1,17
 613 725 613 725 596.5 703 c 128,-1,18
 580 681 580 681 567.5 654 c 128,-1,19
 555 627 555 627 546 599 c 2,20,-1
 514 495 l 1,21,-1
 619 495 l 1,22,-1
 609 468 l 1,23,-1
 504 468 l 1,24,-1
 374 28 l 2,25,26
 360 -20 360 -20 332 -65 c 128,-1,27
 304 -110 304 -110 263 -144.5 c 128,-1,28
 222 -179 222 -179 170 -200.5 c 128,-1,29
 118 -222 118 -222 55 -222 c 0,30,31
 35 -222 35 -222 16 -205.5 c 128,-1,32
 -3 -189 -3 -189 -9 -163 c 1,33,-1
 67 -146 l 1,34,35
 77 -159 77 -159 92 -174 c 128,-1,36
 107 -189 107 -189 138 -189 c 0,37,38
 178 -189 178 -189 218.5 -143 c 128,-1,39
 259 -97 259 -97 281 -20 c 2,40,-1
 428 468 l 1,41,-1
 327 468 l 1,42,-1
 339 495 l 1,43,-1
 435 495 l 1,0,-1
EndSplineSet
EndChar
StartChar: circumflex
Encoding: 710 710 203
Width: 364
VWidth: 1533
Flags: W
HStem: 679 186<302 438 302 302>
VStem: 135 334<679 679 679 679>
Fore
438 679 m 1,0,-1
 324 800 l 1,1,-1
 167 679 l 1,2,-1
 135 679 l 1,3,-1
 302 865 l 1,4,-1
 368 865 l 1,5,-1
 469 679 l 1,6,-1
 438 679 l 1,0,-1
EndSplineSet
EndChar
StartChar: caron
Encoding: 711 711 204
Width: 343
VWidth: 1533
Flags: W
HStem: 642 186<147 314 147 147>
VStem: 147 336<828 828 828 828>
Fore
314 642 m 1,0,-1
 248 642 l 1,1,-1
 147 828 l 1,2,-1
 179 828 l 1,3,-1
 293 707 l 1,4,-1
 452 828 l 1,5,-1
 483 828 l 1,6,-1
 314 642 l 1,0,-1
EndSplineSet
EndChar
StartChar: breve
Encoding: 728 728 205
Width: 309
VWidth: 1533
Flags: W
HStem: 641 63<198.704 348.134> 641 176
VStem: 140 312<744 817 817 817 817 817> 140 24<741.678 817>
Fore
452 817 m 1,0,1
 435 744 435 744 386 692.5 c 128,-1,2
 337 641 337 641 265 641 c 0,3,4
 192 641 192 641 161 692.5 c 128,-1,5
 130 744 130 744 140 817 c 1,6,-1
 164 817 l 1,7,8
 166 768 166 768 189 736 c 128,-1,9
 212 704 212 704 276 704 c 256,10,11
 340 704 340 704 374 736 c 128,-1,12
 408 768 408 768 425 817 c 1,13,-1
 452 817 l 1,0,1
EndSplineSet
EndChar
StartChar: dotaccent
Encoding: 729 729 206
Width: 280
VWidth: 1533
Flags: W
HStem: 642 111<229.595 293.374>
VStem: 207 112<696 735.467>
Fore
207 696 m 1,0,1
 210 719 210 719 229 736 c 128,-1,2
 248 753 248 753 271 753 c 256,3,4
 294 753 294 753 308 736 c 128,-1,5
 322 719 322 719 319 696 c 0,6,7
 314 675 314 675 294 658.5 c 128,-1,8
 274 642 274 642 251 642 c 256,9,10
 228 642 228 642 216 658.5 c 128,-1,11
 204 675 204 675 209 696 c 1,12,-1
 207 696 l 1,0,1
EndSplineSet
EndChar
